<mxfile host="65bd71144e">
    <diagram id="2IddmRli_KZ9dXWhwC0W" name="Page-1">
        <mxGraphModel dx="1385" dy="-1845" grid="1" gridSize="10" guides="1" tooltips="1" connect="1" arrows="1" fold="1" page="1" pageScale="1" pageWidth="850" pageHeight="1100" math="0" shadow="0">
            <root>
                <mxCell id="0"/>
                <mxCell id="1" parent="0"/>
                <mxCell id="2" value="" style="html=1;shadow=0;dashed=0;shape=mxgraph.bootstrap.rect;fillColor=#222222;strokeColor=none;whiteSpace=wrap;rounded=0;fontSize=12;fontColor=#000000;align=center;movable=1;resizable=1;rotatable=1;deletable=1;editable=1;locked=0;connectable=1;" vertex="1" parent="1">
                    <mxGeometry x="1120" y="3570" width="1060" height="63" as="geometry"/>
                </mxCell>
                <mxCell id="3" value="Atlas" style="html=1;shadow=0;dashed=0;fillColor=none;strokeColor=none;shape=mxgraph.bootstrap.rect;fontColor=#999999;fontSize=14;whiteSpace=wrap;movable=1;resizable=1;rotatable=1;deletable=1;editable=1;locked=0;connectable=1;" vertex="1" parent="2">
                    <mxGeometry width="105.99971512260032" height="40" as="geometry"/>
                </mxCell>
                <mxCell id="4" value="" style="strokeWidth=1;html=1;shadow=0;dashed=0;shape=mxgraph.android.rrect;rSize=0;fillColor=#444444;strokeColor=none;movable=1;resizable=1;rotatable=1;deletable=1;editable=1;locked=0;connectable=1;" vertex="1" parent="2">
                    <mxGeometry x="0.0028487739969868925" y="43" width="1059.9971512260029" height="20" as="geometry"/>
                </mxCell>
                <mxCell id="5" value="" style="strokeWidth=1;html=1;shadow=0;dashed=0;shape=mxgraph.android.anchor;fontStyle=1;fontColor=#ffffff;movable=1;resizable=1;rotatable=1;deletable=1;editable=1;locked=0;connectable=1;" vertex="1" parent="4">
                    <mxGeometry x="-63.15939935660708" width="65.72564753618376" height="20" as="geometry"/>
                </mxCell>
                <mxCell id="6" value="" style="strokeWidth=1;html=1;shadow=0;dashed=0;shape=mxgraph.android.rrect;rSize=0;fillColor=#FF0000;strokeColor=none;movable=1;resizable=1;rotatable=1;deletable=1;editable=1;locked=0;connectable=1;" vertex="1" parent="4">
                    <mxGeometry y="17.67" width="180" height="2" as="geometry"/>
                </mxCell>
                <mxCell id="7" value="Bike Test RFP" style="strokeWidth=1;html=1;shadow=0;dashed=0;shape=mxgraph.android.anchor;fontStyle=1;fontColor=#ffffff;strokeColor=#000000;movable=1;resizable=1;rotatable=1;deletable=1;editable=1;locked=0;connectable=1;" vertex="1" parent="4">
                    <mxGeometry x="3.7171528743502478" width="182.27342317821052" height="20" as="geometry"/>
                </mxCell>
                <mxCell id="8" value="Project 2" style="strokeWidth=1;html=1;shadow=0;dashed=0;shape=mxgraph.android.anchor;fontStyle=0;fontColor=#808080;strokeColor=#000000;movable=1;resizable=1;rotatable=1;deletable=1;editable=1;locked=0;connectable=1;" vertex="1" parent="4">
                    <mxGeometry x="177.6971528743503" width="182.27342317821052" height="20" as="geometry"/>
                </mxCell>
                <mxCell id="9" value="" style="strokeWidth=1;html=1;shadow=0;dashed=0;shape=mxgraph.android.anchor;fontStyle=0;fontColor=#E6E6E6;strokeColor=#000000;movable=1;resizable=1;rotatable=1;deletable=1;editable=1;locked=0;connectable=1;" vertex="1" parent="4">
                    <mxGeometry x="-85" width="110" height="20" as="geometry"/>
                </mxCell>
                <mxCell id="10" value="" style="shape=mxgraph.sysml.x;fontColor=#FFFFFF;strokeColor=#FFFFFF;aspect=fixed;" vertex="1" parent="4">
                    <mxGeometry x="160.99715122600298" y="4" width="10" height="10" as="geometry"/>
                </mxCell>
                <mxCell id="11" value="" style="shape=mxgraph.sysml.x;fontColor=#FFFFFF;strokeColor=#FFFFFF;aspect=fixed;" vertex="1" parent="4">
                    <mxGeometry x="334.997151226003" y="4" width="10" height="10" as="geometry"/>
                </mxCell>
                <mxCell id="12" value="Structures" style="html=1;shadow=0;dashed=0;shape=mxgraph.bootstrap.rect;fillColor=#000000;strokeColor=none;fontColor=#FFFFFF;spacingRight=30;whiteSpace=wrap;movable=1;resizable=1;rotatable=1;deletable=1;editable=1;locked=0;connectable=1;" vertex="1" parent="2">
                    <mxGeometry x="105.99971512260032" width="119.24967951292534" height="40" as="geometry"/>
                </mxCell>
                <mxCell id="13" value="" style="strokeWidth=1;html=1;shadow=0;dashed=0;shape=mxgraph.android.rrect;rSize=0;fillColor=#FF0000;strokeColor=none;movable=1;resizable=1;rotatable=1;deletable=1;editable=1;locked=0;connectable=1;" vertex="1" parent="2">
                    <mxGeometry x="106" y="40" width="124" height="2" as="geometry"/>
                </mxCell>
                <mxCell id="14" value="" style="shape=image;verticalLabelPosition=bottom;labelBackgroundColor=default;verticalAlign=top;aspect=fixed;imageAspect=0;image=data:image/svg+xml,PHN2ZyB4bWxucz0iaHR0cDovL3d3dy53My5vcmcvMjAwMC9zdmciIHZpZXdCb3g9IjAgMCA1MTIgNTEyIj48cGF0aCBkPSJNNDA2LjUgMzk5LjZDMzg3LjQgMzUyLjkgMzQxLjUgMzIwIDI4OCAzMjBsLTY0IDBjLTUzLjUgMC05OS40IDMyLjktMTE4LjUgNzkuNkM2OS45IDM2Mi4yIDQ4IDMxMS43IDQ4IDI1NkM0OCAxNDEuMSAxNDEuMSA0OCAyNTYgNDhzMjA4IDkzLjEgMjA4IDIwOGMwIDU1LjctMjEuOSAxMDYuMi01Ny41IDE0My42em0tNDAuMSAzMi43QzMzNC40IDQ1Mi40IDI5Ni42IDQ2NCAyNTYgNDY0cy03OC40LTExLjYtMTEwLjUtMzEuN2M3LjMtMzYuNyAzOS43LTY0LjMgNzguNS02NC4zbDY0IDBjMzguOCAwIDcxLjIgMjcuNiA3OC41IDY0LjN6TTI1NiA1MTJBMjU2IDI1NiAwIDEgMCAyNTYgMGEyNTYgMjU2IDAgMSAwIDAgNTEyem0wLTI3MmE0MCA0MCAwIDEgMSAwLTgwIDQwIDQwIDAgMSAxIDAgODB6bS04OC00MGE4OCA4OCAwIDEgMCAxNzYgMCA4OCA4OCAwIDEgMCAtMTc2IDB6IiBmaWxsPSIjOTk5OTk5Ii8+PC9zdmc+;" vertex="1" parent="2">
                    <mxGeometry x="990" y="10" width="20" height="20" as="geometry"/>
                </mxCell>
                <mxCell id="15" value="" style="shape=image;verticalLabelPosition=bottom;labelBackgroundColor=default;verticalAlign=top;aspect=fixed;imageAspect=0;image=data:image/svg+xml,PHN2ZyB4bWxucz0iaHR0cDovL3d3dy53My5vcmcvMjAwMC9zdmciIHZpZXdCb3g9IjAgMCA1MTIgNTEyIj48cGF0aCBkPSJNMzc3LjkgMTA1LjlMNTAwLjcgMjI4LjdjNy4yIDcuMiAxMS4zIDE3LjEgMTEuMyAyNy4zcy00LjEgMjAuMS0xMS4zIDI3LjNMMzc3LjkgNDA2LjFjLTYuNCA2LjQtMTUgOS45LTI0IDkuOWMtMTguNyAwLTMzLjktMTUuMi0zMy45LTMzLjlsMC02Mi4xLTEyOCAwYy0xNy43IDAtMzItMTQuMy0zMi0zMmwwLTY0YzAtMTcuNyAxNC4zLTMyIDMyLTMybDEyOCAwIDAtNjIuMWMwLTE4LjcgMTUuMi0zMy45IDMzLjktMzMuOWM5IDAgMTcuNiAzLjYgMjQgOS45ek0xNjAgOTZMOTYgOTZjLTE3LjcgMC0zMiAxNC4zLTMyIDMybDAgMjU2YzAgMTcuNyAxNC4zIDMyIDMyIDMybDY0IDBjMTcuNyAwIDMyIDE0LjMgMzIgMzJzLTE0LjMgMzItMzIgMzJsLTY0IDBjLTUzIDAtOTYtNDMtOTYtOTZMMCAxMjhDMCA3NSA0MyAzMiA5NiAzMmw2NCAwYzE3LjcgMCAzMiAxNC4zIDMyIDMycy0xNC4zIDMyLTMyIDMyeiIgZmlsbD0iIzk5OTk5OSIvPjwvc3ZnPg==;" vertex="1" parent="2">
                    <mxGeometry x="1030" y="10" width="20" height="20" as="geometry"/>
                </mxCell>
                <mxCell id="16" value="Bike Test RFP" style="rounded=0;whiteSpace=wrap;html=1;shadow=0;dashed=0;strokeWidth=1;align=left;verticalAlign=top;fontFamily=Helvetica;fontSize=14;fontColor=default;fillColor=#E6E6E6;spacingLeft=9;labelBackgroundColor=none;strokeColor=none;fontStyle=1;movable=1;resizable=1;rotatable=1;deletable=1;editable=1;locked=0;connectable=1;" vertex="1" parent="1">
                    <mxGeometry x="1154" y="3653" width="436" height="30" as="geometry"/>
                </mxCell>
                <mxCell id="17" value="" style="rounded=1;whiteSpace=wrap;html=1;shadow=0;dashed=0;strokeWidth=1;align=center;verticalAlign=top;fontFamily=Helvetica;fontSize=12;fontColor=default;fillColor=default;arcSize=3;strokeColor=#666666;movable=1;resizable=1;rotatable=1;deletable=1;editable=1;locked=0;connectable=1;" vertex="1" parent="1">
                    <mxGeometry x="1154" y="3693" width="1016" height="340" as="geometry"/>
                </mxCell>
                <mxCell id="18" value="Structure" style="text;html=1;align=left;verticalAlign=middle;whiteSpace=wrap;rounded=0;fontFamily=Helvetica;fontSize=12;fontColor=#666666;movable=1;resizable=1;rotatable=1;deletable=1;editable=1;locked=0;connectable=1;" vertex="1" parent="1">
                    <mxGeometry x="1168" y="3693" width="82" height="30" as="geometry"/>
                </mxCell>
                <mxCell id="19" value="" style="shape=image;verticalLabelPosition=bottom;labelBackgroundColor=default;verticalAlign=top;aspect=fixed;imageAspect=0;image=data:image/png,iVBORw0KGgoAAAANSUhEUgAABLAAAAFpCAYAAACMKNGPAAAAAXNSR0IArs4c6QAAIABJREFUeF7snQV4VuUbxu9v3WOMBYwO6bBAUUpKDEQUAQOxUJBSUREULFBRAbsQFQNRwsAgBEFEkO7uZsRY5/f9r/vd/8zFt2BssLH7va5d277vnDd+55w37vd5nmNzOBwOKImACIiACIiACIiACIiACIiACIiACIiACIhACSVgk4BVQq+MqiUCIiACIiACIiACIiACIiACIiACIiACImAISMDSjSACIiACIiACIiACIiACIiACIiACIiACIlCiCUjAKtGXR5UTAREQAREQAREQAREQAREQAREQAREQARGQgKV7QAREQAREQAREQAREQAREQAREQAREQAREoEQTkIBVoi+PKicCIiACIiACIiACIiACIiACIiACIiACIiABS/eACIiACIiACIiACIiACIiACIiACIiACIhAiSYgAatEXx5VTgREQAREQAREQAREQAREQAREQAREQAREQAKW7gEREIEyQ+D40ZNITkpx3l6HAwFB/ggI9CszPNRQERABERABERABERABERABESgtBCRglZYrpXqKQCEJxMXF4cSJE6hWrVquORw5cgR2ux0RERFZjnE4HFi6dCkSExMzPrfZbGjUqBFCQ0MLWaPCnZaWlob169cjKioKNWrUMO1hXfJKx48fz1LPTWt3oGLFik5PcTjsOHn6JC6pX6NwFdRZIiACIiACIiACIiACIiACIiACxUZAAlaxoVXGInBhCVB8OnPmDN555x0EBgZi8ODBOSpE0erAgQMYPXo0br75Ztx2221ZjqFo1L17d4SFhZk8mFxcXHDXXXehSZMm562Bp0+fxsiRIxEdHY0KFSpg37596NatG/r06ZOriPXrr79i2bJlePHFFzPquWX9LlSpUtlpvcni6PGj+QpYZOLq6nre2q6CREAEREAEREAEREAEREAEREAEAAlYugtE4CIlsHfvXowdOxY+Pj6oVasWBg0alKOlc+fOxdSpU5GQkIAePXo4FbB69eplxKNmzZplOX/Hjh1GzDp48KCxyAoODsbmzZtBqyeWV6VKFSM4sR4UnXbu3InGjRub+qxatQpVq1ZF5crpYlJ8fDzWrVsHLy8vc4ybm1uWspYsWYKFCxdixIgRRjximfx7/PjxJm/Wf+3atRnnU2SicLd9+3ZTd8v6jAJWpUoVcfjgsSz521xsqBQRViABa968ebj00ktNuUoiIAIiIAIiIAIiIAIiIAIiIALnh4AErPPDWaWIwHknQPGIVlhbtmzBypUrMXDgwBx1oLhEl7qJEyeidu3aTgWsnj174vHHHzfCEhNFK19fX7z++utYvny5EbbatGmD3377DZGRkUa4Ynlvv/02YmNj8fzzzxs3Pm9vb5w8eRKenp4ICgrCv//+i/fff9+IWE899ZTJk+6O5cuXx6hRo+Dh4ZFRX7oOsjzWg8IXRTCKXXQhpGD22GOPGfdHWpyxHQ8//LApl5Zaw4YNw9VXX23yooBVOSICx46eyMLC1c0FwRWC8hSwKLK99NJLRqSjiPbhhx+edzfK834TqUAREAEREAEREAEREAEREAERKCEEJGCVkAuhaohAcRGgG11uAhbLpMg1bty4XAUsuhBSgLJcCCl4UUiioMTPKBZRuKIYRbGIohIFsbp165qfJ554wlh5UbTq37+/+Z8iEwWmevXqmfhcFK7uu+8+pKamGpc/WoN16NAhA0lKSgr++ecfLFiwwFhf0UKrc+fOuOWWW/Daa6/Bz88PFNqSk5ON1dmjjz5qhKYNGzbkcCFk/Teu25oFt7uHG+o3rJOngBUTE4OuXbuCv5m6dOlihDZ3d/fiunTKVwREQAREQAREQAREQAREQARE4P8EJGDpVhCBi5zAuQpYubkQUsC65JJLjIhE4YgiFeNO0eqKVlr33HMPGjRoYISqadOmGaul4cOHG2srWlm98cYbxu2QVlx09aNFlZXuvPNO3H333Rn/M09aZFlWWZs2bTKugRTDvvnmG9CdMbPFFgUsWkw5E7AqV45AampaRt7u7unuivnFwGIdKLIdO3bMWJG9++67RqBTEgEREAEREAEREAEREAEREAERKH4CErCKn7FKEIELSuB8CFiLFi0ygs6ECROMS+IHH3xgrLbyE7BCQkJMjKzw8HD069fPWG/R5ZECFwPHW+nTTz81boO9e/c2HzHGFcWwli1bYsWKFWjatKmxwKI1GcUwnstYVc4ErIiISog6HZ2etQ0IKhcIxsDKT8Di4bQQ++WXX1C/fn0j3uWaHHYgLQlw876g116Fi4AIiIAIiIAIiIAIiIAIiMDFQkAC1sVyJdUOEciFQHYBa+nSpcaC6PLLLzdn5OdCWBALLLooPv3003jyyScRFRWFr776CjfccANat26dpwUWBax27doZ10O+2ZDC1JQpU0xw9po1a2a0aP/+/cZtkUIV3364detW4yLIOFT8TSsvCmCJiYn48ccfjTvj4sWLMWPGDIwZMwaVKlUyeW1Zv9PE6GKiYGW3OzLKcDjsOBZ5DHXq1YCrq0vu2pTDkcubDx1wJEUjedELSFn1IZCSCFtoY3i2fwlutboALnI11EMqAiIgAiIgAiIgAiIgAiIgAoUlIAGrsOR0ngiUEgJ0eWOgcysIO62S6G6X2f1t9erVJp4V3x6YOVHcmjNnDq644oocb91bs2YNypUrhxo1ahgxiCLWgQMHjFsgLaooZNFKicHaGa+K1lWMY3XZZZcZAY3nM7A742Dt2bPHvIWQroesJ/PMng4fPmwsqhicnnVlnWipxUQXQroV8ny+IZAiFWNV8c2FzMtq+/ZNexASEgo3N1ds37YbZ6L+b4mVLuUhNS0VlauEo0HTOmd9de3H1iNxRi/YI7dkPdfdG+4tBsKz/bizzlMniIAIiIAIiIAIiIAIiIAIiIAIpBOQgKU7QQRE4KIm8OeeJLz3T5xpo5ctBXdWPI0wX1ccOnTEWJ9lT38nVcJue7D5ePxNgagS4FogPokzeiN147e5Hut152y41bmxQHnpIBEQAREQAREQAREQAREQAREQgawEJGDpjhCBUkzAkRwHR3IMbLbcXd5KcfOKpOqRcXbsPZ2akZebzQ53m91p3vw0yZ4e1J2pfpg7/Nxt+dbDkRKP+PcbAinxuR7r1rAHvG6bBtjyzy/fAnWACIiACIiACIiACIiACIiACJQxAhKwytgFV3MvAgJpSUjdsxDJf42B/egawM436kkUubBX1gGkJuZZBdeqreB9zzzAzfPCVlWli4AIiIAIiIAIiIAIiIAIiEApJCABqxReNFW5rBJwIHXHb0hZNh423zC41u4Cl4DKsPlWAFwkilzIu8KRmoiESc3zFLHcGtwOr9tpgSVruQt5rVS2CIiACIiACIiACIiACIhA6SQgAat0XjfVugwSSFn1EZLmPQGvHrPgVqtjGSRQspuc8P3tSNs8w3klbTZ49ZgBt/q3luxGqHYiIAIiIAIiIAIiIAIiIAIiUEIJSMAqoRdG1RKBDAL2NFC8St36Azy7vAWXCvUFpwQSSDu6Fonf94Dj1M6stXP1gHvzR+HZ8XXAVrCA8CWweaqSCIiACIiACIiACIiACIiACFxQAhKwLih+FS4C+RNI3TwNib8MhO8j62Dzr5T/CTrighFwJEUj6ed+SN06C7CnwuZdHh6dJ8C9cW+JVxfsqqhgERABERABERABERABERCBi4GABKyL4SqqDRctAUfsUSTM6Gmsd1wrNb9o21mcDUtOSsaBvcfg6enhtJjk5GTUvKRKEVbBAUdCFByp8XDxDQNc/nurYREWoqxEQAREQAREQAREQAREQAREoEwRkIBVpi63GluqCNhTET+lLVyrt4Vnm5cAW+HeNHj69GkcOHAATZo0ydF8h8OBv//+Gzt27MC1116LOnXqOEWUlpaGhQsXYv/+/WjQoAFatGgBWyHrYxWQmpqKuXPnokOHDvDwcC4u8dijR49i/vz5prxOnTohJCQkz8sYGxuLlJQUBAUFmePiYxMQefQMgoPT/8+eTp48hWq1K5aqW0OVFQEREAEREAEREAEREAEREIGyRkACVlm74mpvqSGQsvFbpPz7Frx7/wqbt3PxJa/GUCBavXo1Pv74YzRu3BhDhgzJcnhiYiJeffVV+Pn5GeFq8eLFaNu2LW6++eYsx23cuBGTJ082eYSGhmLr1q04deoURo8enafwlB/ohIQEPPHEExg3bpypg7M0Z84cI3JdeumlsNvt+Pfff039Onfu7PR4tvmZZ57BAw88gHr16hVMwDpxCtXq5C9gxcXFwdfXN79m6XsREAEREAEREAEREAEREAEREIFiICABqxigKksRKAoCCVOug+dNH8GlvHOrqPzKoPD07LPPok2bNnB3d8fAgQOznHLkyBGMHz/eCEi0btq1axe++uorI0xZiZZMd955pxG/aKHFRGusN998Ex07doSnpyfogmdZZtWqVQvLly83Ilft2rVxzTXXmLwpjlEk++OPP4wQ1rRpU2QWsFjOb7/9hi5dumRYTrGs5557Dj179kSjRo1M2Zs2bcKUKVPw2muvmf+3bduGZcuWGYGL+dKSjAIWy73rrrsQFhaWYYFlgw2HDh7NwqBiRCho11YQAeuNN97A4MGDz0m0y++a6XsREAEREAEREAEREAEREAEREAHnBCRg6c4QgRJIgG8dTNu7EF7dvgRc3QtVQ1pY0UVw3bp1WLlyZQ4BK3um33zzDeh+169fv4yvKBA9+uijmDZtGoKDg3PUg59/99136N69uxGQKFC5uLigevXq+Ouvv4wVFK2hHnzwQSNoUcSaNWsWevfujfbt2xsLrKeffhqffvqpEZ2yW1b98MMPmDdvHlq2bAmKYzyf9aClFa3C9u3bhyuvvNIIWzVq1DAi2/Dhw00+Xbt2NWKY5ULo5eWF0yejsrQhKDgQ5JSXCyGt2Cj07d6927hOUiCjJZqSCIiACIiACIiACIiACIiACIjA+SMgAev8sVZJIlAgAvaYw0h4rz48e/8At2rtCnROXgfRQik/AYvWT3Q1/OCDDxAeHp6R3dq1a41gM2PGDPj4+DgVsFasWAFaJzEtWrQIrVq1Qnx8PKZOnYrDhw8bKypacI0ZMwYBAQFGwKIY1L9/fyNs0RKrT58+6NatW464WnQb3Lt3L2bOnGnEMQpXI0eORP369fHUU0+Zv2kFdvLkSVP3d99913zOvLO7ENrT7Ni1Y1+WNtSoXRVubi55ClhLlizBsGHDTNlMQ4cONdZd5xoD7JwvrDIQAREQAREQAREQAREQAREQgTJEQAJWGbrYamrpIJCy4n2k7p4L7ztmADbXc650XgIWXfemT58OClV0MaxSJevb+A4ePIi+ffsat71KlSpl1IXuiRS0KF4dOnQIjz/+uPnuww8/NO6EgYGBxvorKSnJCFgUgF566SUTQ+r333835dEdr0ePHkbwYqD5559/Ht7e3hll0FVxwYIFxjKLZVHMophEoerFF180whotsywhiW6S999/v/ncmYDl6+OD2Ng4kz/fSOgfkB53K78g7nStpCUYBTRampGHm5veLHjON6YyEAEREAEREAEREAEREAEREIGzICAB6yxg6VAROB8EEr6+Hp5d3oNL+VpFUlxuAhYFoffff9/Eq6J1FEWn7Iki1JNPPonmzZvjjjvuMF9T9KJF1SOPPIItW7YYK6vHHnvMuOJRqKI1Fq2ivv/+e/N9XgKWFcSd57Ru3dq4FVqJZdOdkcIaY2YxUSyjiyBjYNHSir8jIiLAAOtsJ8Uw1teZgFW+fDkjgjFR9KKrY0EELB7DutCVkW9MtM4rkoujTERABERABERABERABERABERABApEQAJWgTDpIBE4PwTSDi5D8qIX4d3rB8DVo0gKzS5gzZ4921g6MSYVBaLLL7884y2ANWvWRK9evbKUS/e8CRMmmODldAGkiGTFtmIMLEvAosgzYsQIcwwtraKioowr4csvv2zEJmcWWBS8GESeeY4aNcoIUoyfZaU1a9Zg0qRJKFeunCmfMbquu+46XH/99fj555/NGwrZjmPHjhmRixZdDDDP4x5++GEjbsXHJeD44ShUqFDeCFEx0bFI+7+QxXKiz8QgLKI8/AN84OnlWSTMlYkIiIAIiIAIiIAIiIAIiIAIiEDREpCAVbQ8lZsInAMBB+IntYBbkz7waJ71jYHnkKmxmGL8Jss9jzGnaIFEN7iYmBgj6liJbnj+/v45iuObBnkeLZh4Hl36XF1djYsgXf2s+Fi0wuJx/I6f8X8/Pz8jKFHUYrnMy6oPP+f3RkiKjjZ1pFBlJdaNebAc/s3vmC/z4f+0vGL7WB7zt+oUFx+PKIcPkhyups6xO3agYf3aJp+V/65FWlq6JZZJDgdsLjaUr1UbAZXC4e5iQ+2gc3fdPJdrpnNFQAREQAREQAREQAREQAREQASyEpCApTtCBEoIgbQjq5H4RVt4D9gMl4DKJaRWpbMadgfw9Zp4bDiSbBoQ7pmANmFpSIqLM4JY9pTi4oalcWFIsLshPMANj13rB5utdLZdtRYBERABERABERABERABERCBi5GABKyL8aqqTaWSQPLf42CPXA+vbl8ySlO+bTgUsx9bT6zBmcQTeiOeE1qpdoBClpVsxtIs0weZznGQ9/8VK5J3PwcDrADPIFxbtQs8Xb3yvYY6QAREQAREQAREQAREQAREQAREoGAEJGAVjJOOEoFiJ2CCt3eaCJeQermWFZsSgwW7Z2Hxvl+RnBaPIK8K8PcMhAvSA5IrXXgCwT7h6NGwP3zc010jlURABERABERABERABERABERABM6dgASsc2eoHETgnAnYo3Yj6cf74X3PPMDF3Wl+B6J3Y+xfA1GtXD30bjQAFXzC4eHqCTcXN9gKYLF1zpVUBiIgAiIgAiIgAiIgAiIgAiIgAiJwgQhIwLpA4FWsCGQmkDT7EcA3BJ7tXszhPuiAA1si1+DjVS+jY60euLFOb8ETAREQAREQAREQAREQAREQAREQgTJFQAJWmbrcamxJJOBIPIO48RHw7vUDXGt2yFHF1Uf+xit/DcCIVu+hWXhL2GxyFyyJ11F1EgEREAEREAEREAEREAEREAERKD4CErCKj61yFoECEUjdNReJ0++A75B9sHkFZjnnWNxhvPLXQPRs2B9XV+lYoPzKwkFnTsfAbrc7bSpjtfv4esHL27MsoFAbRUAEREAEREAEREAEREAERKBMEJCAVSYusxpZkgkkLXwWjtij8Lp5UpZqxqfE4al5vXBt1RvQs+HDsrzKRGf7pr2oUCHY6WWlsBWXEItqNSNK8mVX3URABERABERABERABERABERABM6CgASss4ClQ0WgOAgkfNURHh3fgGtY0yzZf7vxfaw6shgvt/scnm5ehSo6ISEB06dPR2xsLPr3758lD4fDgSVLlmDq1Knm84iICDzyyCMIDv5PGJo0aRKOHj2KZ5991hzzzTff4OOPP8a7776LRo0aIT4+HjfffDNGjBiB4cOHY968eShXrlyh6sqT5s+fj7179+LBBx/MM48dm/ehYsXwXAWsk1EnUaNW5ULXQyeKgAiIgAiIgAiIgAiIgAiIgAiULAISsErW9VBtyhgBR0oiEj67Bj4PLgdc3DJafyYpCs/MvwvPt/0Eob6VCkXlyJEjeP7553Ho0CF06tQJgwcPzpLP6dOn8fTTTxtxqkKFCvjss89QrVo13HTTTRnHrVy5EmPGjMG3334LV1dX8zcFqsqVK+O2227D5s2bMXToUHz00Ue44447zquAFRJSAUcPR2Zpk7uHG0JCg5GfgJWWlobVq1fjyiuvLBRbnSQCIiACIiACIiACIiACIiACInB+CUjAOr+8VZoIZCGQsnk60rb9CK9uUwCbzXyXnJaElxb1R4PQy9Gr4QDY/v/52aI7fPiwEZh8fHyMWDNw4MAsWSQnJ2Pnzp2oU6cOdu/ejS+++MKIVy1btsw4Li4uDr169cJ7771nRK7XXnsNDz30EL7++msjfs2aNQtbt27FfffdZyyxunXrhgMHDsDb29sIY/7+/uaYxYsXIzU11VhtPfDAAyb/L7/8EmvXrgUtwSgk3X333fjrr7+MBVbPnj2NpdeOHTvM96zTnXfeCXd3d3MuLbBCQ0Nw/OiJbAKWB8oHB+YpYNEabfbs2fjpp5/QqlUr3HvvvYaRkgiIgAiIgAiIgAiIgAiIgAiIQMklIAGr5F4b1awMEEj4+nq41bkR7s0HZbR2+aEFeHPpMEzqugABnoV3x7MyXLZsGWhJlV3Asr7fv38/3nzzTSMWvfXWW0bQypxGjRqFzp07o2LFikb4efjhh41lF62xeF6XLl2MuEUBi0JXkyZN8OmnnyI0NBRVq1YF3RBfffVVeHl5GRdEfk7BaPny5Rg0aJAR6HgMxaQzZ84YAevqq682Vl1jx44Fhba5c+ea/H19fTMErPCwMJw8cTqbgOUO/wDfPAUsWqTdcsst5jwXFxfcf//9xnVSSQREQAREQAREQAREQAREQAREoOQSkIBVcq+NanaRE3AkRiHu9fLwvv8fuEa0yGjt2L8G4YpKbdGp1m1FQiA/AcsqhCLR0qVLjTiVOS1cuBC05kpMTDQiFsWsl156CX369MHnn3+O0aNHIzIy0ghMVgys77//HnRRDAwMxA8//IAGDRqYLPlZlSpVjIUWrcL4N9OJEyfQtm1bY7FFAat79+5G9OLxPJffNW7cGG5u6W6WtMCqEFwBO7bt/r8QZYOnl6f5Ca8YkqeAxZhe/fr1w6lTp+Dn54eXX34ZV1xxRZGwViYiIAIiIAIiIAIiIAIiIAIiIALFQ0ACVvFwVa4ikC+BtL0LkDjtNvg+cQT4f5D2vWd24a1lT+KV9l/Dy8073zwKckBuAhZFp2nTpmVYZtH1b8KECRg/fnyWbCku0aJq/fr1RtyihRYtqWJiYnDy5EkTwJ2ikDMBKyQkxFh/DRkyJCNPT09P41bIOFQ8x0q0rvrnn3+MgHXrrbea2F2Mt8X/J0+ejOeeew61atXKELDCwkIRfSbm/wKWq7G8ojUX30KYVwwslsv4YBTf6KpYu3btQrtpFoS/jhEBERABERABERABERABERABETh3AhKwzp2hchCBQhFI/ucN2E/tgteNH5jzU+2peGpeb1xVuQPuaPhwofJ0dlJ2AYtCFS2ZaH3EOFXt2rUzohQtpfibwdgzJ77JcOTIkdi3b58RrihAbdq0CU8++aQRgBhDKjcB67rrrjPH0X2xUqVKmDlzJi677DJjyTVu3DgjbFG4YkwtlktBjIIV3QnpnjhgwAATPJ7xsIYNG2aCzDNlfgshY2Txx0oUsE5FnUKN2pVzFaZ4PON7kUH2ZE9ORtz6dTjx04+I37oV7sHBKNexE4LatDV/K4mACIiACIiACIiACIiACIiACJx/AhKwzj9zlSgCgMOOxB/6wv2K/nCtcrUhsjlyNZ6Z3xuf3rIYFXzCiowSA7Tv2bMH7du3N3kuWLDAxKNiYHQKT3T7o6te06ZN0aJFC/Nd5kRB6McffzTxoqzYUUlJSZg4caL5v169eoiOjjb/U2RifKsVK1YgPj4erVu3NmUvWrTIHEM3QIpTzGvbtm0maDvzat68uXHj2759u3EnvOaaa7BhwwYsWbLEHMtz6EpIMYtp+6a9qFgxHHa7Azt37EZcbFxGlallpaalolrNCNSumy54nU068slHOPz+u7AnJmY5zf/qa3DJ+x/AxatoLOPOpk46VgREQAREQAREQAREQAREQATKOgEJWGX9DlD7LwwBeyoSvu4M73v+yCh/0upXYYcD/S575sLUqYSXunhPMv7enS4quSRGo0NVV3i42LFz+x7jjpg5pcGG/R4RSPUNMR8/3tYfnq7pb3nMKyXs3oXNt98Ke0KC08Mq9OiJGi+8lPHGyPzy0/ciIAIiIAIiIAIiIAIiIAIiIAJFQ0ACVtFwVC4icFYEHAmnkfjD3fDu/UvGeUPn3IYX2k5CoGfQWeVVVg4+GpOGozF201wbHAhwS4GHkfz+cx+0WKQ5bIi2eyDN4WI+alLRHS7561fYMWQwoub+litSm5sbGs9bCM/w8LKCXe0UAREQAREQAREQAREQAREQgRJBQAJWibgMqkRZI5Cy5jPYT2yBZ8dxpul/7PkZqw4vxLCWb8DFli665JZSIiMRu2E9opf9g4QdO5AafQYuHp5lDWGxtDd+8yY4kpPyzLve19Pgf9llxVK+MhUBERABERABERABERABERABEXBOQAKW7gwRuAAEEqa0h/ulD8Ct8Z1Ic6Sh388d0LPRo+hU8/Zca0O3tiOffYqoBX/Aq0YtBLVvD/eQEBOTyeaat+h1AZpYKovcO3oU4tavzbPujX6ZA++aNUtl+1RpERABERABERABERABERABESitBCRgldYrp3qXWgKO5FjEjQuCz0Mr4RLWFLuitmLILzfgs1uXIsTHiWuaw4HE/fux/7VXjHVQtdEvwKtK1VLb/pJc8dN/zMeuIYPgSEt1Wk3fRo3R4PuZJbkJqpsIiIAIiIAIiIAIiIAIiIAIXJQEJGBdlJdVjSrJBNIO/oOErzrBb1gk4OaFWVsnY8PxlXiu9XuwIWegpriNG7HrscEIvetuhPbsDRdvvQWv2K6v3Y5dTz+JU7N/ylGEZ+UqqPPRJFlfFRt8ZSwCIiACIiACIiACIiACIiACuROQgKW7QwTOM4GU1Z8gdcev8O45y5T88uIB6NHwUdQNbpijJinHj2PHkIGocMutCO3V+zzXtGwWlxYXh/3jXkPM0r+QFhcPm7s7PCIiUG3Ec/Bt1ChfKKkpqXA4cgaWt050c3eDzVaAiPL5lqQDREAEREAEREAEREAEREAERKDsEJCAVXautVpaEgg4HEiaMxQuEVfCvfHdSLWn4pk/7sFrHb6Ci801Sw2Tjx3Djkf6ofw7UD/uAAAgAElEQVTNXRF+b1/YXLN+XxKaczHXgfxTT5+Gi7cXPCpFwMXdvUDN3bFlH7xzsZJLSU5BUEgAygX5FygvHSQCIiACIiACIiACIiACIiACIpBOQAKW7gQROJ8E7KlI+PYWeN32DWyegfjrwHysOvQHhlw1Nov7oMNux4FxryL1dBRqvvoacA4WO3v27MGRI0fQsmXLXFu6f/9+zJs3D/feey/c3NwyjktKSsK7775rLIb44+npiTZt2qBu3bpZjssL4e+//47Q0FBclunNfbt378aGDRtwyy23nBP9M2fOYPHixdi1axdCQkJM3SpVqgQXl4IHtY+Pj8f69etx1VVXnVNdrJN3bz2I0LAQp3klJiTC4ZqKkLDgIilLmYiACIiACIiACIiACIiACIhAWSEgAausXGm1s2QQSE1EwrTu8L7rV1OfIb/fhpsuuRMda96WpX6R06fj1NzfUfvNCXD1L5y1TkpKihGlJk+ejFatWmHIkCFOGcTFxWHUqFE4ePAgpkyZYkQqK8XGxhqRafDgwQgPDwfFng8//BCPPfZYgQWfl19+GZdccgnuuOOOjHxPnjyJw4cPo3HjxoW+LqmpqXj66adNHvXq1cOJEycwdepUPPvss6hfv36B850/fz5++uknvP322wU+J68Dz1XASktLQ2JiInx9fYukPspEBERABERABERABERABERABC4GAhKwLoarqDaUGgL26INInjcUXrdNx5HYA7hvVkt8dus/qOhXOaMNSQcPYvPtt6L2ex/C//LLC922LVu2YMKECbjiiiuQnJyMgQMH5siLsZpmz55tLJD440zA6t69Oz766CPUqFHDnE+LrODgYCNI/fzzz/Dw8DD5d+3aFevWrcPy5cvNZx06dECVKlUwZswYI2DdfvvtWLBggXGvo5XUxo0b0b59e3z77bemjv/884/5vGPHjvDy8kJkZCTmzJlj4klRoLLb7WjRokVGGyhYPfTQQ3jvvffMeUwzZsxAYGAg/P39TR0uvfRS8/nChQtRsWJFlC9fHhSsoqOjce2115p8Wb81a9Zg2LBhuOaaa0wbli5dagS76667DuXKlcOsWbMQFhaGrVu3IiAgwNR72bJloHUb21258n/XjwKWr58v9u05mIV3uaBAlC8fmKcFFsUrConkPWDAAERERCheVqGfAJ0oAiIgAiIgAiIgAiIgAiJwMRGQgHUxXU21pcQTSF71ERBzGB5tX8C83TMxe/tXmNh5Omy2/1ze9o971bxpsPKjg4CzcIXL3niKSkyrV6/GypUrnQpY/G7atGmgSDV+/HinAhYFmn79+hk3QAo/P/zwA5555hnUrFkTffr0Qe/evc3fdOf79ddfTV4UYWipRXHqnXfeQa1atUBLL4pOgwYNMiIRxa+nnnrKuC126tTJiFM8n2IW/x4xYgRuuOEGI5Z9/vnnRly6//77M5pJsWfcuHHYu3cvGjZsiGbNmqF58+ZG/Nq2bRu++eYbvPDCC0hISDDn8W9ag1FIo7sh203LM1pfLVq0yHxH0Y8uiTfffDP27dtnxL233noLL774IlxdXdGjRw8jqrF9FPDY5r///tuIYJblGgWscuUCcfRIZJZL4h/gB28fTzhccnchZL4PP/wwTp8+bQQ05ns21mQl/gFQBUVABERABERABERABERABESgkAQkYBUSnE4TgcIQSJjaFe6NesG1cW+8s3wkmoS3QttqXTKySjpyGLsefwz1Pp8Cl0yufIUpyzqHlkLOBCyKURRm6IZ3/Phx87czCyyKSBSIfHx8jGATFRWFkSNHolGjRsa18IMPPjBF0aKKbosUuihQvfTSS8Yiii6MFJRiYmKMqMR8aOFkCVh33303Jk2aZCyk/vzzT5MPhSjGzqLAxPTbb7/h6NGjuO+++7KgoFUWy6KrJNvJ9MorrxjLpeHDhxsBiPlRrKLYRbGMllfdunUzllW01KIg9csvv2DixIlGlOrSpYtpLy2/mBdFNlpg0Q2T57EsWouxbnRjHDp0qDmOeTGlW2D5YfuWXVnqGhIajAqhQXkKWBTjKLAxubu749FHHwX5KImACIiACIiACIiACIiACIhAWScgAaus3wFq/3kj4EhNRPybFeF19++wVboCI/64F6PbfgxvNx9TB0dqKrb1ewDlO3ZGaK/e5xS4PXOjchOwKArRsqlBgwZGlFq7dq2xpqK1lZUYAyu7CyHFsO+//95YLFEkevPNN83hP/74o7FGovhDMeeNN97A9OnTjYBF4Ytxr2699VbcdNNNRgDKLGB98cUXqFChAv766y8jtl1++eVGkKJ4xLRkyRITqJ0ClJXo8kiXPlpFMcA840ZRiNq5c6c57/333zfWWLT6ooUX3QkPHTpkyqDLIOtEt0Hmy/NogUaxjtZX1atXzyiHwef5Hd0Jb7zxRiNgrVq1yrSdAhbjgY0dOzaLgBUQGIDI4ydNHqxDSGh58zfrmJcFFkU+Wn2RGznxevB8JREQAREQAREQAREQAREQAREo6wQkYJX1O0DtP28E7MfWIf7TlvAduh/x7h4Ys3ggxrb/IqP86OXLsfvxoWj8+xy4+gcUWb2yC1h0LaTgQ9c6ijhMO3bsMLGt6C7HuFVWsgQsugFS1KFVEoUuuhHSwsoSsGgJRSHpkUceQbt27bBp0yb079/fCF2fffaZiYFFCyYGWKewRVe9vAQsCkmM3/X6668bSyRaaNFyK7MLIfNgfrSsosUV60D3PwpYjPdFq68nnnjCCFe0LmNMLdaJ7aRYRhdHxstibCvWhUHc6RpJAa5Xr14mrheFpM6dO5s6n42AletbCPMRsMid14X86EqpJAIiIAIiIAIiIAIiIAIiIAIikE5AApbuBBE4TwRS1n+JlKVvwueRNZi941scidmDhy4bkVH6nmdHwO/K5gi5pVuR1ii7gPXdd9+ZN9zRmshKFEzyciGsU6eOCb5OAcvFxcUISXQhzGyBRVc8Cj4Uhxi/if/TMokWRdZbCClm8e2Dbdq0MVZPtJSii1x2Cyy6zvGNgitWrICfn59xTWzatKmJuWUl1oVuhvzh94xRRffFBx54wAR1Z4wsCllXXXWVsdyiwMWYXAwyz3hVbA/jcdF9ku3o27cvWrdubWJ2MV4XrasYu+vBBx80QllBBaxdWw8iLCzElHfq5GmkpqZl1Jn1dNjSUK1mZfj6eRfpdVZmIiACIiACIiACIiACIiACInAxE5CAdTFfXbWtRBFImvcUYHOBR4dXMOjXbujRsB/aVEsXkVLPnMH2hx9C/S+/hs3dvUTV+0JUhm5/jG1Fqy1ai1HMoqUUraEKkihuJSUlmdhUjGtFq6riTHEpDqSkOUwR+7bvR9XwEMTHxWPjhi1ISUnNUjSPqtnwEkRUT39zYjmv/wL4F2cdlbcIiIAIiIAIiIAIiIAIiIAIlGYCErBK89VT3UsPAXsKEqb3gnvzQYgKa4B7Z7bAR13/RGX/aumixytj4Obvjwi+edBmKz3tKqaaMsA8Y1gxbhYtvujqx7fz8Y2EBUl0F6R4Va1aNQwYMMC4IRZnmrQ6HhsPp7/10deWjCblUmBLS0RiQlKOYhMcbtiZGowUuAI2YOKN5YqzaspbBERABERABERABERABERABC4KAhKwLorLqEaUeAIpCYif0gY+ff/GsiOL8fbyEfj6tmWwwYYUWhu1a436U7+Db6NG+TbF4QDSUuywp9mREJeKxLgUuLhI9MoX3EV6QEgVv4u0ZWqWCIiACIiACIiACIiACIiACPxHQAKW7gYROA8EHEnRSPzmBnjftwRfrp+IhJR49Ls8Pf5V5KyZiPxuGup/9Q1srq651sZhd+DkoTjsWB2Jw9vPGEstF1cbvP3c4eomAes8XMYSVwTdKzv0rVvi6qUKiYAIiIAIiIAIiIAIiIAIiEBRE5CAVdRElZ8IOCFgP7kdSXOHwaPXLLy8uD/uavI4agfVM0fufHwoQu+8GwF5vHUuLdWO1XMOYtXcA6hzWQW06FodfkGeYi0CIiACIiACIiACIiACIiACIiACZYKABKwycZnVyAtNIPnfd+GIPgCXdi/hmQV98EbHb02V0mJisH1gf9T7bApsLs6DeR/bE4O/Z+6Gf3lPNL+pGgJD9Pa6C309Vb4IiIAIiIAIiIAIiIAIiIAIiMD5JSAB6/zyVmlllEDC1G5wq3czYuvdgonLh+OFtpMMiSOTP0XK8aOoOnykUzJxUcn47rU1uOL6KmjcJv2tdUoiIAIiIAIiIAIiIAIiIAIiIAIiUNYISMAqa1dc7T3/BNKSETehMrxun4bfko/gRPxh9G02DGnx8djQpSNqvPwqAlu1ylGvwzujMWfSFjTrEIGm10UoUPv5v3JnXWJSYjISE3O+edDKyMvLE55eHmedr04QAREQAREQAREQAREQAREQgbJOQAJWWb8D1P5iJ2A/sRUJn1wJ7wGbMHLlc+hU6za0q94VZ5b+jZ2DB+LSv5fBxTNrPCu+aXDa2FWof3W4Ea/ONTkcDjDgd/bEz/ljJR6T33EumVwd88rXysdut5s8M+eb23mFaSfzZ8pcr8LkUxTnbN24C36+AU6zYpuTkhNQu161oihKeYiACIiACIiACIiACIiACIhAmSIgAatMXW419kIQSN32E5J+6QeXR7eh18wWGH/9LNQKqo+DE94E3D1QeeCgLNVKTbHjjy+2wcPbDW161TZvGjyXtHDhQkRHR+OWW27Jkc2iRYswa9Ys+Pr6mu+uu+46tG/fPstxBw4cwNSpUxEVFWU+b9SoEbp16wYPDw98/PHHGDBgQJbj09LS8NFHH+Hhhx/Gli1b8OWXX6JZs2YIDw9HQEAALr/8cnzwwQe46667zP+FTazPt99+i/379xsRrnLlyujduzfKly9f4Cwpfv3666/o0qULXPN4A2RBM9yxZS8qhlfMVcA6ceoEatSuXNDsdJwIiIAIiIAIiIAIlCoCsTHxiDkTm2ud3dzdUCG0PF+mrSQCIlAKCKSlpuHIoUi4ujqP12y3OxBRNey8tUQC1nlDrYLKKoHkf95E2t5F2NPxRQyfeztm9NoMN4crtj/0AGq99Q7c/P2zoNm05Cj+/WUf7hp9BTy8XAuNLTEx0QhJX331Fe6++24MGTIkR15vvvkmatasiVtvvdVpORR4eO59992Hjh07Ij4+Hv369UP37t1x8803Y/jw4WAeuaVPP/3UCEudO3c2x1599dVOhbSzbSQFq1dffRUUy5555hlz+vjx40GxbeLEiQW2xkpNTTX1euWVV+Du7n621chxfFEIWMePH0dQUFCR1OecG6QMREAEREAEREAEROAsCBw9FAk/n9w3KKNjolGxSgWnFv9nUYwOFQEROE8E4mMTEHn0DIKDg5yWeOrkaVStHX6eagNIwDpvqFVQmSRAt7FfB8BWrjrmhlTGisN/4oW2nyDl5EnsfuZp1P04PZi7lRLjUvDbx1vQ7q46KBd6bm8b3LdvH+bNm4dy5crh6NGjGDhwYJaykpOT8dRTT6Fly5ZGmKpevbr5m5ZVGfVJTESPHj2MyHPNNdeYj3ft2oUTJ07gsssuw9ChQ3HFFVfg8OHDxgrq/vvvR1hYmLHMojUXhSFaRNWvXx+///67+W706NH44YcfjLXUv//+i1OnTmHv3r04ffq0sf7iefyblluxsbGIiIgw5T3wwAMZ1lUUrkaMGIG6devinnvuMWJPZGQkaG3GNnz44Yd48sknERgYiNWrV+Off/4xghsttihaMbH87du347333sO1115r8t+0aRP++usv05Y6deqYtvOzxYsXm8/I8dJLL0VMTIwRyyg08Txv7/RrRQErLDQMBw8cRUpKSgZHFxcbqteogrwssCgWrl+/3rSB4uPjjz8Oz2yupWXyGVKjRUAEREAEzisBjnfff/89PvnkE2OlnH2Dh2MzN4s4nvJvzgN69uzpVJBYunQpxowZg5kzZzod02hFzbkCLaG7du2ao52sC625WV7fvn3NGJ850Rqbm3DcIGM5VrgCzn9eeOEF/Pbbb/DPtlGYF8xDhw6Z+nBz7lzG4J9//hmcZ912220FvnYc+5999lm88cYbWc5hXVatWmXmaVbi3I4bk2dbR86PyIvzseJKErCKiyzMxi3ntPRkeOmll8wmdObEe47PLeflfD557z/22GMZnhaZj92xY4fZlOb9Ru+I7OnkyZNmPk8PBc6pnYUYOXbsGN555x1cddVVuOmmm5w2nOsGPpv33nsv2rRpU3xwADOP5nP/3XffZfGsWLdunWkD25m5HZ06dULbtm0LXSf2f4MGDTLtq1Qp58u2OLenIQG9Xdinurm55VvWjz/+iOXLl5t28FnlOig4ONhcT3rU0AuG9c4tdArvkUceecSsydgvFkWSgFUUFJWHCJQWAmlJSPjudri3GokPDv2E+qFXoUONrjj6+WSkRkWh8tDHs7Tk53c3ILSqP1p0/W+Scq5NXbZsGVauXJlDwOKk79FHHzWCDMWpd99911hWZZ9sLViwAM8//7wRa2644QYj6lCUokDTp08fPPHEEyaP1157DRUrVjQWW7SK4gTwiy++MOIVO1B+xgGOHS+FM4piv/zyC1asWGGspzgIcuLGSeq0adPMoMsJMY+ZPHmyEaXohmglik/9+/c3HXiHDh2MZVe9evWM0MTBhBNdimzjxo0z5a9Zswa1atUybaBIxQkxxSfWa+zYsdi5c6dhRHfJkJAQcx6FLQ50FMv4OV0e2X4O9pw0sAy2v0WLFqZa6QJWOA4dPIKU5EwClqsrqlWPyFPA4qSDohUHLbaBAyrrlVlQPNd7QeeLgAiIgAiIQF4EuEHDsZXWwFwwzZkzJ4eAxfkCRa2HHnoIR44cMXMJjvfcNMqcEhISzDjLhfBPP/2UQ2yZO3euWfhxUUcxxpmAxTkABRwKNsOGDXMqYHHM56bSjBkzzELPsh5n/WkJfiEELCu+qLNFf2788xKwOC/hhl3mdDZ5W+cVZQzS3NphCViRx08iNiYuy2HVa1ZFTGz+Flhbt241m6ucxyn9R4DzZT6TXl5emDBhQg4Bi5uu3CTm3JbXms8fnw9nAtWLL74IhhLhfDf799ywffDBB80z27x5czNvz36/cV7NZ5KbuBTCnD2/FK7ffvttcy7XEhdSwHr55ZfNXD57yJDCPEfWFclPwKIgTna8lwsrYHFtZK0zuMHP/paiYYUKFZw+GsUpYLHfPxl5Kku55YPLGWG1IBZY3Fjgmu1cmLNwWWCpVxSBYiTgSI5BwpQOcOszH6MWP4JnWr2HAFc/bLjpBlQdMRLlWv+3E7Fn/Un8OXUn7hh+KXwDi+5NdbkJWBSg9uzZYyyN2JFQwKE1EgfE7IkDGQfFzZs3g/lR6OJAxd0MCk5MtBzizgdjYlkC1pQpU9CgQQMjIGV2IeR5loDFDpiiEgdadsocUPnDQbFq1apmAs3JNHeaMgtYLDMuLg4bNmzAxo0bze4kdxQ5ULCO3PHp1auXEdK4i0EhjlZdV155JRo2bGh2jP38/DJcCLk7QuGMohXT7t274ePjYyy3eB7dMZlodca6cELMScGNN96I66+/3nxHASs8LBxHDh9Hakq6pRcTRbaIKuH5CljcJaOAxePJl2WxjkoiIAIiIAIicD4IcEHGRS3HW47T2S2wOHe48847zeKWiykupGk9nV0konj1+uuvG0tpjq8UuLJbC9FCmuMsF5VcQDtbAPMYzhNoccLx2JkFFsd4jpXt2rUzVty0LKEwRtFn1KhROHPmjNmk4+KLcwrLevvgwYNm3sONIgp3XFxzjsB5DDfcOMcgD+ZBke2tt94yl4CLUf7/3HPP4euvvwatOzj/oFBXrVo1I8bRcoWCFOcvnD9QYGP5FPn4/ezZs80GHplQBOTmH8vOzQKLbeGmYfbEvGmlzsTFMjlyc43zIFqhcPORC3a2lUIg51eca61du9bMNxgDlRuInG9xTsM2ME+KgLzWZMWYpbSU++yzz0wb2H4rJARFNVqeUGBkubQWsQQsLnSjo/8TsGiNXq16ZUTnI2CxXrRgI1da7XO+ppROgHNtzmG54clrmd0Ci9eOm618LpOSksyclqE8MifLwpIbpxR9ec9lF7B4T/CaU8jmHNuZgMXvaRHEtQHLc/b88lryHuQmNDeaswtYfAYooPEa897j88F7kvc01x5sI+8tPr8si3XnMbyH2T6uWThn5vPLjV9aKXL9wL6AfRDvVT6/XO+wT3AmYNFabfDgwYYB8+Ezz/uO+TJ/Pgt83inY8XNawPH54b1OcY/ClDMLLPaPXC/wWfnmm2/OScBif2Ql9quMLczQLlZiW/l88zevBevI/ql27dqmj6PAxOe5SpUqRmxkf8A+lceSES262Iezz6DQx36f1rOsP/tWywLL08MDkcezClgVQoJM3nkJWOTPTQxuWtxxxx2mTymINVpuz70ELPWIIlCMBBwJJ5Hw7a3A3b9hxIJ7MbHzdCTs3IlNt3ZF00VL4J4p4Pis8etx5Y1VUbluuSKtUW4CFgthh2O5BnCgoMUPd0qsRMstdnw0R2ZHw4GDgwo7anagmWNg/fnnn2aycbYCFifJ7DiZOCBxh4YDBEUwdrQsk3nyM0vA4iDHAYmdNTtfJk4UOZFix8vJLuvI3eElS5aY38yHHTvryR0hTriYhxUDiwMQRSsOfFbi4EU3R7oecvBksiYN7NCdCVihIaHYtWMfkv9vgVW3Xk24e7ins8sniDsHTrpash4U+UrCmxWL9GZUZiIgAiIgAqWCwLZt24xVcnYBi+MU3Vpq1KhhRCwucnjs+++/n2XMmj9/vlkkMQYmN2ecCVgEwbGRAhQtbZwtgC1YnBPkJWDxxTF0F2RZXCxyccnxlBbULJsW2KyLVR7nFZwLcJ7BjSgu5rngY5s4j+BciAs6yzKM8wdu9DF/zjdYHhfXFBRo0c3NMi5YudDnYp0beDyOohStJTiP4nyLebOdnHPwfH7GuRPzYZ1yE7CyW29QNOQchkIZBTjGKmUdOXegIMDvWFdy4DyQ5bMeloDFxTg3+rhRRiGA7aElPcvhy3ooAHDRy+95H/B8WsWzPVzgU6ziBiavC8umcGi9cdoSsJISkw1XK/F7P39f5BcDi1ZzXFwzsW0sm6KNUjoBXhe64zkTsDinpfUa7yXO1z///HNz/9NDwkoUXziHnzRpkhESRo4c6dRCi8fzmeLmtDMBy8qPokduAhaPoQDE+5L3vTMBi/N11tPyoKBoREtKzvt5n/O5YrgR3mc8hvccxRtuXPP5ZUgQimm8T9kWfk/RnEIX1wm8N7mG4ZzdenO5VXf2FfyO3hSc51P84z1PsY2iC0UzzvstrxVyoDjE7/i8UPyh+JVdwGI5fD4aN25shHT2cedigZVZwKJozvwzW2ROnz7dGBqw/eyjKVKx3lzzsB+jkM5nke2kJww3KWhgQHYU8Nh/836ihwkFfwqX7AOtl3xZAlZggD8SEhKzPIpe3l6IiY7JU8D6+++/zfqK6072A1zv8R4urCWWBCz1hiJQjATSDq9EytJxONT+RXyxdhxebDcZx7+bhtPz52WJf7V/y2msnX8INz3aENyhKsqUXcCiUGWZzz799NOmU+PuDDt7DkD0mbYSO2wOCLQw4g4CO0xOVi0T1rMRsDiJpDshd255nmWB5UzA4o4Qd2U52eTuDQdfCmmWgMVOmJNFTmw4IFJM4g4RLag48HHQYkfM3VOWRxdHDkzsxDlRZXwwTly5s8DBiAMruXDQY3B4Tvg4aefOI3drz0bAOte3EHIHlfU8lzc0FuX9o7xEQAREQATKHoHcBCwu2GiFTWGHcau4WKL1EBdzdONnovUGN6M4/nIMpeUSx2R+n90tvqgELI7dXCRyXOc8gItKLoA597DcFC2LZi7OuLHFRR+FGC6CrZQ9BhbnSbT6YqgFzpO4uOMc5I8//jDiEReI/IyLRS52ufilmxcX9RSwaJlFCxXWzUoUIBhbk/Mz8uDimxZQXNTlJmBx3pZZ4GNbuDCmWMZFsmU9znZTiONClotRziV4zbh4pLCVWcBiPaywERSwyIobmZxDWW90pgjCRS7rRasPy02UcyaKJGTLNnOeZSVLwKI1+pnTZ8zH/v5+cHVzRXil0HwFLMYAYtwgWqZRYKGoWBQv2rlYnuK8BCze87RCotjDxHuB9y+fVSYrhiwFIG728j7hM0DBxlnIivMhYFFYZagQCrC8B/n8UlTiM02rKD5jFLBo3cjETWwKW7xHuIaxYvTyu+wxsCiE8vngvJrPIJ+BzJvDfPYZQ5ffUXCiO6R1r3MDnOsQsiM3ij+0gqSAxf/5rOXmQsg1CS0WKdLQIpTtY7suueSSfG/D7DGwWJ/MAhbFJq6H2A9bicI4NxX4vLBPpXh9++23Gw8S9s+tWrUyh7JvomhEsYt9gtVnW/nQUpTPO2No8TwrWQKWq4srjh4+Zj7m5ryPrzcCAv2RlJiUp4BFkZ58Gf6FmxW877J71eQLJtMBErDOhpaOFYGzJJD89ytASjKmB5dHYmoC7m86DHueG4lyHTohqF279MEk1Y4pz/2LFjdVR4Nriv4NDtkFLE522JFzYskOhZ05J5t04+NAQOEoc6JYxU6Xky2aurMj58SPA93ZCFhU37kjyLzYoeYlYHGiwt0h1p07BdwtomAVGhqaUTVOIDkg0MycQhU7d3bGlk84d3/ZyXOnggMSBz/mQasyThQ5SHIg4eDGiSZ3+Dj5tHgwGCUn6BTQCipgbdu0GxGVIkwdz0RF4/jxE4DjP5oJSQkIDQtGjTqVc/jgn+WtpcNFQAREQAREoNgI5CZgcSOLggJd9Gk9TXGEC57MAhZd+7m45CKUi1Ja+3AhSJGE7kSZU1EJWFyYsQ7ccKM1Exdw3JSyFsTcvOJC1kqsG+cEnGNY1j1cmFJwYl5WEHdLwLAbq5AAACAASURBVGIbWHdaNlCYonjDRWN+AhbnG6wPF29cODIftplzMZbBuRTdJLk5mJeAlZsLobVAzyxgUaSy4nuyzpzjccHIOuQnYDE/Mskce4oLfooc3OzjRmRmhhRKKN41bdo043NLwEpMTMoIp+Dj65OxQZufBRbFAQoAjFfKhfS5uBoV2wNyATPOS8DiRi4t6ix3Uwq6dM+zBCzOnSk6UljmfUiRhs8Fj7NEy8xNKwkCFvsTek1kFmwo6HLNQpGG/RAte7geoKUZhVsriHtmASsvF8LsAhYFWa49aI1Iy0MypQUX70f2E3yW2QfkJmDxmWesMtaT6yjezxSE2H84S7RAo6DD/osb7FyfUbiitWt2AYuGBVzvZH6pAzfp+ZyyTrw/2JfwHiAHWqBR/Ob1tgROum7yexonsG1c61AIpFUeLduYF4VFSzi2BKyAAD/QspKJz6WXt6f5O7+3EHLc4D3HPoh1syy7CvsYScAqLDmdJwIFIJAw9Wa4NbwDww7PRNe6fXBd5Ruxrd9DuOSjT+Dy/7f97VwdicXTduGu0VfA0yf/t1MUoNhSfwhjQ3Ag5c4ABy4OyByQsotrzhrKDpo7qBzIaIJMX+viTEdi0vDbtkSkpDkQH3UGrcPSUDHIFzu27zYmtdnTKRd/xIZeYnYi29TyQr0KuubFeX2UtwiIgAiIwNkTyC5g0RqGixwuhLj4YSwZuvTRuoBWzRRG+DcXa7T4sFxDaKlDCx3LhZACDq2HGH+TKbuAxYUON8xoGUG3Pyvl50LIzTEGCObGFQNXcxPKErAoEHGTitYJXNxxg4sbalxUsh1cGNMKg66AFGqYV3YBi1ZS/GG+bCfdgbjRRhZ5WWBR3GM9GLiYYhKD0nMRS/ccWj9xUcf6UKCiEJSbBRa5tm7dOoMHF5gUrWjlkd0Ci8Ia501cXDdp0sSIbHQTsizhuIDkdXBmgcVrSUszbmpyU48CBhf33FAkR7aDVhoUl2ghwzpnF7COHIqEv09ARl1ZTuYUHROD8IjyxoIjt8SNSYp7ziyv7ImpiF4dibjNp+BItZss3IO9Edg8DF5V/YGidWQ4+4enmM/ILmDx3qBLGK2qyI1WdLxOFJdpzcP7lJZ4DIlBMcNKfNYoAFkuhHSR5bWl+6iVsgtYvG8oFtGV1HrGs7sQcsOa1kDWW/nycyHMzwKL/QCfR/Y3bDvFcT5TFF64wWz1QxR9aPHE+9KZgMVni/d+Zgss1pHrjewCFgVcxo9i3fic0hKRbsHM25mAReHJEufpzZL5WaUQlp8LIZnRIpRCP12fWSY35ilgUXxkf8n28jmkEQKfOf5PS1Bao9FjhnXjsXxuKYixTF4j9hHMh59bL+bidWRMKpbDa87+nf0gvV2stziyzRStabyQ/S2E9jQ7HJl26E+dikKVmmFwdXXJ0y2Q9+e5ile8NyVgFXMno+zLNoG4N0KRestk3LNiKF7vPAM1EYG9o55DnffSffuZfv1wE+q2CEOtS52/TaIsEqRvOQdg/qaPthXQvaAsuENCSyx2wtnfNlLQPAp63MkEO5YfTMH/51DwdUmBnz0h3c/ekcn8ihN1mwvOuPohxeFqsm8a7oZqgel/K4mACIiACIhASSFAQYdvM2NYAY6je/fuNUILLW74P8dnLoa4AGTwZFo6U8zhooeLMGuRSBdDbihxM4k79hQ+6IZGYYWJAhbzpes+x3suUHk8F4+0frASF3W0/rHciKzPaQ1F4YqLWJZFoYyiETewuPjmgp0iCK2QaBHBBR0XebTo5jjNxRvL5/9cCFJQYrsoVLG+DCfAMmmxzc95PN1x2H7WmeXzh59xQclFIc+lKxPzolUDBS6WwfpRZCAzimC00uBCn2IAF8W0JGEdaS2WOVHQY36Z48XwGjAGDjf5aLlhWWNQsLD48zzGIeNinJYotCxjmbS6oKBF9hZjhm4gK14bto3HUfRgnfgZWdHtiAtolkdWXIhSKONiPXOMpaOHjsPLww9ubq44fSoKmzZty9IelstwGVe1uhSB5fzP+pY/PmsXUk4lIrR7bbhy49fhQMz6kzg1/wAq3lsfXhG+Z51naTqB14LceZ0pvtAlltedVpEUN+hix41gbvpSWOFn1j2Y+U3jvA70iOB1ZygR3ksUsSh2WIlCNsUNxq7i/cd7ilZcvP7W/ch7k88Kn18mPjN8VnlvW884hVt+nz3oPJ8nWh/yDd8UxvjMUiRn/8F7kPViX8A68NlgOWw3BV8m1pfPJS0dKbxRzGN/wGeD9bPuV4ow7M+yx8DiRjmfPz6f7EPYV7AcPqN8NihaUyTis07mtOhk38jE54gsmK/1GT8n78wvXOCzxvxpgZVbbFteCwqM9BJhYHgrqD77M4o+bAvbwM0BilmsJ0UrCulkx0D3ZMQg6WRD8ZL5cCOAfQAZ8X6whHRy4HNOcZvPM9nxb/YjvE7s0xgfjPcPWTCu764tB1GlaiWkpaZh9ap1SMr0tnWH3QEXVxfUa1gT1Wqme6IUZ5KAVZx0lXeZJmA/cwAJHzbGrls/wfOrR+OL7ssQP/1npJ44gYjBQwybuKhk/P7JFnR/oglsBYh9xQ7u1OGDOLxrO84cP4ZTRw8jJTGxyONmlekLV2oab0OTdp1Q61K9nafUXDJVVAREQAREQATOAwFa3XBRz4U3F+BchNIyrbheDpOQ6sC4xTE4EWeHLS0V1/ifQsNK/jiw7xASswV95tZelM0La2w1ABdXXFXVE3c28YatAJZT8dujcHLeflTq2wCuvlkt2GNWRyJm3QlU6lv/orfCOg+3UJkvgmIQf+hSS3GIQhutnLK/TbWgoCgaMQZUdhGN51Ps4yZASUp2B/D56nisOZzuMljFHomOtf2QEBODY0eO56hqiosrVjmqIt7VF6H+rhjZxh8FWNoWqskSsAqFTSeJQP4E0nbPQ+Ksu7DwxtexYN8vGN/5O2y+sxfC7+2L8p2vNxnMnbwNgRW80KJremDCvNLR3Tsx7/OPcObEcdS5vAWq1GuIgOAQ+AUFweYiK578+F1s33Oe5+XnD48SNuBdbJzVHhEQAREQAREobQRocUNLFMb/pCUG43wVZyB0ilKxSQ7Y/2957gIH3G327IboGRjTbC5Ic6QrVh6uNni7F0C9AnD4iy3wrhaAoLY5rTzSYlNw8JONqNinPjyC099QrSQChSVAa1BapdEyil4dtFSjpVNhE6216P5Iy8zsiUH0GX+vpKX4FIcJkWIlD1tO7xLrO4fNhhSHi/nXxWaDv2fBnunCtFkCVmGo6RwRKACBlBXvI2XXXHxR+1IEe1dEt9BbsaFTezT84Wd4VauG6BOJ+Gr0Ctwx/FJUqOKXa44nDx3Ayt9+QuTB/WjU6jpccuVV8AkILEANdIgIiIAIiIAIiEBZJsAYQcnHE5B4KBYJO88gLS4F9iQ7HKlpBbL8Lsvs1PaSRyA5MgGh3WvBv1m6C1nmZE9Ow6GPN8KelAab+38buwWx7DqvLXVkeb9PzqJtMiA7r9dDhZU4Anx+w3rWgXtQepD47EkCVom7ZKrQxUIg6fchSAuojFeTtuDBy0fBf8Uu7H91LJrMmQebiwvWLTiEvRtOoevgxrmaTR/ftwezJryCZu2vR7P2neHpc3H79V8s117tEAEREAEREIELTSDldBKOz9yFpMNx8K0XhIArQuEe7AWbqy1dvCpxK/sLTUzll3QCvJ95Dwd3rpqjqqlnknHw442IeKABXH1yDxBf0tuo+omACAAuni65jlESsHSHiEBxEEhLRuKM3ki5+jG8sOVdvNFxKg6+8xYcdjuqDH3cBM785YPNaHFTNYRUdW59tfGvhVj07Rdofcc9aNT6ujzf6lAcTVCeIiACIiACIiACpY8AXamilh5B3JbT8G9WAYEtwuHipVADpe9KqsbZCSQeiMXxH3ahYu9L4F7hv5hBDCIdtfgwko7FI7xn+hsulURABC5OAhKwLs7rqlZdYAKO5BgkfNMFKT1n4bWlj2NM68nYMWQgqjw5HN41aiApPhW/fLAJ3R9v6tROeO/GdZj/+Ufo/sRIBIVXknh1ga+nihcBERABERCB0kAg5WQijkzZCp/agQhqVxmuvu7yRyoNF051LDCBqL+PIOrvwyh/XRVjWZgak4zTCw4iOTIeFe+pbyy0lERABC5eAhKwLt5rq5ZdQAKO+BNInHkXNlw3Akv3/45BjZ/FtofuR4NvpplaLZ+9D/ZUB67uVj1HLQ/v2IZZE8ai84MDUfuyKy9gK1S0CIiACIiACIhAaSEQty0KJ37dA78GwSjfvjJsbukBdZVE4FwJMDZ7UlIS7Gl2p1nZYIOnlwdcXIv/nqO1VdzmU4heHYm0mGRzn3tG+CKodQTcAjzOtak6XwREoIQTkIBVwi+Qqlc6CdhP7ULSH09hcvWGqOhXFR0TLsOxKZ+j9sS3kZKUhslPL8ON/Ruict2sb7NIS0nBV6OfROte96J642ayvCqdl1+1FgEREAEREIHzSiB+RxSOfbcDIbfUhF+D8nwN1HktX4Vd3ARSklNwaH8k3FzdnDaUoTF8AzxRvkLh39J2tgQdaQ44UtJMnBwXD1dZGp4tQB0vAqWUgASsUnrhVO2STSBl/RTYj2/GwIRV6NvsSVT5aiXcgsujUr9HsH/zacydvBX3jmkOd8//YlKkJCZi9gcT4B9cAe3vfsAEelcSAREofQRSUlIRGx2H3GbTLi42BJTzk0Bd+i6taiwCJZJA0pE4HJu2A+WurWQCtRdF2r9/v3nl+1NPPQU3t6yiBcWKxYsXY/Xq1fDw8MCNN96I6tVzWpSzHkePHjX5DBkyBO7uOQNrp6SkYPbs2ahSpQquuOKKHFXfsmULFi5ciMTERFxyySW4/vrrs9SH53/xxRe477774OpasDhf3377LW666Sb4+eX+BujsFUlOTsayZctw1VVXmTZnTp9//rmpV3h4uFP0v/76K6pWrYpGjRplfH/48GG88847pg42CjAuLrj88stxzTXXwMfH56wu4Zo1a3DgwAHcfPPNxTauJCel4FRkDPx8nb9MKC0tDamOZASHnD8B66wg6WAREIGLhoAErIvmUqohJYlA4ux+iA2ujQf3Tsb4639A7J2DUeWp4Qhqdx2WztwDFzcbruqadbK3as5sLPvxe9z36tvwCQgsSc1RXURABM6CwMnI00hNQo5Fn5VFXFwsKtcIMwsWJREQARE4FwKp0ck49OkmlGtZCYEtws4lK3Muxanly5fjjTfewKlTpzBnzpwcwhOFnO+//x6DBg3Cjh078OWXX2LSpEk5hB3m9+qrr5o8fv/9d3h6Zn0lekxMjBFxKPBQKOvatWuW+rP8Rx55BI899hgiIiLwwQcfGJHrtttuyziOwtYTTzyBiRMnOhXInAF59tln8fjjj6N8+fIF5kUhbuTIkaa+2QUmilEVKlRw2n4W8Pbbbxvx6rrrrssob9u2bejfvz/ef/99+Pr6Ij4+HuPHj0fLli1x7733FrhePJAcySEkJOSszjubg4tCwEpNTcWJEydyFfrOpj46VgREoOwSkIBVdq+9Wl6MBOI/bIatjW/Fq4dm4KOrZ2J3t9vQcNbP8Iiogp/f3YiOfevBJ/C/nciEmGhMfXkEbhrwBEKr1SjGmilrESg+AsePHzeLFe4Ct2vXLktBXBT98ccf+PHHH8Gd7AYNGuDRRx/NIfJwF3fDhg1mQfTmm2/mqCzz2bx5M2bOnIkjR46YxRZ3ve+//36zg3++Eyfkn376Kfr06QNv7/Q3Ip04fhqu8IC7u3NXizNnolGxarAErPN9sVSeCFxkBOzJaTg2bTvcynmhwg3VYXM9d7dBCgwUeK688kpMnToVv/32WxZhyG63m7779ttvR7169UwfvHfvXjRv3jyLgMPPee6iRYuwa9cufP311zkELFpCHTp0CLT2at++fQ4Bi+LY3LlzjdBDwZ/12bp1K1544QWnAhbHBn7PcYQWSS1atEDbtm1N7Ka//voL69evR+XKlbF06VKMGjUKmzZtMuLRZZddZvKbMmUKunfvboQ71p2iUq1atdCqVStT9s8//2wsverXrw8KUByD+N26devQuXNnlCtXzrSXVmMcG6699lrD8b333nMqYJHjrFmz4O/vb8o/ffo0nnzySXz88ceIi4vD/PnzsWfPHgQEBKBLly5GxOP4uGDBAnN8kyZNTPkbN2407aVVGdvE89iuoKAgkzevzbRp08z/Bw8eNJZszI8WaytWrDCCJa3AaP116aWX4t9//8XatWvBa81jKbxZApanhwf27D4AR6ZQWMHB5RAUHJinBRbzIieKgJwnsO5KIiACIlAYAhKwCkNN54hAHgQciVGIf6sG5rd8AEsSD2OE24PY/+pYNPl1DhLi0jD/i23oOqhxlhxmvjkGASGhaH/Pg8Vm/q2LJgLFSeDPP/80O8mRkZFmYZBdwNq5cyeeeeYZI0pxEv3aa6+hW7duWVxGuOh49913MW/ePLOT/Nlnn+WoMhc03DnnAoaLJ57D3X1aBIwZMybHAqk428y8ues9fPhwvPLKKzkErISERMSciclShQqhweac/AQsLri4sOACSEkEREAEnBGI3XACZ1YcR6V76sHmXjQWnRQauMmwb98+DBw40FhHZXb9o6hDCyiKIuynjh07hh49euCGG27IUsXdu3ebMYEWVBTE6OaX3QKLfSHd8V588UUjImW3wMqcodXXUmBq3bp1xleZLbAo7HCMoUBC6yr2y7R+onhFsWzEiBHgRgvHCtbnl19+MeMRhR8mWno999xzRkBq06YNKlWqZCy76B5I8Yj58ociGTdZnn/+eQQHB5tzaI1GcYhi0J133mnEqJdfftmcP3369AIJWHSHpKslz2N9KTBRaKL1F8UzjnsUgCiiUXBie8iOAiJFLApiHB8p+PFcfkeBi9frwQcfNGMzubDePI4i4+TJk02ZvO6sKy3hKPR988035nyOxfyxBCwvT08cOngUDKRupXJBgfAP8M1TwOJ9c+uttxpxsGLFimasp1ulkgiIgAicLQEJWGdLTMeLQD4E0g4sRcK0bvi8eU+EBjfENX+mIi0uFlWfGo418w4iOSEVLTK5D+7ZsBY/THwVfceMR1B4JfEVgVJJgLvkdKH47rvvzE50dgGLu9fcZWeslOjoaNSoUcNMYjMnilF0M+GEmxN1ZxZYjDVy8uRJ4zJiJU68t2/fbnaKKWSxLC5qOFHv168fqlWrhocfftiUyTpwMUYxjYuTGTNmGMsw5sEFWd++fU1enNSfOXPG5EHrKk60OelnnBfugHt5eWHw4MFmR5mLNIppXFgwT8sCKykpGTHRsVkFrJDyZlc/LwGLO+l///23sVhgnrQi4GJFSQREQAQsAiknE3H4880Iu70OvKqlW/AUZaKFkTMBKzY21mw+0AKL/asldLHPDAtLd2GkEPPWW28ZQYrWQ0OHDnUqYPFYiijs7/MSsCh60NKVYhfFlswpu4BFi6YPP/zQHEJhicdz3OC4wr7U+pxiVW4CFvteika03uK4wX6fmzPsjym80IKLIhb5MLEMClgUjWhRxjZxrKGb5YQJE4z45MyFMLsFFrmR1ejRo03daflkxfX66aefjLBGUYmWXldffbUZ22h5zHGTAhatpzh28FxarPF4iowUsJgnrwndHzn+MZYXhSqypeUVEzeP6KJJUY6iH8dgy9U9swXW7l37swhYFULKI6h83hZYtCjr1KmTqU9gYKCxNKMwqCQCIiACZ0tAAtbZEtPxIpAPgZQ1nyJ+2US8Ufcy9Gn8JGxjP0HYvX3h16QZvhy1Am161Ua1Rv/FXaD1Vd2rrkHDa9qKrQiUagIUgTjB5yQ1s4DFyTwnzitXrjSLCAatpZvFuHHjzEQ8e6KQxV1gZwLW66+/boQm7o5nT5wYc/JvxUvhTjgXDi+99BIeeughYylVu3Zts8vMHWUuABhzZOzYscYygBP8e+65xyx2uINN1xFajnEnnBN+5k0xi4F26V5BqzOWxXxZBiflFJosASuVwdxjGcz9v1Q+OAhcAOYlYNGijDvl5MDFHxd35KYkAiIgAiTgSLHj6Lfb4RHug/Ltq8BWDG8czE3AonVWr169TN/Hfon/0+KIoknTpk3NBeJGAvtMuutxXKDIxX6bFkPc6Mic8hOwoqKiTH/IfveOO+7IsHS18sguYFGUotUVE8+jSERrXrq2N2zY0HxOyyxuauQmYFEoo7Uvxym25ZZbbjFiVmYBi0KVFavKErC4oUH3OwpP3Mzg2MKfggpYCQkJRgijSMY8KZBZmxcUkurWrWs2ViieMbA9x9Rhw4aZTSEKWHXq1DEu9hyTLJdLuoRSwOI4wrGPru60iKPYtWrVKnM9OGZbieLVP//8YwL00xLMSv8JWJ7Yv/cgHA7Az98X4RXT427lF8Sd9wHHZApXrB83s7Qxo/5MBESgMAQkYBWGms4RgTwIJM19AnGJp/CCRxTebPUldj46APU++wKRB+Mw4/V16PPylfAJSH+DTeSBfVjw5STc8cyLGsh1V5V6ArkJWGwYA98yNgdjgXBizf8Zo+OBBx7I0e68BCxOwGvWrJnD1YSTei50GHiYPxSkuJs9YMAA4y7ChQx/c3JO1wguqChQMVYJhSsrcVHChYMVn4NxTBigl2IbFz10fWT9WRYXBPwsNxfCM6fP4PixkyZrdw83E++rUuXwfF0I+XYvine0AOAigwugswk2XOpvJDVABEQgTwLxO6Jwav4BRDzYsMhcB7MXmF3AolBkuX8xmDrFFrql0X2NVkGffPKJ6ePY77JvZx/JRJc9fs++m1a3DDjO46w3AGYXsPg/rWwptHBMYf/KftAK3E4L2sxvDyyIgLVkyRIj8FAQogUshTRuqnATgq6O3OCg+x/HCIpH/I6uihxrGLeRMbx4DEU5WlRR3HEmYFEoo3sjLZo43rHdFNMolDmzwOL4xA0Ttof14tsYOZZRlOL4Qosx5sVNDwpWFPA4lrEd3NzgWEfrX7pBsn0UEuni+PTTTxtrNY5tjDfpTMCy4n5RpCMPXhPWkxZYFMhyE7DO5S2E3GTi+NaxY0c94SIgAiJQaAISsAqNTieKgBMCaSlInNEL0bXb441TSzD28vew59mRqPPe+1i34BD2bz6Nmwemv0aZE7MvRw1D03ad0Ky9zKh1P5V+AnkJWHTV4yKCFk/cdeVih5NZywUjc+vzErA4weYkn4sMy7WCk3vuFHOBQeGHP1z8cKFEqymKTtxxzi5gMRAvd9cpEFGU4oKDiyEutPiZFfeF9aXbBS0MKGRxYcAFFhcKtLzKTcBKS01DYkKiaZq3jzc8vdKF6/yCuHNhSPGKrolcMEm8Kv3PhlogAkVFgNZXBz/eiPIdqsC3blBRZZsjn+wCFq192DdSpKGwz7cO0tqIYhWFLAofDBTOoOO0srH6Z/ZlmV0IeR5fvGHFncouYFEAo/BD4YZ9IftZWjNZ/TE3F9ifW6kgAhbryHLZBvanHHu4+WD9Zrwq1p/xvCgeUdTi8XR7Y10pNFF8o9s4/6dI5UzAovhEwYptp8UZN0gYr4qijTMBixa9tFLj8XRLb9asmXFjZx3pgshxjhsobHvPnj2Nez6Dy9NVn+MtN2H+x955gMdRXV/8SFr13iyruPdCMZgS08FgMB1CaKbXhE4gBAgEEgIkIf/Qe++Y3kvovRqDsXHvqlbvWm35f78nRl6tV7ZsJHklv5voQ5Zm5r13ZjVz37nn3ss7lPsAgcXcUXuRugjBxTVRHaMgC1ZgQWChgiLlHiKP61FwnqASKYnrEFjuVlWU1Co5OclAX1hYIq/H034fqInl9XtUMHSgMjLXVVb32AfVXtgiYBHY4hCwBNYWd8vtgnsSAX9LrZofn6Z5e/xJ75d9ptOb9lf9998r/6JL9PYDP2vibnkaNK7txb5i7o968b836Kz/3qv4XzrQ9OTc7LUtAj2NQDCBBRHFJoj6IaQ4UDSWboGk70Fg4WxTMwUnn9QOp8Dv+ggsrsN5OPp0rWLzQu0VzsfxJpJMWgtOO7VQcPxx8NlABRNYHA/5xAaDTk2oCkgdpMMhSi2K55JGQjoFEW02L05XK9L8OIbixfyOa5HeAbkV3IUQx57/OVZbU6uBgzLl6qRLIceBAZsnNiHWLAIWAYuAQcAvVX64Wk1La5R7wjhFxnRP4XaLbv9AgKANRfchuiAGCbBMnTp1nQL7G7PalTVeldZ6DcFVV1yibQanq7GxSXN+mLfOZXyKkD97sPKGDVJkRIQmDHQpzmXrN24M3vZYi4BFYMMIWAJrwxjZIywCXUbA31CmpmeO0FOTDlJKTLq2f2KZUnbcSakHHKKXbp6jIy/ZRpFREcaxeOu+2zVo3ERN3G2vLl/fHmgRCGcE+Fw73ZZQN0Eu0amJSDvRa9L26BKFYorueqSFEPGmOC+dqhylEY4yEWbqrIQyotwU0YVcInJNbRQILaLNpKsQPSaiDqFEFJ/oO+3RKTpMqgaEFAoq5sU1SM1AUTBlyhRTw4XUFwrYoiSgRhebAa6BqoAoOJFuIt/U4UKZxbHUxOJ3EHLVlTVqqmtVckqyUGHN+XGefBQM+cX4WUysS2MmDFfWgLX18ML53tq5WQQsApsfAU+NW4UPztXAo0YptqBNCWPNItD+bvF6TQF7lGakBPKORdHFe2pT7b2lLZq1ym1Oj4/0aGRyq6J9brW2rlVfOddu8ru0zJ0irz9Crkjp5B2SlB5nCaxNxd6eZxGwCIRGwBJY9pNhEehGBHxVS9Xy1gW6LM2l3445Vamn/VvD//Nf1aWM1Ox3CzX97PFmtJbGBr3wf9fr2L/8oxtHt5eyCFgEegoBItsUlicFkvTEYPP4pKd+aNTySo+JVOc3rtIeE/NUXFisNWva6mAFWos/SosTRioiNkFDM1w6dpsE4/BbswhYBCwCwZWBPgAAIABJREFUnSFQ+22ZmlbUKefIERsFkt/tk6feLW9dq7xNHnkbW9Va3qzI6KiNuo492CLQmwhA0iaMSu3NIe1YFgGLQB9AwBJYfeAm2Sn2HQQ8i95Q7YKXdEbDZ/rLoGvkv+ifmvjam/r49UplFiRq0tQCs5gvXpopd3Oz9jjmxL6zODtTi8AWjABqMroRUiSXNMFg8/mlJZUe1TW3Ka2iInzKcLklvy8kai1+l2q9bddJjovQiAyXeqCR2BZ8x+zSLQL9CwGf26fC+35S9mHDFZffNfWVt8Gjmi+K1bCwSpBYrvRYRWfEyZUULUVFKjLOElj961PSv1YTOzBBcYOT+9ei7GosAhaBX42AJbB+NYT2AhaBtQi4P7hCc92VuqHmc/3DfY5ann1V4557RQ9d8ZX2P32cCsakqam+Tneff7p+9+drlT96rIXPIhB+CFCMtdEjT02LGpfUqqWw3kTtPRXNioiJ6pGW7eEHQt+ZkSstRgMOH6EoNqXWLAIWgX6JQNXHhWpeVa+Bx4xWRNT607Jaq1pUN6tMdbPLTaph6o45iitI6rGOhf0ScLsoi4BFwCJgEQhLBCyBFZa3xU6qryLQ9NQheiM1Se/7a3XJt9srOiVFrkPP0Ku3/6QTr9tRsQkuzfnoXX331ms64e83Kcrl6qtLtfPupwhQY6X6k0I1LqmRKzlGccNSTLQ/IjrSbJoibJ5b2N157kl0ZtwGN7VhN3E7IYuARaBLCHjrW1V4/1wNOHKE4gZ1rkjxe/2q/aZUNV+VKHlSthLHZbQ9G6y8s0s424MsAhYBi4BFIPwRsARW+N8jO8O+goDPo/pbhujeEVsrKXsn7XH/cuWdd6EWr8lS2Yo6TTt9nKmN89LNN2rytIM0eMLWfWVldp5bAALehlbVfFWqmq9LFT80WZn7D1F0WuwWsHK7RIuARcAiEN4INMyrVO13Zco9oXPVNiTXmteXq7WiSTlHjlRMzqYX7g5vNOzsLAIWAYuARWBLRsASWFvy3bdr71YEfOXzVf3gFP1z7GQdOeZiJV5xj8Y+NVPvPrZYY3ceqCET0k364Av/+YeOu+p6RUTais3degPsxTYZgaZltVrz2jLFZMUrffd8xeQm2Ij9JqNpT7QIWAQsAt2LQOFD85S+W74SRoYuaE1B9tKZixQ7JFkZexUoKsGqu7v3DtirWQQsAhYBi0C4IGAJrHC5E3YefR4Bz9ynVf6/i3XtiK30r4l3qPC66zTijgf06h0/6bCLtlZkZIS+eeNl1VdVaK/jT+3z67UL6PsI+D0+UyOl8r1VStstT2lTcvv+onpxBV6vVz5vW9H2UBZFkeQoS1T34i2xQ1kE+h0CjYtqVP7WcuWfNiEkMdVS3Kjix342da7S92xrFGPNImARsAhYBCwC/RUBS2D11ztr19XrCLR8cJXWlM7SzRnJurTyULWsXKG00y7Up88u1fSzx8vd3KT7Lj5b039/oYZtNanX52cHtAgEI1D1YaGplUJRYNPpZ/11gS2AAQj4/X4VriyV/J0QVH6/omOjlJOXZXGzCFgELAKbhAA1rYofna+4oW3KqmBzVzSr5PEFSts1T8nbZtk6eJuEsj3JImARsAhYBPoSApbA6kt3y841fBHwedX8/LGal5yqD1LTdPBjdcqYNk1FKTupqaFVOx00RItnfa03771NZ99yn6Jj48J3LXZm/R4BNkW0Vq/+ssRE9aPTu6fWFYqkjz/+WPn5+Ro9evQ6OFZWVur9999XeXm5dt99d40fP77DMZBC8+bNM9dISkrSPvvso9zcXEVErGXWfvrpJ7399tuKimpr/56VlaU999zTjBl43IZuIvXonnvuOW2//fYaMWLEhg5f5/fMtWhlmVJT0kKey+8bmxqUk5+50de2J1gELAIWARBwr2lS0UPzVPD7reVK7thllLqFkFvJ2w8w6itrFgGLgEXAItB/EGh1e4Rf3Zmh8I+J2TK7T1sCq/98zu1KNiMCfnedmp84QM8Nm6TE9PEads6jGnnr7Xrrf1HaflqBhm2doXcevlvpOXna8cDDNuNM7dAWAal21hpVvb/KFATurkK/dXV1evLJJzVz5kz95S9/0V577dUBan7/pz/9yfwcsoljL7/8chUUrFUVLFy4UHfffbeOPvpoQ3Lx/W233aahQ4e2X+v111/Xyy+/rFNOOcX8bPXq1WbMSy+9VDvuuGOXby8E03fffachQ4YoOzu7y+c5B3YXgVVSUqKBAwdu9Pj2BIuARaD/I1D7bZlaCuuVfejwDov1NnpU+sxCxRUkK32vfNsdtv9/FOwKLQIWgS0MgcKVZYrwRSoghtsBAbenRUNG5G9hqLQt1xJYW+Rtt4vubgT8DWVqeupA3TBia+3ZsrUy/v6khjz4vGbeuULHXLmdEtMi9cz1V+voy/+m6NjuUbt09xrs9bYMBNyljSp+cqHyTh7XbcorkLv99tu1fPly1dbW6thjj12HwHrnnXf0xhtv6IYbblBra6sWLVpkiBvILMeeeeYZpaena7/99hME0RlnnKHjjjtOe++9dwcC69NPPzXXcQxS68MPP9T1118vt9utDz74wBBbqKu22WYbxcTEaP78+eK8+Ph4o+waMGCAXnjhBW233XaGIHN+D6GFUmzq1KlasWKFWU99fb0gmvjZ8OFtG0mHwEpOStGypavU3NTSPp/4hHgNG16wQQVWTU2NrrnmGh1++OHabbfdNkpBtmV8Wu0qLQJbMAJ+qfD+ucqcNkRxg5PWAuH3q+rjIqPOyvntyC0YILt0i0DfRgA/4vvvv9djjz2m//73v+sspqWlRY8//rjwcVClX3LJJdp669AdzPG//vnPf+quu+4KCUpjY6MZ4+CDD17nGszjq6++MgHDpqYmHX/88cYviQxqNsVx+Ec33XSTLr744k0K/vXkHfN4PHrqqaeMb4efOWHCBP3+9783Ph5zLy0t1X333WeCl/iFu+66q2bMmKGMjAz98Y9/NMeOHNn2TL322muN33fnnXca34wA66233mowCqX2/+yzz0wGAX5rd1nJ6nIlJiR16htWVVdq0LAts3atJbC661Nmr7NFI+CrXq76187U2fHVOr90f6V8OE+RF92ub99apWOvmqzy1cv0xcvP6rALLtuicbKL37wIQF4VPfSzMvcfrORtsru15hVkTGJioq666ipDQAUrsFBT4Qy4XC41NDRo8ODBOvvsszt9MeOMobK6//77O6T44cgFE1gQTBdeeKFuvvlm3XHHHcrLy9OoUaNMuiJE1UEHHWSIIpwylF0fffSR/vWvfxkH7JhjjjFO2kMPPaQTTjhBRUVFeuCBB8x1vvnmG+M4nnzyycYZevXVV83PSV90CKyUpFSVlpbL3eJuv7mxcbEakJO5QQKLOX/77bfGMb3yyisNiWXNImARsAiAQNPyWpW/ukx5QcXb634oV/WnRco9foxcaTYgZj8tFoG+iAB+y6OPPqr//e9/hkDB7wi2Rx55xATS8JWWLVumZ599Vv/+97/X8ZsItKFCh3zimsE2a9Ys40sRqMNPCibBli5dqnPPPVf/93//p7S0NENQQZYFq8Pxh1DP4w/hC22Ker0n79Wbb76pL774Qqeeeqqio6NFyQl+BrFXWFioq6++WieddJIJXLIGylVAPP3973/X888/b9aDv9jc3GzIrOrqakN4UaqCIOzKlSt1+umnh1xCTxJYVZU18nrWphK6oqOUlp6q6pqqDRJYzIvsBPDoT2YJrP50N+1aNhsCnmXv6+cvbtD10RW64ttdlDFotBZm7K/o6EjtetQIvXnvrRo4dKQm7Td9s83RDryFI+CXSp5ZqOiMOGXuN7hHwKCuFERMMIEF2YPThEoKJyo1NVVXXHGFcRSoXxVskGE4GiilDjnkkA6/DkVgobo655xzDEl12WWX6cwzz1RcXJyIOBK95GeMB0G18847KyUlxbzML7jgApOu+Nprr5maXAceeKBxAPk5zhsEFlE3InGQbjiIN954ozm/XYGVmKKFC5aqsaGpfZ5JyYkaNWbYBgksCLUFCxYYAm3KlCnGaYTgs2YRsAhs4Qj4/Sp+fKFisuOUuf+QdjA81S0qfGieBhw2QvHDUrZwkOzyLQJ9FwGCZZArkEkosFD3BBq+yHnnnac///nPSk5ONn4CCvVgH4EaSaiuIJ5QFgUrufBV8HEgyVCn41MFE1ioqlAP7bTTTkZxjpodf4cAYKAxT5ToBADxqYIJLHy3e+65R5988omZLz4XSi58MXy/9957z1yT8hGMyc9YE2MTKISIe/HFF41yimAoKqknnnjC1CtlfRB5+ErByjBnjg8//LDWrFmjs846SwkJCQYr5oLfB7FH8JFxAg2/EZ+V30FSMe7XX39tSlXwM86dPn26IffwEydPnmxOd1Rrt9xyi5nPDjvsYIK4p512miHFuCeUzsCPRZWF+v+tt95qJyrBZuzYsWZNBHipxYqvSuB2q622MmM4Cqy6uoaOBJbLpaTkBFVXV2nQ8M4VWBB4KMioJcv9xC/uL2YJrP5yJ+06NisC7o+u0RslH+v92Fj94cVMDbzwMr33nk+7Hz1Ciake3XfJOTr2L9dpwOBhm3WedvAtFwFqqdTNXqPcE8cqMqatAHp3W2cEFuMQXVy8eHF76h+ORkVFhZFtB9qPP/5oHLAjjzzSEFzBForAInpIVJIaW7ykIaWcaBNk0y677GIij0TmcJRwanBS+Prtb39rnCP+C5lGVA5lFo4jBBZKMEg5HDBIrX/84x/G4QpUYJWVVZjzcHZy89ocvq4UcSfy+uCDDxq1GI4Lzo81i4BFwCLQWt6kwgfnKf/0CSbo4Fj5m8sV4YpS5r6DLEgWAYtAP0Dg559/NmRHMIEFwXP++eebhjiQPiixxo0bpxNPPLHDqklBRJVOQAwlUahURMcnwX8JRWA5F/z8889N0A//BcIG0iWUXXTRRSEJLMgnSCzGgEiCCMM3e/fdd42aCT8LXwwVF37af/7zH6OOwnfCH8PvYr1/+9vfzDqrqqo0d+5c8z1kEIFNiDMIrlDGMRBKTokKCCLIp5ycHHP93/3ud+3kkHM+pSsYhwAm9VtRXLF2xoA4ZO6My5oD67ayPmfO+IQo0khV5DoEOlG0EazFv8S3g8ji3hAgBV+IScgzyl2gBMvMzDSEXWBmgkNglZVWBKn8Y5Q9IHODCiwnSIo/jE+Nv70xzY7C+c/LEljhfHfs3PoMAo1PHKC7VKakgVO1610LNeyhmXr1tjk6+ortNO/TD/Xlq8/rlBtuUURQPnmfWaCdaJ9GgNTBVbf/aMirhFGhu+Z1xwKDCSxe0tRw4KVMZBBHhugcThERPGTNRL6Qa/MzHBwcNogiHDUMsikw2gaBxcseRw3jXJwOnA0iV8i+cQqQvuNgkKKHY0CkEyKKGgmotUjfgzwihRAH0Pk5pBq/4/pdIbB+bRdCnKfDDjtMsbY2Xnd8BO01LAL9AoG6WWVqXFKrnKPW1rhqWlarsheWGFLLlRrTL9ZpF2ER2NIRWB+BBZmBohzVE74JwTUUNU6wC8USpA+kDmQLxAlf+FPBRAX+2IYILOdeQCoNGjTI1CDdGAILfwyfa86cOSZYCDnDfCGVIKECO09Tcwt/EMII1Rdr4Dh8PmqconyCEEOJBgGFLVmyxBB1oYKbjj+Iv8laUV5xPhhRoxVcQhFYTz/9tDkGZRbpgZA8qOH5QsUF4YRPyDWof+X4aqjn8d8gtzDW/cMPP5g14u9CYGHFxcWGnES9heoOhVagMVfWjr/JfLmPjjkE1pJFK9Tc1GyKuUdGRSk+Pk6Dh+arprZ6vSmEpFJCAIIpBBwEYn8xS2D1lztp17H5EPA0q/LmQboxN0cH51+snJlfK+7cG/Tz5yXa99Qxeuu+21UwZpy23nPfzTdHO/IWjQCbnqgElzKnDVan7Uy6AaFgAgvVEkQVjgHdBnEUIItwrCjezgueulhE26677jrjIOAEEIFzDGclsLsgBBbHcQwvfr74nroGqK2IlnEMESecKcghJOc4RmVlZSbShzME0YViCwILsozfM18cFupF8O8vv/xyvQqswhWlSktNN1Otr2tQQ0Nj+7wNeeduVmZ2mgbmb3yXw264HfYSFgGLQB9FgFqFdBeMH9qWJkjXwaKH5yltSq6St7XPkz56W+20LQLrINAZgYU/go8EeULKH+oiyBR8KmoyYZRloGg5zWcopQBxQtMbgnmk3AUTJZ0RWJAxEE6k+2HU+8QXo3xCKOtMgYVvhh9IKiL+GAos5gvxg6/FOvCNGAuFGbVH10dgEXhERQWZ5RjpcCiego1xIYIgqahxhTEWAVFwQ6VGHSz+7ZB7nIMSCjUYTX9QUUGmUSuVeXMcAVEIQYilP/zhD+3DklFAJgG+K0baIcTdxIkThZINjDCUc6xxjz32MAQcpCRGTTMUWlybeXMciq5Jkya1j+EQWNVVtfJ6PIa8Ss9IbZ//hoq4o0SDQCTt8aijjjLB5P5ilsDqL3fSrmOzIeAtma2yh3fV34aP0+U1pyqqxaOfU6YpuyBR46ZkmO6Dx111vaL6WQG9zQa4HXijEKBTVckzizTo7Im21XonyOF4UBuAyBkqMBwapO04F+s4SX6pvsXX5pgsLVReRpohxb79ZraJkAWb3xWj3adNUYSk+OgIRUfxnTWLgEXAIhAagZbSRpXNXNSheDuF2+vnlCt3xlgLm0WgdxHwSz6/T/J3MiyqEJtdsMn3JJjAQg2O6gjCBIUSZQwoMUA9TtL7CK4RnIN8CSw7QBocwUAnhZC6nShvHMVQKAUWZA2+D2QMZJlTLwniCZXTb37zG6NOYi74OY51RmDhO9HlkO7PlEiAoOKaqK1WrVpl1EeQKvhXBB0Jaq6PwGLO1KVCPe/UJ4XQgyALZTNnzjSkHqoogpGonxiLL86HPIKsIq2Q2mHMj3lB7EEkQayhciPoCuGGvfTSSybF00kr5DoQW/wXMoz50JQIogsfkqApOED+QeJxPygTgYrur3/9qyH1GJsgKiUvwImALoFaSm2gfnPqnAV3IQSPQKuqrtLg9dTA4lgwgPTrb2YJrP52R+16eh2B1tkPq/DDK3TPxL114qNS1tHH67VPMrTvKWMUHVuhz1+cqcMvurzX52UHtAj4mjxadeccpe+Rr5TJHYtxWnTWIoDTghOFw4PzSPQOJyeUlTX4dMMHteZX0fJqfGKDMuP8qq9vWOdwryK0xJ2man9bHYljtk3QTgX9JwJmP0MWAYtA9yNQ+sISRcZEKvvAYaZTrLehVcWPzlf2ocMVm2fr5HU/4vaK60Ogoa5Ra0qr5XKFrp3Z3Nyi4aMLLIm1iR8jCBRU444yBzKJf6MagqiimDgkFgQSdYyGDRtmSBVSCgPT0SCjqC1FyiFGiYSRI0ea1DUM8oOUN8gfroHh96DYGj58uFENUXycep4QUAcccIAJ6FH6AXILFb1j9957r/GRgoN8+FJ084NYoyg55An1sDiO9DjWCqEGgQQJ9MYbb5h1QgahZgID1sk8UV5BCFGAnutCkqLgouxEZx31WKPTiZDrQyBNmzbNqKL4N4p/CqmjxsdQru27776mwD3G2ikfAYEFJhiqKQrAQ6KhYEKdRudoaqYyL+bHuJStgCjieijhIKYwsIYMBBNUYJTAYP5gTM0srk02AIo5MGCNjoKsePUaJcZTwD9ChauLVVdX3+FThuouPTNF47Zam2q+iR/DPneaJbD63C2zEw43BFreuVg/lH+vz3MmafcrPlL6NXfq3f95ddzVk/XZCw8oIzdfkw/o2Ekt3NZg59M/Eaj9pkxVnxVp8PnbKCJyI5U/fsnv9cnvI/xq3B+5y5ragrAk4lvrdQRi0mIVldy/WiH3Ooh2QItAGCPgqXNr9Z1zNHDGGMXlJxnVS9nLS+X3+pVzxAhDaPWWkcL07LPPasaMGR3UF8741HNBHcHmj01bZwWf2VizyaP+Sqguq2z+Zs+ebZQgTu3DwDUyDzaDFIdm88pGMdDY5LMJJE3G2fjxe45H4cFmtLMagwQsIAzYLHfFqKtIajkqk1BGzUfWyga9MzyC5w5xQAoXG2bIhs7OY52QEnQvC6yT05V5cy5zp64RG3yUNcEpZs512NxzfWcetdX1amn0mro7oaykpExDR+V1SnB1ZX72GItAVxFAvcRXsEFQdUZsdfXa4XBcWaNPby9qMVPx1VbqNwOilBgfq9mz5qyzbvzx6ug0RQ5pe37tPiRGQ9J6pklTOGATOAdLYIXbHbHz6VsIeFvV/OyRetzVpKS60Rr36I9yn3evVi5168CzR+j+S/9g1Ff5o9sKUluzCPQmAnSxyp4+VDEDE7o8rKfGrcZF1WoprDeElc/jU0RUhIleRcREKireZQmsLqPZvQem7DCgvSZO917ZXs0iYBEIBwQa5lep6sPVKjhzohQZIXdZo0qeWqi8k8f3WuF2CCVIHVq7U7Pw7bffXmdjSDoT9WL2339/ow7hizScUAQVpAvKEFQlwUQSygsUDRxDfRnUGoEG8YLygSYddGJDPUF6EN87hkqEujf8DAWDMwdSl0gp4vqdET6QRxBOpPV0xajbQ6HmvfbaK+ThpFuRUkS6UWcEkXMiNY1QXqAyQa2ycuVKffTRRyaFiJSkYIMcQ91y6KGHbnTHWlQ0pClRlBsFyLbbbmvUKcGGogMFD3NwCmd3B4FFOhsK5/7SAa0rnxV7TM8gQJ0pOkoHW15enukA2Nc/Y6UQWD875Sj8GhDdpBSX16SMBptPESp0J6rV30Za7TE8RkPSXT0DfJhd1RJYYXZD7HT6FgL+pko1Pb6frsjL096fx2t0eZqWbX+B8kamKSFlpSngfvat9ys6NnTkqm+t1s62LyFQP69S9T+Wa+DRozcctUdk1epV1cdFqv6kUNFZ8UreJltJEzM6tHDvS+u3c7UIWAQsAn0NgbIXlxiSOnlSW6H28jdXmGdw6k5tXbh6w0pLS41aihSi999/3yh2ApUNEFx06kJ1xRfECiQXqiNUVIH2448/mhowEDuQWMEEFiQTxaJJzeH8YAILIg3yhS5epBBRZ4ZjAmvgQGBRBBkC6OabbzZpUxBjHIeqiW5ipPyQPoRijPmz0c3OzjbEFYQU9WhQP1FI+YMPPjBKJf7Nukl9glCiVhHFpKnhw/mot0gV4nxSkSC1INwcAgvSjI32/PnzTYFoUoYCa0WhOqNoM+lSkDsYNYxYG2lPYAb5xhxQfLExh6CjsQnrARvq/bDeXXfd1RyHUo00JlKbIPIgGEk1o1MvaVzUUvrpp5/MGKQ00alt6dKlRpE1ZswYQzJyT7j/Z5xxhpmTQ2CVr6lSdVVN++1lLUOHDzLFxdenwEItQ+oUXdaonRRYS6k3Ps/dNgaqdGoQoUo3CnW/PPWt8lS3yFPT9uVt8srv9snf6pPP7ZW3ySN/i1dRSVY53W33wV6oxxBI2X6AkrbK7LHrd+eFLYHVnWjaa21xCPhqVqj0+WN0QXy9znorX6P3PlGfF47V9LPG6YuXH1aUy6V9TmxzAqxZBHoLAWqmrLh5tnKPGa34EesWIg+ch6fWrepPitS8ql7xw1OUNCFDsbmJJvpvzSJgEbAIWAR6BwE6DRbeP1d5J42VKzXWKGBLn12k3BPGypXSe7XzqAMDeUInLmrfUKcmkMCCpIHggFSBPCLFD1VQYPoeiEEY0ckLwgUS6pFHHlmHwIJcgVihkxfnBxNYDvKQPa+88opJC7zhhhs6dNNiDhRMhiCC2GFuEEeQVcwVcgslGQQaBZYhXCBumNsTTzxhjqUYM+QVBBBpio6qDOIHDFB37bbbbiZdkq5vkGI33nijGY+aNTQCQeFEFzcILH5PwW3IPdROkGL77LOP+XLMUWDRUY25kz6J0gyCh7RLlGeQaKiiUF5Btp144omGUIM4gxSiMDRqOLqrUSAaHLgu5CPEGemArA3ijzWwFvA755xzjBIL7EifpKYSpBzHUAMINRwkGuYQWM1NLR1qPUZGRCo7J1OVlVXrJbBIQ4V4gxgl/fH888/vEyoZn9un1jWNailpVGtls1CnQ1L5WnyKiJQioiIVGRulyHi+XEadHhkdKUVFtqnW8aEiIwzRFcHPrVkEwhyBuPxExeR0PWNjcy7HElibE307dp9HwFv4tT57+Xe6Kz5OF71QoJE3Paz3Xi7XoeeP0VPXXanDLvizUrNt8ew+f6P72AJqvixR7fflGvT7iZ3P3C81LKgy6SnJ22Ur+8ChtkthH7vPdroWAYtA/0GAQELTyjoNPHa02eBTuD22IFEZ+wzaLIukLlMoAguCBCIIogdyhONQZFFvKrCoM527UPZQswpSJxSBxcJQtUC8rI/Aohg0JA1EGGopCig75hBYpBbedtttJsWQ9EYINuYAgUXLesinrKwso066/fbbzbEQQSjMGB+ijS9IJEg81FGcy7UoWA2hw1r5N/NAnYbqCpLqhRdeEDXBzjvvvHYCCzUY14GwgRhCsRSc3kRaEEQU5By1tTgOBRRpUii+OBcjdZI0QwggcAYD7s3o0aMNwQX+dFqDpINQY76QcKQoQtJBtnE+KYT8DAILIox7idIKNRrEGWs59dRTTQpkcAphcVGZykrK23GnqPvYCSMNqbU+Bdb9999v0lExPh8QgIEpoJvlwx1qUJ/fkE2o12tnlal5aa2pAxqdGW+Ce3FDUhQ/NNmq0sPmhtmJbMkIWAJrS777du2/GgH3J9frycVPakHcUM14KV7Rl9yhkqV12mqPeL39wF065sq//+ox7AUsAhuFgN+vwvvnmY5VMQPaut8Fm7e+VeVvrTBRxYw98pUwOs3WtdookDftYFJOGuubOj2ZlI+ExPgNp3xu2vD2LIuARSBMEfC1eLX6rjnKmDrYpG63FDWo9LnFyj99gqISNk9Nk84ILEiOo47sB7pOAAAgAElEQVQ6ypBXKIT4N8QIxBFKIgySCAURRBMEC8omjqGLWnA9qvURWCiuKD5OmhwG6UK6IsSUQwY5BBakEiqkyy+/3Pye+UFA8YVCCqKK9DrIGhRYEEwOgYXSijWhsgokV5g/tb3OOussk3bnEFgQQhBNKNUgesAAtRekkpNCCHnFmKTsUQMK0o+US8dQlaG0Iv0P41oPPPCAScNkjvwbMskxsIBEo2D96aefbhRTEHKO8TvWTbriEUccYTq+0eENwgi1WTCBhXqM+ZHmyVhcj/nR2S4UgeVuaVVTU7Pp4ZKWnqrY2DZV4IaKuIMxBB9KN7CE1AwX81S1qGlFrZqW1cpd2mTSA2PyEhRXkGyUKNGZcZvt7y9cMLLzsAiEIwKWwArHu2Ln1GcQaHj8AN3kXqAxkQdqp0VJ+nnwCRo1OVtVxZ+otcWtXY48ps+sxU60fyDQuLBa1Z8XK+/kzhsHFD3ys/w+KW/GGCtt78XbXlpcrtZm08cxpLndLRo8Itd2c+rFe2KHsgiEAwJsoEufX6whF08yqUcEGGKy4pUyefMpuDsjsMALdRKkEiltpKnR6e+hhx5q7xAIYeO0qoeAoig4JAq1ooILva+PwKI+FqlzkDbUbILgodYVtaIccwgsam3dc889Jr0QMgmVEmQWBBbECaojaltBqEEAQfY4BBa/R4lEHS5INo4hdRLSCiIumMBCGcU5FJ+HSINUgySDMILAYs4Qavyb+lnUmQIf0vMcg9SDBGNtDqlHqiB4UWvr5ZdfNoQc+HAd0gW57nPPPWcUVyeddJKZL+QZx5KeCPHUVQKLcVGcUScMnFFJcT64hSKwfk0XQkiyzMxMk2bZmbVWt6i1vFnR2fGKTu25lFm/xyeaJVR/WqSm5bWKzk5Q6o45Spk0QFFJm4csDodnkJ2DRaAvIWAJrL50t+xcwwoBf2ujym/O13UDs3XSwunKGb2j3pk3QgeePVav3nGlpp50poZM2Dqs5mwn078R8DV7tfLW2crcb7CSt20rAhxodLQqfY4iwcnK3G+IIlzdW+eKTQO1LnD6J02atM74RJyJ+KJEomAsnaMCjXQKHHhqd7DJwTl3Ivod1uF2m6K0RMx32GGHXr2pbKBQHYwaNap9XNbDfNjU0AmnM1tTUqm4mM47MRGNz8pNswRWr95RO5hFYPMjUPG/lYqMdSl99zyhCil+aoFyZ/Ru7atgFIIJLJREpAFSQwnSiMLqkEWod3gOU3uK5/vq1asNQeQULKcWVmAKIQQMyiEnDTCYwOJ5SpoeKYWode69916jJoqPjzfvDsgcyBDHAgksal1BVJFOx7kOgfXee+8ZQgoVktNlERUVJBtkGOowakHdd999Js0NAo45UguK6wUTWNTs4nzeWcyF40nHg3BirYwPKURqIKovMKKgemDqIwotSC3SBVFDcS0wQ8WFquuWW24xOPMzfsccwBgVGtcjNY/6WXxPmibzpNZVKAILgguSDTIPko9jIQL5OamVdFdEfQUJRqF1iD4UbIxdV9OgpvpWJSTEy93iVl1dfYePSlVVtQbmZ2lg/ro+R1f+shoX16jqo9WGuI1KjpGntkXySumOOrwrF1nPMdQERdHYvLJOzYUN8ru9plFN3KAkxQ9Jlisjrq1elTWLQJggUFZcLq83dLCT51dGVqri4mPDZLabZxqWwNo8uNtR+wEC3lWfa9UT++q2iXvplAeiFHHEOfrm51Tte3KGnr/pGp3xn7sVn5zcD1Zql9BXEKj7oVxrXlmqoX+e3FZMNMhW/Pd7pUzOUfqued2epkbBX5znr776ykTag9uMU6yXaD2RXZxjpw4HhWsdg7jCoWeDNHfuXJ199tlmQxTc7htHnAK51OwgAh7Y2amn7xXReCL0gQWLidaTHkJNFTZIPUlgsdGgkxdqBGsWAYtA/0Bg5e0/Kvf4MYpOjzV1CV2pMcqaPnSzLo6NEsSJ0zWus38zSecYp9V78DOZTnSBx6BaCqwHxXmBPwv8tzMu44SqI8XPHfKH7xnLOc75efA1+LczR45nbIcoMp3mAsYKnotzbmfXDJwL33Occ/1QN9Q5Jnh9odYdjOP65upgAe7OtVhj4NpDzc/5Wa2nzYdobmySp6pe6empWrJ4uVatLFxnGVx35/13U4Sp8yWlxXSNEKJ5zOp75ih3xhgljslo80v8UuPiahU/Nl/5Z0w0RNPGGsG8+rkVbbWslteZNMCUHQYqZccBbeouJmnNIhCmCKxaWqq0tNANmPj7bG5tVE7u2vThMF1Gj07LElg9Cq+9eH9GwP3lfzX7y+v17qBpmn7rMlUefZOi0rPlivlGVSXFOuici/vz8u3awg0Bn18lTy9S0jZZppNgoFHrquSJBYofmarMaUN6JNpIjQuInM8++8zU3wgmsOhyRLoGpBRkFiQMtUaIIDsGgcU1KEJLy22i51w3kMAiXeKUU04xxWxJvyAlgy5PRMDpdkShX6L0jE9tEQrj0mocgzg75phjjAM/c+ZME9XHqB0CIcUcIeKIpBP5JhoNkUZxXsaApEJpxZydjQQR8YKCAvM7yDmK6JLaAZFF1yW6URHhRz3gKLAqK6pVXVXbvm42N0OG5ZvW7+tTYKFs+Oijj8x6WDdRd2sWAYtA30ag/qcK1XxVqrwTx8pd3qTiJxao4IwJphOhNYvA5kLg0jdqTKmByAi/JiTVa0JGhGpqas37taNFaKUnSQua297lo3NcOnOHrgVYyl5cYroep+687rus6qNCtRTWK+fo0aarX7v5/PK2eOVr8oguyt46tzy1reZ7T1WzPA0eRfj9pn5VbEGy4gZTzyq+R/yeX3tvwBK/hZps+DPBhkKQwBgEIQptFHw0Jwhln3/+uVHlEdQLZSjuCA6SIoqP1cFHbG0159LsAN8MHwclIApLx/DN8HHwtfB/OA61XnCA8ddisrnPhyCiyQNpvDvuuOMmTQesyDBARUna9MYaBFZ6elrI08DeEljib/yXUMPGomuPtwhsyQj4/Wp+4Wg9vOZTJTTurm0+btGS3a7RDtPz9cXLt2nK4UerYMz4LRkhu/ZeRsBb71bJk4uUf+aEdUammxUR/exDhvVY5JFXCV8olOhOFUxg4RDQphyHjPRACtU6jlnwhEmVIF0FJdcuu+zS4dc//PBDO7FFuiJkE/VAILxIrYDYgXyiPgnfU1j40ksvNSkaF198sUnzo5gsaS2owCCsnKK/pMeQgkItFcYnTYQ6IaR6QLxRI4S6JjgkpJbQhcpxGOn6xHpo3Y7zB1FG+gidpC677DKzBofAqqqsUXVVTfu6iFoPHgKB1bheAgvSDUIMBwuCDEfVKrF6+Q/NDmcR6E4EfH6tunOOkrfNUtqueap4a4XpBpsxtfs7D1L7x9vgkae+VTTy8Na0KCI2qjtXY6/VjxDw+tamMHVFr+QcbdRmXTlBUtXHhSo4c6IiQ30OfX4tu/Fbo8zytfrkqW6Rp6bFfHb9zM0vQ2zF5CYoblCySQeMHZwsV1I0rFubwq+L89gctw01NWmaEEvDhg0z6auBhj9FmiqBKoJidOKEgCJ1N1jh6NSh49hQBNZrr71mroXfBQkVTGBRo+zPf/6zqa/GMQTdaCBA/TbHUL5DkhHEA1v8qb333tsE7/qTQRDh31HXb1MbDnQHgZWQkKCi1SUdoE1JTVZaesoGCSw+W9zTwJTl/nSPWIslsPrbHbXr6RUE/C01anr8AF2S0KD9PsnR+MHT9V3rbjronOF6+ZYbdPxfbzRSamsWgV5BwC+VPLNIcQWJZhPkGBsWaqu0FDea6D4bo540iJXOCCwiUdQEIcqIGglHbPz48SYdL9hwxlAbcS2OQ/3kGPVQiBJCEEE+4fTxhaqLFEbainNdFFUorigezO+4xsSJE03tLSKQ1DdBOcWcIaIgwSCtMCKPtCBnLIrm4tCQ/ohTh3PopBCimKIOF6QSzhwEFoQS9Vtoy47DiBPoKKUcAqu6ula11XXta6L+RkFBrho3QGA988wzhkDDeaTGGOtdX82tnrzX9toWAYvAr0egpbBBxY/PV8E5W0sen4oena/cE8aaVMJNNTb77uIGtRQ3yF3WZFRdqFVMil5MlCJjItuad0RIkdGWwNpUnO15vx4BiqgPOndrRcaE+BxCYN3wrWIGJkqkszZ75WvxyNfiMwNHxkUZ4io6K07RqbGKSokxfzeu9NiwVFsFo0WgjfpnFPDHr4CYCjSUTgTcqFe2ZMkSo3iCkAhWPKFKJ+hG7VGCZnwfbNQfxTfBhzjkkEPWIbAYC6U59dCYE/Xi8L+oB+cYQT98IQrxQ9BQ6w012AEHHNB+DL4ZdUJJW2V9+GD4U/hq+H48g1CSUW8NH4y54svwe2rJ4Rvi/zn+HHMm+Mn88NUYm/p6kGyhDMU8QcW0tDQz1qeffmqU9TQroD4dfiCZAAQ/8UlfffVVo2onwMmaUPajiiPoiB/JfymLQWYB+PM7unQGlopgTOZIwBOcn376aeMr4mcyxuLFi01gk7WxdnBbtGiR8RPBBLyZA/6cQ0yiwEpOStLqVcUdlpmalqKU1KT1Elg0geAe0CTi2GOPNWti7v3NLIHV3+6oXU+vIOCrWalVT+2nSxOks17KVt4JN2llRYpGTm7Q4u++1rTT/tAr87CDWARAgPbPK2+brSF/3K7Dxqd21hqVvbhYQy6cZOT0PW3rI7BQMlEUGGUU9thjj5kUOyKQjqF+wvEgGomhjJo8eXIHkotIZGBdFlIGUVnR/pwi8pBQOCVOu3McMCKXFKslCnnmmWcapRaKqkBijBc8CivUYfwOAgsnABVXIIFFjS6k4UQwcXggsyDJWAcEFuosCuWi+qJYLtFKxxwCq6R4jSorqsyPhw0frITEePP9hoq4sz4UaDhLtIAPLGTc0/fWXt8iYBHofgRQoHjrWpV14FBT+yoy3qUBhw7fJOUIypSab0pV83Wp/C1eJY7PUOLodMUNTVZknEsRxC9+UaW0C1NsLaDuv6n2il1GoPjJBUrbJVfxQ1PWOadhQVunQJoZmOAbCUP8H6kXhJb7F6K2sF7NkLXFjWqtalZUvEsJo9OUtFWWEkaldUw/7PLMeu9AVNp0xAwmsCBxzjvvPKHEoWwCynEU5wTHAo0GBfg4Bx54oCFOQhFYHI+iC/8rFIHlXI9rQXKhOsfP6EzhTdAPX4jgYSCZRG1SAoP4Y/hHkG8EAVGP0/gGdT5EGH4RjRPwuSCcnOYMzB1iC7KJ0g6QP/hmKNzx+yDD8AGnTJmyzg3CTyOwiXpqjz32MKQT/ltnBBZBS8gk1gBxN2vWLOPzsW5HgUWnVXw7mjJwzAcffKDXX3/dBC0DawPi66F4amxsNEFXfDMnhZBzCXSSTcAYEJYEWhmH+4aqDfV/YKqhSSFMS1NtbceGCbFxMabJz/pSCPF9Ieww/FkyDSjr0d/MElj97Y7a9fQKAt6ib/T28wdpZlyWLnpvjKoO+aeyCpK05PvHNGqHnTR+yh69Mg87iEUAh67i7RXyNns14LDh7YDQeafokZ+Vue9g48T1hgUTWDgUEEGohFBUQezguOAIIGMnMkSUi+gizg1RqI8//tg4KZBbHI+KCeUUBnlD5AwVktOKHbKKzoUonfieiCUGqUT0zBmHSCCOBOPhBBJtxLnie8gtzidytiECC0cTRwNHCQeJc3G6cMacIu44cZBx1E/A8XKsO7oQEl2DyGI91iwCFoG+i4Df61fh/XM14IgRQi1LqnfeaeMVk9VGaHfFuEbz8loRrKDLbGx+oiGt4oenGoWKNYtAOCPQMK9Sa15bpoHHjVFcwdpi7dS+KnlyoTL3H6KkrdZ2nNzQWlAaojin62BLSYPp6BkRE6mYAQmKy09SbEGiotNiTYphuFhnBFZVVZVR8UCyUI8JRRM1p/BpnNqhEDxXXXWVCbpFR0cbJRfEDAqhwPpVrLUrBJaDCYSMk0oXiBNqL/wsfB+IHRRRgeZ0tuQ4yBwCiqiQ+ELFjv/lGMomxoFAIniHv8dx+GCQQKwZ3w4llaM0x/859NBDDUEVbHTjhPSiphgkGuQQai3+HUqBBSnI2Ph0GMFQ/Ed8TNZGCiGYQYJRTxV1FKQcZBtzRVHlWE1NjQlmokijS2pgCiGEndN0iAyAww8/3KjyUZXhHzJniMpAg8CCuFy2eIX5cXRMtOIT4pWUlKDEpIT1EliU6sD35b8EaSE8qTfb38wSWP3tjtr19AoCrV/fqptn3SCvf3v9btVW+jTqCO1+VL5eueNPJn0wM6+gV+ZhB7EI+Ft9WnXXHNOtJyq+bcPCpmb13XOUMCLVOIC9ZcEEFuQQqXU4A0SckEpDSJGfT50raicsXbrUOF84DbzUedGjzqKNOJEjlE44MDgSOHM4LsiiHUNuzr+RX+MIoq7CAUJpRUQSuTi1tHAwkK3joOCI4OhxLE4I0bapU6caSfeGCCyijjgWFFKngyLOAf8O7EKI48CcKOg+dOjaTmJlxRWKj00062lt9WjF8lUmouyYu9Wt+IRYjR4/TETarFkELAL9F4H6H8tV+22ZSRmseG+VeS5kTltbc2ZDK2+tbNGal5aYzXr6PoOUMilLkbGuTVJvbWgs+3uLQI8g4Per+usyVb6zQonjMkxBdz7PDfMrlXXgMKVMyt70zzN1OT1++Vq8alxSo9pvS9W8sk6xOYlK2WGAUWiFA8nbGYEFCQSxgS+DEh0fxiGwUKpjThAN8grVFIQRSh98msAGOcYvXI8CiyLyqK/wozBIKtRCKKECDcLHqQ+KkijYINNofkPwziHA8L/wrSB4SBdkHoyFgglfb30EFoon1o5yyzHW6qifAscnsDd9+nQzFr4Z6YwEKanrNWPGDJMSuf3225uUQMbF78QfJTsAn5BAKsQUaihIKAgs1kjAFMW7Q1hxbDA5SLMhlGv4gijpUI2hwCK4SRB3woQJ5hyuzTgcgzKMumILFy7UU0891YFkgsBKTU1RQ32jWSJrjotvSwPcUBF3/HACtODAekLdpx75W+7li1oCq5cBt8P1DwSqnj5E19R9qb3n7qThg47QrMoJ2nrPOv3wwWs64W//VpTL1T8WalcR9gjUzV6jxoXVyvndqPa5Vn9WrLpZZco/fYJJSbHWewhQywHHj5oHOG4REZGaOadJFQ1etTY3a+u4Go3NT9PKFYVaU1a+zsQafFEqyZqg6Lg4DctwadrouHAKFvcekHYki0A/RsDn9mr1XXOUtkueUcgWPTxPuSeO61LtK1QmpAnSvZBNf8rkAXKlWMK7H39c+v3SqNdW/1OlaEbjSopR4rh0xeYnbTp51Qlinhq3IbOaltWotbzZqLPiByebsWIGJrSps3rZggksVEaQRDTCeeutt0xdK8gfiA+CfxRbR42OgicwlQ7FVmAKIalpKG9Ig8NCEVgQYAQXUQyh3CIQRwofNbAgzlB6U0uJ2luoylFIQexQMwpD6eWUfODf+DwQJhA2+EHMAeU7gco333zTqI34no7TkE0bIrBIxSPFkLRHao4SFIRkQ8kUyiCrqEO1//77m86OEGWshZQ/lFMEQCHFUEUxLwg6CtWjVEL9z/eQXajeUP5DQqEGY51jx441WOTm5hryi2tzHkQjqZmQRdTcotYrmQYovMALBRjBCRRljM2aSLHkGH5P5gH3HPwdC+xC6PP65A+IdLYRWE3KK+hcVQWZCZHVH2tfORhZAquXH1R2uL6PgN/TohX/SdXf8gp0/lPDVfmb38uTP1YtTW8od8RoTd4/dIvbvr9yu4JwQ4C0kxU3fa/sQ4eZjQzma/Ro1Z0/Kv+siXIl201Nb98zJPE4baQTUmwVgdWnK92qc7dJrWIjfUrzNcrv9XRQXxkHU1JDdKIa/dHm2JzESE0aGG0JrN6+iXY8i0API0DQoeyFJRpy8SSVPrfIFFcnlZCGDuszNuDFj/5sjidoYTbc4ZMN1cOo2ctbBLoJgV9qaFFqoW52uepmrZGn3q3YAQlK2i7bKL9CdkbspuEDL4OKnPpWpMZhlFvg39RNgoRASYTiG1U66iaUQJAzKLIOOuig9ktB8ECwQPZg1GoilW6bbbYx/4bAonYVaXyQMBhKKxrekApICh6BN1IVIZo4FxU9pBEEGnNCTRTYARFSBoWUY8wJwgiyCNILIo7rZ2dnG9IKggeSCCIJ0sZZJwQa50GgcX3myXEQRyja3333XbNulFgQbKbDZAgDLwgsulIzf+pMUeaBtXMNSlNQ7B4yEJxQbTEHVFDME4UYKnxSIVFHcQxkHfhzXzgG0gpF1BNPPGHWwf1hbuDAuilFQfdC7hH3FFUW5Bhjci9QgUFkQS4yHueg4KIYvqOWWrG4WJmZGYYc+/67OfJ62xoXOAahNW7iCA0Z3jGFswc+nmF7SUtghe2tsRMLVwQ8y97T7JnT9Wzi9jp6ZpSW7nGttjlslL586Rb99tKrFZ+ybjHKcF2LnVffRqB+ToUq3lmhQeduY5wtovrFj8xX/IhUZey9CWmsfgmHjnbVrVVtX77GVlNfCxk+HYCs9R0EIDCz9h9iVXh955bZmW4hCJQ9v1ixg5JNylTxY/OVf+p4owDpzPw+v1HaVr67Solj05W+R35bJ0FrFgGLwK9HwOdXS2mjmpbVqmV1vdwVzYqKjZIrLVaxeYly0eUwyaWoxGjz1Vvk1q9fWP+7Aio0iKhgo+A8pJdj1AcjBRMCKzjlLxxR+ffnDVpe3mqmNtRVo+nD41RfW6OS4jJDwAWaWy595R+q5qi2Oly3H5K2xcUxLIEVjp9iO6ewRqDlg6v05Lx71LxomHZcPUpLJv9Rux2VrC9eekZH/PHKsJ67nVz/QYA6VyVPL1TK5Bwljmmrh1D7dakq3l2lwRdtazrxdNWoo1X3U4Vqvyo1LdeJbbGZihucrOiMuDanLcFlvpz26129tj1uMyIQGSFXUnRb5zFrFgGLQFgggEp29f1zlX/aeENIkeadud/6a19RpL3irRVGpUWHtQ0ptcJioXYSFoG+iIDPL1+rT/hFrZXNalhQrZbCOrlLGuVr8SnCFaGopBhDbkWnxZj0XUNwpcQoMj5KkTFRioiOUmR0hDk2IirKqiS78XNALVVUU8FGoXfqnjrqrPKKcqNsOu3U00LWzOrGKXXLpVDpe7xtRBUuW6y8RpffkbpqG8qvCLn9a5t0pMf/ymBGhPrcO8USWN3ysbMX2WIQ8Lao8amDdWnTXO35WrqGTTpPtSP2krf1fWUNHqJJUw/YYqCwC928CLSWN6ns5aXKP22CmQgKqaKH5pnCp3GD1nbz6WyWOGeNi6rVML/KdOvBCUscm2HOjc6Ma2tbbc0iYBGwCFgEug8Bv19lLy5RRFSkUqfkmiBE3snj5UpuSxsONlS11Z8UqX5elXKOGGG6DFqzCFgENgMCfslT51ZrRbP5Qq3ubfQYlTrEFn+rlHVALSmf3zTTMf/12xjSZrhbdsiNQIB3Ucr2fatToSWwNuIG20MtAv66Ii15aqr+4m3UWTPT1XDwPRqyXbY+nnmtfnvZ1coZMtyCZBHoFQSKH1+g+GEpStulrZbBmteXG2cp++BhGxy/aXmt1ryyzLSSJhUlYViKUQFERFmlzgbBswdYBCwCFoFNRKClpFGr7/5Jg86eqDWvLlPc0GRlTh3cqUKDOlmoYgceO9rWNNxEzO1pFoGeRsAhrZDLmHQvZDNGOvPL99a16ulbYK//KxAgYN3XgtaWwPoVN9yeuuUh4Cv+Xs+9eIA+qk/RGbN30vdDztXwrddo2Zx3NePaf8kVbYtmb3mfit5fcfOqehU+OFeDz9lG0VlxpqtOyWPzVfCHrRUzoC0nPpS1FDao6pMieaqalbRttlK2zzZyd2sWAYuARcAi0PMIVLyz0ig04ockm5TA/LO2MqnZwYayY82LS8yxA44coaiE0Aqtnp+xHcEiYBGwCFgELALhhYAlsMLrftjZhDkCzd/coX/MuloDv83XhMhjtSpnL8UlvquRdK/Yd3qYz95Or18g4POb1EFqLGQfONRscEgdTJ40wBBSIc0v1XxVqupPC5Wxz2AljE3bqBpZ/QI3uwiLgEXAIrAZEaCuTtG9c5V70liVPLFAGVMHmYYboazo4Z8VlehS9iHDbcHozXjP7NAWAYuARcAiEH4IWAIr/O6JnVEYI1D8xFRd0/iTZswcoZIRZytjykStnv+ojvnLdYpNsLUpwvjW9ZupeetaVfTIz6YAMGl/tbPKVPdDufJPGR9yjUTy6VToLmtS1vShiivYcH2sfgOWXYhFwCJgEQgDBAg0rHllqVG8RiZEq3l5rXKPH7NOJ0FvfatKZy5SZKJLAw4docg4q5ANg9tnp2ARsAhYBCwCYYSAJbDC6GbYqYQ3Av6mcs27bageiCjQUc9na8GOV2mrg6K1ZsVc7X/GueE9eTu7foNA5fur5Wv2GDKqtapFq26drYHHjVHCqLZOhIFG15ziJxeY39HlyrZ+7jcfA7sQi4BFoA8h0LS8TiVPLtCAw4ar5NnFKjhtvGKDgwl+vwrvn6uYnERlTrPP6z50e+1ULQIWAYuARaAXEbAEVi+CbYfq2wh45j2nZ945UZU/DdO2lbuofLc/qKXpOW2/30EaNXnnvr04O/s+gYCnxq1Vd/yovJPGKjY30RQBJi2F7lQUZG83v9S8ut78PmlChtJ2zbMF2vvEHbaTtAhYBLqKgM/nU21NA1WTOz0lOSVRUa7Nr2IqeWaR4oenqHFhteIHJyttt7wOc+bZXvLUQlPDMOugYYqMsV1gu/o5sMdZBCwCFgGLwJaFgCWwtqz7bVe7qQj4/Wp+5WRdUfyOdn85XRpzlRK3HaRF3z6gGdf+WymZWZt6ZXueRaBrCPil8ndWylvrVs6RI0wb59LnlijvtHHrFGKv/7HctGofcORIJU3M7Nr17VEWAYuARaAPIdDU2Kzy4iljs1YAACAASURBVBolJIZuXNHc3KK0rCQlJnXe2KI3lkuKd+23ZYobnKTmlXXKPYFn9lqCyu/2qfCBuYbgSt9rkCWveuOm2DEsAhYBi4BFoM8iYAmsPnvr7MR7EwF/Y7mWPT1NV9VV6Iy3Rmjp1tcpIeVrJaa26uBzL+nNqdixtlAETO2rJ+Yr74SxRk1V+MA8pe6c26Fwu9/rV8O8SpFmmH3IMMUPS9lC0bLL7usIeL1e/fTTT7rtttt03XXXaeDAgR2W1NLSoieeeEJffvmlUOLss88+Ouqoo+RyrdvRbd68efr973+vRx99VEOGDFkHmrq6Oj3zzDNqbm7WOeeco4iIjj3PGxoa9Morr+jbb79VfX29YmJitN9+++mAAw4IOV44Y88ab7zxRp133nnKzFxLbl911VVauXKlWV9NTY3y8/PNMq688kqNHj16g0vyeDx66KGHdOCBByovb626qKmpyWAaFRWlyMg20qa1tVU77LCDTj31VLndbh155JHKzc1tH4Pz//a3v+nSSy9VWVmZoqPbOvDFx8fruOOO0+67727+3djQrNqKBiUlh67r19jYpKTUWCVsRgKrtbxJq++dq+Rts1T7XZnyThynuCHJ7Wt1lzaqZOYixQ9NUdYBQ/pcK/MNfjDsARYBi4BFoJcQaGl2q7SovP1dEzws76mhIwt6aTZ2mJ5EwBJYPYmuvXa/QcBX+qOefnGaFixL15RVR6po8D5qdT+nQ867UAOHjew367QLCV8EKt9bZToOZk4drMr3V6lxUbXyT5vQoQhw9efF4rj8U8crNt8Waw/fu2lntiEE7rjjDn3wwQfy+/3i+2AC6+uvv9b7779viClIkgsuuEA33HCDhg8f3uHSkCXXXnutPvroIz3++OPrEFjl5eW6/PLLtWbNGu29996G2AkmsB555BGVlJQYwiU5OVmlpaXmnJNPPtkQWX3JKisrdfzxx+uxxx5TVtZa5TAkHUQgJN27776rP//5z2ZZCQkJhnzakEEo/vGPfzS4OOQX53BvLrroIkOaQUBhYA12//rXvzRq1ChdccUVuv7669uHgOhKTEw0BNYf/vCH9nl+//33+uc//6mnn37a3AeHwHJFR6uyvEqBiYQpKUkmdbArBBbkJMRbV9a5IRyCf09B9ujMeNXPKTddBwMVsS0ljSZtMHWngUrdcYAlrzYWXHu8RWATEeB5tXTpUo0bNy7kFaqrq/X5558bYn3bbbdd553gnMT76bvvvtN2223XKWmybNkyZWdnKympc59s8eLFhswfPz50Mx7G4/k3ZswY80zuLSOIRECBgNKiRYs0ZcqUjRqaZ/0PP/xgAkzB79XOLgT233zzjXkfb+wzuaqiRk31rUpMDI3RyhWrtdX2Gw7IbNQi7cGbBQFLYG0W2O2gfQ2B+q9u0bXfX6fdXhms+oEXKGHrTLlbvtHvLrumry3FzrcPIkAHQVJMIKYUEaHSZxYq98RxcqXGmNWgvKr7sVzVnxQqd8ZYRWfE9cFV2ilbBNYigLpqzz33NCTG//3f/61DYN10002aOHGiBgwYYEguiJCUlI6KQwiZp556yvz+/vvvF0RUsAJr+fLlxjGHaOH7YAKLa5x55pmGYGEsxzgnLS3NEC0PP/yw2VzgoO+111767W9/a8ZasmSJ2ChVVFTokEMO0YIFC/Tzzz+bDdG5555r5obqqbCw0GwQfve732nq1KlmHvfee68heljTKaecogkTJhiF2U477WSui4HNyJEj9dVXX+nJJ58UJBQE3tlnn23WfOKJJxqCjU0Imx6Iov/973+68847tccee5h/B2OGou2tt97SNddcYwit119/3Xzx/VZbbWVIvKqqKqOMY12xsbFmfmw6/vGPfxi1FuTXsGHDzBwdAuu///1vO4EFGXjCCScYMor7hvrr5ptvXufjz/r4cnBnw8m9ADc2hA6BhSKuqrLGrNmx5NRkHpXrJbBQm0Fs3n333Tr22GN19NFHb/SGqbO/WYIN9XMqVP1pkfytPsUNTlb2ocPbaxGilC1/Y7lSd81T2o45HWsY2geBRcAi0CMI8IwoLi42atza2toOxLkzIOQJ75edd97ZPK8hUo455ph15sMzm+t88cUXJsjiKEWdA1G7zp492xD1//nPf9qficEXIohy/vnna5dddjFq1WBDEQvJ/vzzz5tnVXAwp0eA+uWiPJd5pxF8ILBBQGFjjPcuz+tbb73VvMO6YvPnz9dll11mVNFxcRvny0JguZt8nRJYK5at1ITtRq13GtxX3uWOYrgrc7bH9D4ClsDqfcztiH0QgUWPTNF9RUU69NXhWrrL1YpIfFeTp03T2N/s1gdXY6fclxDwe3wqfXaxXJlxytgj33SpIh0lbZdf0nT8UvUXxar8YLXyT0Z5ldiXlmfnahHoFAHIH8iRUAQWjj6/33fffQ0JRJQblU8gIUME/YUXXjCEikMqhUohZAKvvfaaicgHE1hOWiGOPKqfYHvwwQe1atUqowAjgg4ZAxHCtYg8kwoH2cX5bGLY5HAsZA8bAoifM844QyijUDCx2eF3qKTY0MydO9eQSQ888IDOOussQ0qRuvjyyy8btRQbH86HlEItAPk0Z84csxGC8GL87bff3qjPINzYjHANrsfxwVHxQALrxx9/NBszxkc9cM899yg9Pd1AAAl14YUXavXq1ebrN7/5jS655BJDOIGx4/w7KYRsHJ2fkcbBphDSiHvIvSkoWJvWwc8h8sBj0qRJ5p5CoH344YdmDVdffbW5VjuBFRurmuraDrXcKd7OmOtTYPG5Oe200wwhx0YJco7PW1eVAuv7062bvUblry9XZGK0YjLilHPUSEXGu8TzvOqDQjUsrDKEVhxK2Y4Zq/aJYBGwCPQQAgQFIO4HDx4snkOocwMNxe5f//pX84wcO3asSadGCXzYYYetMyPeL6+++qoh6f/973+vQ2DxzP3444/N8ySQ1A++0H333ScUxQQ2QhFYKFhTU1NFKjxEUDCBxbORd01RUZF5XqKYIiiyYsUKo5jiOThr1iyzHoIOPHMh70nP3m233Uxwg/cnwQjOg9jbddddzb8dAgtVLSoxSD1s4cKF5mvrrbc2WHI95oCql+cpgRbGYT0QV7zfwDpYUfXZZ59p6NChRrULkcc8c3JyzDMeAov3Je8k5sTY4ADuKNUyMjLMzwnQOMowh8Cqr2sQX4GWm5+jNaVrNkhg8b5mbahyrYUvApbACt97Y2cWJgj4Sufopcd3VMmsQRruOUpVW/1G1aUv6vhr/mmLt4fJPerP02haWqOKt1cq//QJhqRqXFKj/FPGKzIuyiivSE2p+ugX5VXmxkWr+jNudm19H4ENEViO2gkHHkf5pJNOanewGxsbjRN8+umnmzpVkBOogEj1CEVQdEZgQUqhaOJcnGfHuD4bAyLFBx10kPbff3/zKwgfzoHswqmH5IHMInIOOYVBmrChwREfMWKE2SxgF198sSF2brnlFqOoQmXEJguCh03V3//+d0MmsWnA8Ye0QpHExgBFFetyNiaQeagGIPBw9N98800zD8ihUCmEzroCCSxqWhH5d1Jo2PxAYDEfrs/82DBxH1BJdZZCCAasF9KJ+bDh41g2SNQfY4MGqecYxBobIX4OeUX0n3NR3EFYOkoHh8BSRKRWrSg0KdakDcbERCsjM03RMdHrJbDYrP3pT38yijY2fY4i7Nf+5bhLGlX08M+Kzo43HRLzTh5n0gM91S3mWd1S1KABR4xQTE7vpQL92jXZ8y0C/QEB3ik8uyGmUE/xjgg0np/8jGckylaePQcffHCHdGuO5xmGSouABzUaSV8PVmBBEFFnkGcltfscVaozHu+PTz/9VJ988olR8vKeCkVgQS7xTCTtGkIpmMAiHZw0RtSsvFN4T/Csf+6558x7B0URgRXeYxBEBD8GDRpknqmsg/nzXIaogzzi/QXRBA68Y3i+Q+yhKuY9CG4QbjyPIY947/L85JmOAhdCi2ALyl3S/Alq8G4jgBNYHxEcWD/zYX7gCcnGO4X3Be9A3ne8J8ARAg/lL6ThO++8YwI9f/nLX3TooYe2k00OgeVp9aqhobHDvc3KTldxUYkmTOpcgQUOfEHW8f454ogj1rmv/eHvoD+swRJY/eEu2jX0KAItb1+kK+c+rr1fy1XZVv9SS+QXGrndIO0947RuidT26OTtxfs0Ar5mr1bdPUeZ+xQoOj1Opc8vVt4p4+VKiREFX6h5xYYo76RxVnnVp++0nXwoBNZHYOHI4yxPnz7dnAoRQZqeQwZRpwrCCAIEEojUOdLpIIJC1dXojMDi2iiLIMCc+iRsPO666y6zuUHthFKKQuQYJAhEF5uRDRFYkFA4+5BWXJMNBuotNjyQR0Sl2WAcfvjhxvnHyQ8msNhAobJCHeUUsGdjwhcKrF9DYBEBZ0MEto56inQ9VAyOsSHiGDYf4NRZDSwnhZCNEBsjCC+ILTDqagph8GfEIbBi4+LUUN9gFFgxsTFK/KUr4YaKuPO5YC0QgMyFzdOvtcbFNSp5aoHk9St+eKqyDx8uV3KM6ERY8c5KJY5OV8a+gxSVsG6zgV87tj3fImAR6BoCpGmHIrBQ9KDCpGYTKlBUqKS0QZQ4RsCEZy6qH8gdnnmhCCzneIiWUAQWyl3UxTz/eNY6gZjO3oUQRaEILAgiamMxBkEGyDCey50RWBBVjmIMsstJb4fId571vCfBgQBGIIEFEQVRRUo97zlSLGfOnGkIJ4IQvLcImPDuhgBCucZ7F5IMYipY1cT7gLmgHuNdyPUhjwgMQZgRcKHOJe95FLModXlX8g5BBcy6ee/wXsIcAqu8rFLlayo7QDl63AhVVlSsl8CCIGNcDNIMAo8gk7XwQ8ASWOF3T+yMwggBug9+/8y+emRxlQ6Yc4CWDztIfu8rOuHvNygpPSOMZmqn0hUEPB6vFs1bLvlD52zgQBQMzVFq+rqpQl25fnceg5qAFBT3miZlHzJcxQ/NVca+Q0z6oKmv8mOFKj9arTxqXlnlVXdCb68VJggEE1jUeGLjAXGFzJ/6GiisIKsgcJw0P/4dWMyd83CcnRpYOMvmbz0gbW19BBZEEzWpIJiIUOO0U6ML55/0OTYfONmMg8NL5z6i6hsisKi/RIog57JJgmxiDTjREDxsoJwIPT8nrSWYwELxBQYQX6QKEpkmLRGVVygCC2UBX2yqqGkVTOYFKrDYILCh4VpE/cGPoseQWaSLMC7HgB1YcKwzD6LmWKgaWKwZpQGkFjW8fg2BVVPRoORfuhCysQmsg8XYiSmxSkxOWG+wCRILNVmwUbuqYWG16maVydvQalIAk7fKUuKEDEXGdixszzO5aUmtSp5cIF+rVynbDTCdYFFbVX1cJLoRpu8zSMlbre38GCZ/ZnYaFoEtDoHOCCye2dR54nlPWjHvIAgiUvcc49nOM5rnHc8b3j08w1GqhgqOdEZgobSFJCHF7qWXXjLX4rnIOybYmEdnBBZr4VoQYjxPeU9BAnVGYJHOR0AGI32RZx/XR13rNCW5/fbbzfsEFVoggcV5rJu0P8cI5JDKDqlHSj2BFMgwfkZqOe8C5sbzGEVYMEaQbRBXjpI4sAYWNcQgxSDm6FwLzgSlOAas+B3El2MOgeWKcpnAFRYbGyNXdFvAYMXyleslsKgzBm7USUPdjIrZ1sIKz8eDJbDC877YWYUJAq2rPtM/3zpKI17KUmv6hXIPrNaI7TK013Enh8kMNzwNcrnZ7IXK5+alRZ4+mxHSUojgBHc44UVNMWU2O6GMly4ReFQIPWW84KirQrSGTd7GFpJ05gWBVVZYpZSU0AQVUmuPv0WZ2W11XjanNa+uV9nzizXw+DGqeGOFXOmxytp/iCkCzIao+sti5Z1glVeb8x7ZsXsWAf7eIal4LhHthSwi2gtxQpSZ6Dg1RvgesgenmigtpA/nOMZzjkg3DikbBtRYOLfUknIMR5mUj1BdBXku8BzlOUfKG9cgZQ/HmecfRX9JqSCFhJoikDzMi/pZ06ZNMyofUikgdzDqT/E8fuONN8wxGCmHrIFUEYgwiCjWwr9RA7C5YFOBGov0D+bz3nvvGYceEonvqSECKceYzItnN1FxByvWh9qLdEJIPDDid4HGxoP3AakTGO8Oak+x+WBdu+++uyH/IN8oSk9tLNL6mBPFjMGCFEOnEyHpKKSCMJYTJWduRPbZGHAumwZItWCj2yCR9+BC885xzc0tKllVoaysNlJozo8/y9PatmnBmGekK0KDh+ZqyPCNa51OejYdBH3NHqXtmqeoxGihiK3+rEh+t085x45uV1FR16ri3VWmYDvEVtaBw+RKjlb1Z8Xy1LQodeeBShyb0d50o2f/auzVLQIWgQ0h0BmBxbsCggZCBZ+T5z1qH8h2x3hGQsJjvEd4ftGAg2e6o4INHL8zAov3FGQSxvsBg5QhFTDYOiOweMbxnOe9wPOVYAKpdqQ9Qu7QYIT3F2oo1oUvDQGHYpaUcwIPPOtJBSSlmnVjBBWorYi/HUhgoVTlGK7LO4lgCe8iAi7g5BBYBHXAmPR6DBxREaNWI43fMd51jIU6izRIFMykTKLAQuUMwQYRxnFcm+AV721IOgg21gMp5rwjHAILksx5F8TGxSq6iwQW7ybIP3wN3vGWvNrQX9Lm+70lsDYf9nbkPoDAivcv0V2fPKlpb26rZTv/Xs2eF3XkH69UzrDwl5TywiN6wouKDVBgjRHnxcvv2CSy4UBRwEvESYVxbg8vVDZebFxCGS9QIlTOC7Enbitz58VJXRQcB6eQ5MaO5RBYSUmJcrtbO5yO44Euy6P1E1hsyNjMBdbD2dh5bOh4T12rih6cazZOrVUtoqZK7owx8rm9qvm6VHXflin3pHGKTm9TOVizCFgE+h4COOTUBHHqZ/W9FWyeGb+5qFlfLHfTf1Xp9YWaPnGAGmprtXz5qnUm5FWkFrgGy52QrrT4SJ2yfYLS4yM3OPGaL0tU/WWJCs6YYMgrxyCrih+dr7ghyYaYal5RpzWvLFNrTYtcidFKnJgpd0mDvPWtShifoYw9ChSVaNMFNwi4PaADAqVF5WoNIGM7/JLmBCmJSsvo2HXVQth1BIIJLLrIEgiAHHn77bcFec5zGUUq/iYEFcQ/fl9gsBb/2UkhxIeEcIGgmTx5cvtkggksjsHndhpicCBkjZNCiNqIzn0oX1E3YetTYPEegfShcDrBBlRPfNHpFiILf5VgCepgCB8IL5RFkDXgQHrfs88+awgvfk59MIg10iZR+AYSWCiBSfkjWMKegKAFgQ3IHogo5oIRWIE0C0y7Z49AMAe8UPPOmDHDBIUg3ByVG3hyDxibwAepjCjSSBUkqMOaSIEEI66DIpnaYo6irLqyVs0NHuHjg6e7xU21jXYrXF2k0ROGKT4h1paA6fqfS1geaQmssLwtdlLhgICvrkhvPLitKt9LUnTcearOaVT2YJ8Ov+hyRbnC3yElisBLiUg4ef08+AONaDx5+9RbQeLLMby0AqXBHO8QWDvuuKORORPZ4KXOi4moOS80okcotMiLJyqPSoIXEfnryKqJAFF4kYgThR+JalB4kfoxdCzhJQhxhnqAgpREP8g7J2WG83jZIY3mJYd6ggKRRGRQjzEec4Fkw4Hgxc+xRKLYHFL4ks5VmENgJSTEq7amvgMe8Qnxiol2rZfAYk28bHmp87JGddDdRpSfyH9kgkvRabGq/6nCkFWupGizUWpaVafc48YoZkCbY2PNImAR6JsIoGJiE4P61VrXEVhd61Vpnc+cEBHhV2ZUiyLlM3UBg82jSFV6IfojFOuSRmW5FBu1/rZ/pA4WPTpf6bvnK2HU2sL9zrUpxr763p8UER2l1oomcXxEZIRi8xKVMCZdCaPTTFo3ta/6sqEu4Z3NRjWUEgFVBYo7NvWdpU+xfjbfdMyECAiVYsUxqA0ZIzCtNxg70rvwDYJrlTFP/pYILmGMgT+CerGrxrudjX5naj+uwzEUAO/J4JUz35++X9iuYgxeg9/vU0VVhUaNXZvG1dV12uPaEOBeozjCV8RIO8enJPUc4gNiBx+ZzwPHoG5CeYWvHPgZhQTCB4VgwVAFQ7gEFlp3mkQ4ZBQKV44nRdExPv8Yql7mRpo67wVH0cWcuDZkkZOe7ZzL5545OOpgFFz8LZG2xxr5vPI3wbXpUotaGH+Zv0sUTfjHKKYgpajrhb/Oz1k7OKA4Znyuha/N3wGqK/YMXJvx+BtErcvfHd+j6OLYwLlyff5+uTZ+NL+n2Dx+OnWzIM64BveAcXmmgAVjoVTmOHxuzmV/AJ7csyXLlitvxDjzjAeL5pJyDRiQpdKSNVq2dEWH7rRer0ex8XEau+O2io6NMUHrzHjbBrYvPhcsgdUX71o/mzMPRoiFzowHscvVsd5Ej0Pg96vhg8t1wxcPaOd3J2nFuHPl9bys467+q7IK1uZb9/g8umEAyCacx2ACi4gNUR9etDihvJRROTmpH87QDoGFXJeijkSliC5BfkEObbPNNkaGTN0XXlC0KKagIy8uIjrktRP1gdRCCszLE1kyBTRxOomyQAYRRUE+TJ47L27qCjAnSCyuRzSKFym1CCjOTOSFzR9EGOkovOhJLWINvACRVENw8UKFSMMcAismOlrzf17SAd38goGmc9X6Ugh5KbNmjDky31C1Uzb1tlFHpfqjQjUsqlbalFxVfVio3BPHmkhR2atL5W/xGvIqIqj+yqaOZ8+zCPQKAn6/vI0eo0ppWlYrd3FDm7KwvFmRMRtWw/TKHO0gFgEHAZ9frZXNGn7tziZlO9hQwq669Qe515D+6VdUvEuJW2cpcWSqolJiFRkXqchYl6LiosyzGnKrrxmbUza1KFHY9AZ3WCN1iHc9JBHpqLxnSesJRXShnEB9QTAqePPtpOfiJ5BmSkHpUMbGFCULKa+kQgUam1j8BGoJYRzLptepF9cV7FGg4/tQLiGU4aeSOsXGH3VLT9vc2Ys0ZEhoXxM/oWRNyQYJLIiEUCltPT13e/3wRYAgNP449aoCjb91/uZJG+xr1uzx69SnK9vjF7tmVGvPIbEqLS5Ti7tlneWs8iTp47pcef0RmjwkVn/cLamvLdnOF7rSH1jx0kJiEdgMCJQWV6i5sa1tayhrqK/XmInDe3Vm/voSvfLidC35X6Oym85RTXatJk0doV2OOKZX59Edg3VGYOHg4ZAhH0Z1RV48P6PDSKAFElhIdikWCaGCw4dThwrLSSGk8CUkDyQU5hSAJDqEworIKY8cHFC+ILBwhCGe+Dl1aIi4EA1Dxg25hoQYUoovDMUX5/ICpiYMjjXEGTnzqMkg0iC4iCoR6UIdhpQZcwis2JhYrV5V1GGdmVkZSk5J7DKB5dSkcSJvv/Ze4ZRWfVyo2m/KFD8sRS2F9co5epQiIiNV9txixQ1PUfoe+WazZM0i0FcQ8NS6VfnBapNqZTb6Y9MVkxNv1CsRrkhFuPre5r6vYG/nuWkIoKhC7TrgyBGKze1YI4wropJd8Z9ZItX7/9m7DvCoirZ7kk3vvRd67x0bKEVBRRBEiihVQSkqNhQUuyjw2RAVBESQJtKRKk2a0nsJJZDee9n6/2eWGzYhgQRSNsnM8+RJsnvvzDvn3t2dPXPe8yrb+1TM2gU6iXRDXbYWunS1IK5ULjaw8XOEXZAT7Gu5VIr3b6qi+XlLdQVT9gsjsLh5Q0UEP/+p3KZymmlDpqoSYkUVCDe4aIpMc+SCBNaqVasEsUVlU1EEFtcG3ADjRhvXBKw6ZtpIYPHzn+sBpfELOdcQjJPqFhI5XCtQ9cH1AtUs7IuKFipXuCFHHx+mdlHlER4eLtZDVN9wfUT1CdcRtGMggcX+FMKMm4FUiPCHm248j0QbN7kUQo/zJ5bcqOMGG9dQXOtwQ49rX6Z/mZKEJLCCggJx/Vr+dQrPCwkJLBaBRbU651twU/LuXhXmd5Y+VwddugZ6jR4GnR7QG2CgEFOtg16rh+UdlJbmN6Oyjyg6JgapKalo0MCoGFNaZFSU8IwqijQt+8jufgS9AYjLMipy2biisDLc9EIs2LPWQgWDOApCjetud/drEEsna/G+L1v5I1BsAkubm4H1K7egy6CnYWp/rNOqseb/Pyg69h4Mf0dL8N1j+8aVOB5hiQkv9gXfP5IiL2Dukr/xZM8OWLd+S96btLOHL7p3fwwh/sZqbklxEdixbSvCY1Pg6V8LXTrfj0BfL1jku7f0OLhjI/49dRUPPzEATWp6FRs1TU4mVi5bjMjETIgNMUsV2nZ8GB3bNoXKIhPzZvyE7kNeQpDPrQuWYg8CYNPSb+HVtDfaNL6zUuf65WM4fC4bvXve3NG5dmof/j6ShOeefwJhBzcg3roeHmyV39RPk5uFY//tw95DJ2Bl44yODz2MxvVqwNpSj7XLV6ProP75rlNJ4gdysPi7n9DmqRdQP8SYelWwabJSceFCJBq0aITzBzcj06Up2jYMKNkwN46OvBYHBzvHPJO9gp2Eh19D4xa3mhre1WDFPCnx7HJ8uWEiOq1tjYimzwK2u/DspI/g6u1TzB7M57CiCCwu6rijSaUTGxdYNDpmfrtpMyWwSCZxJ5WNi1FK+rnzqRBYJLdISJkavpO0ItlF43VFes3dVv5PAosLMpJb3DUlMcX/6SFAEov9F0ZgkXgjScVUPjaOSeKNZBz7Vkq2U2pM3wKFlMtTYNnYIC4mQZzr7OIEdw9jmsidTNy58OVCmotu+nLRtJPx3mujYXD6kXgk74qAfW03QV75DaqP7CupSNp+HR5dguHSuvLde/eKizy/8iLAL/nppxKRvCNCpFN59QiFrZ+jcXUpm0TAzBFI3HwNudGZ8B9cHxbWN1WCfK9O+vu6ILHcOwchadt1ZJyIFwpDNoc6bvB8LFSQtNoMDXKvZSDnejpyrqULQ3cbbweRlshUQytXEv6JjAAAIABJREFUWyOhZWavCRIr9APiZzKV2/TPMSVX+DgrXHJtwJQgklIsHECPStNGYoleNvS0oTcOrQAKElhMFSIRRvsBfu4XpsDiGFRzU1VNUqrgJltBAosba1SOsXoofXZIoHFNwhQqjsG1A5XjtFmgnxHH5DqDm15DhgwR6Us8nylMtDlg9TfGyPUJz6dKi+sAbqYxtYybZlSmk4gjNlSKsw8WKCApRyKJvkfsj9XTqOJiwQZiQzyYkkXCjMcoKYwksEKCgxETE58PU5XKEt4+noiJK1qBxevHtR03E5ViDqaV2sz8pQf6zPH1JYgptQ7adDXUsdmikidJY5JWugy1IKmEupGvHwsL48vI9LVUCZWP5n5tZHz5EXCo7Qrvp8pXYCGvgRGBYhBYBsSEX8DcH7/Flp0R+GP/Gph+jTLoNfju00lwafMihvaoB51GjY+mTMC/e85j1qqNqOVjh382LMTsrWl4rU8gJn69FdPfHSYGjwo7hl9W7sWsn39GkFsu3h7/Btp1741gXw+kxF7G8jW78fGX0xDgedOo0JBzDSOGvouhE15D0yZN4O5cfBPjnPQkTBw7Ad2Hj0eAA6DOSccfvy/BQwPfQp+HQvHvrgOo37oDXJ3uzbfg87HdUOuJaXj2sZuVFoq64Y7uW43l21Lw+fs3q9od3jAP3/wRjjnzP8SeRR/ist3DeLFffgPtVXM/xolEV3Tr1B4GTSbWLp6Lpj1HY/AT9+PU8VOo27I5bmZXl/R2T8eoR/tg0Ge/4uHWgYWefHHXYny/LhbTp7+OpGvnobbzR7DP3RlK3pHAukPZUwaYkZ4ORyen0iETNFnYuvABxKzLhtpxItKsj+Lh555Aiy6PlUr/Jb0a93p8UQQW881JPDGtj75UJHqolFKUTsq4JSGwmMrHfhQCiR5cXDjSqJG7jCS7aOLIMWkkaUpgcQHHVELuonJRRzKKiy8uPgsqsJgaQBKLC1nGTqUVq5XxHO7E3onAYtl1HXfsyGNbWuTtkt6JwOLxJMvoaUDD+8LSJaikyrmegdyIdLGooprqdl/cuYvIL0HpxxNgaaeCjbc9nJp5IeN4gliMeXQNhq2fg+hLNolAZUCAqiv6uFFh5f5gAOxquBSailUZ5iJjrJ4I6DI1iFl6EVYuNnB/OBA2nvbQpuUi5Z9oZJ5NQsCwRoKY5fs9U2KpMsw4mQjujqpsVbCv7So2HuiLxUbiiwSWJjFHkFlZYanCO4vP8/2enxOFpStWJPpcDxRGYHFjqXfv3oL8YQo/FUdUOnMDS/H5Ydzc5CLBQ0U21UuFEVgCG4NBbDwVRmBR1URyicQSP29NN6QUbEhg8XnFz4if40qKI32MuK5Ys2aNUEUpdgT07SHRw/9ZPY2pVVRGccONSjLOhVXoODeeT3KJ6w2aRdMPlCowrmOoOKPym0ovElm0VyBBpYzL9Qvj54Yd0y35ODcN+TgJMY5FlRRNxLmWYVVPNhJYVE6dOHYm3y1A5VfT5g1uS2Dx+tB0nGOx0WCbhFZBdVxF3lsFxyYBzA27nKvpyGURhHSNII7pI8cKzPT8JOFraaOChY0lLK0thYqXv8HkDRJYN4gspW9+/sgmEShrBMztfbus52su/d+RwNLlpuOLT6ZC5xSKK0dPY9rSn/IRWJzIjj9/xMJ/gXlfjEZO2mVM/249HBO2on7vz/B4p6aY//UHcGg1EnUMh/DmT0fw9+8fi/nrs2Pw9OMD8OY3y9DB+zJGTF2JmV99Co8bpNQfc6Yh8MEX0LGBnzhenZmEFcvmYckfe9Dlyecw9qU+iLlyFlu27YbO2hVdu3VHjSBvhJ/YjbAkLa5duIS2D/dAs3pGo2UjgfU6Xv9+AWoLGZkBy3/8EP9lNsJXEx/Hgplz0G3IKAR42OD44f34578T8Auui0e7PowD29agZsdeqONtJMw2r/kT7R/rBVVOMnZt2Yjw+By07tgZrZvVw/QJ3fMIrKirZ7Fp2x7oVfbo9HAX1KkRkG+D4G4JrHdHdMEjI79G145NRTxJkYcw/49zePWV/li3Yg26DOyHsL1bkW5bA8lX/sW1BDV6PdkT0ef/xeHz0ej86FNoVNsPG377CqEdBqNp3QAkRV3GojVH8PKYRzFGIbBa+eH8qaPYs/8/aGCLBzp3RaiXDeZ8/Sn2nE7DK29MQpDqGjJdmqB1fT/ERV7Gli3bka6xQqcuj6JBrUAkxZzHifOpsMi+jtNX4nBf5x5o0bAGVDd2RxQC69rVSGEqqDQuVmrVDhXKoMYti1JgGZCSEI/1K5dAFXIf+nZrDZt7+dAyGJB6YAZmbJqJhkcHIdY7ALVbGvDk2PxpdebyAi5OHCxNy9Q8ekixcSeUiyQucJjiR9UVTSe54GNaXkETdxJCXKxyx1LxnmI/3G3kwpH9kAhzcHAQi1RK8ZmCwIUrH+PCif+zHy4gKdenaonj0rydf7PULhedXBTSt4ELWsbE+4FkFcel+omphlRzsU/urnKRyUUe1Vo8l+aQPJ5EFhdrXICzvDwXj2xGBVaS2OXU6w1IS03LSwERz+v10Bs0CK4ZUKQi8HaY67O1iF97GdlX02Ht4wDoDFAnZMO5uRc8HgkSJdbzmsEAdVwO4lZdQk54GiwdreFQ100syLIupsClnS/cHwjIt/tfnOstj5EIVCQC2VfTEL34PJwauIudSfkloiKvhhz7XhCg1xVTCbMupOR9TpCM9X26NiwLpHJTNRK/7grSDscJYsrG10F4vnl0C4FrW59CXwfquGykHYlD5qlEWNio4NLWV6TYsmCHqerrXuZwL+cWRWCR+KFqmgQM1UgkmegzSRJKKUhABReJIZI8TA8kyUN1N0mhgr5MRRFYfJykFze3SFBx44hWB/TaoiJKaVyHcBzlc57rDJo8UzXGNQY3xbhuYKNymmSTQuZwvUCFFQk4ElgkmfgYj+emG9dF9L2k2orrDhJYTCEkOcc1KtMOmSZJ0orrIBaY4TqEc+ZY3ABkf6YKNo5NEmvDhg2i6AzHIY6Mw5TACgkJRm6u0ZiezZam0xYWYn10OwUWx+amHw2yuQ7jWqug8f293Bf3fK6BabhakWrLtVLGiQShduTaxy7URRRBoLJF5XSz+uc9jyk7kAhIBKoUAncksJgSmJ6ZAxvk4o2xkzFlwaxbCKzEsH3o9/J3WLn2d1z662uc1DRBJ/8IrDrtiDdGP4Opk97ChKnTcPnAGrw2YyM+mGD0EYq8dBz/nMvFl5++BTdbNT5/7w1cS7dGw0ZN0aJ5c7Rt2xL2Nje/8Ok1Obhwaic+mbYUL7/5LrxtYvDVrLUYNKQfrNRJWLz4T4x99yOknViB7zdEYvyLAxBcoyYCvN3FeEYCazzu7z8MvnYAUwq3bP4bz02Ygla1LTDowafxzvyVyDm/Aiv2JeLZvj1xct8mHLjmisdbGbDtqje+fac/DOo4THr/O3z0yVTMnPoa/Js/hkYhrvh11tfoNnwyzvzxhiCwejQ2YPKXC9Gr3wA4IB2//roII978Eu0aGgk5trslsPaun4efVuxBrTr10aJFK7Tr2BEBXs7Q5mbhvfHv4PWfvsGen6dhye4ojBszCOkX/8ZvWy5j2KjhsMu8gg9mLsWy1Wswe3wHtBk6D706NwFTF4e/swwb13+CV24QWDX1/2H6ov0Y/NyzUCdewYzZSzFj9jyEbZ2N5f8k4/2P3sL57T8i2e9JPFRLj6mf/YC+g4fAzUaNFYsWo9+Y9+BleQmTP1qMoS+NgKt1OmZ9+zOmTP8ZDWp4G++DGymEiQlJUOdq8rChNNg/wFd4DxSdQqjBlGF9sfdqCtKzgJHj38HIgT3yyLGSvlo1KVfw4+qn4bjWH1lOPWHlfhrPTpoCd7+7S48s6fhlcTwXM1xwUtbORr8KLryUynxKyVwuxLjwK9hIIJLw4c4qd/SU6io0fKRUn/1wkceytiS/2DevGWXxXGRSTUWllbOzszBdJ6nFdAGSZUr6nSKbV1IXGAeP5XhcUHKBzAUxx2a8SnUh/s1xWcGEcTAeHsfn2TcJMBJm0VpXJGfrodfpoUqORYvafoiPS8SZ0+dvmS8LWRlCG8PN05g++1DN4qk8qaTiF3cbL3u4PxwEK2fj4otmwAkbrorFmHevWmKXXZuqRvI/Ucg4Gi/STGhkrXKyEb+dWnjDuZknrD3uXkNZFveR7FMicCcEsq+lI27lJaG6ImlrDl/C7xSzfF4icFsEDAAVhdycoCG7lavNbU3ZU/ZFI2HtFaGmtQ10BFSWQpHl2SO0yPd09s0v8FRlZV1KFV/kmYro1MQT1l4V9zlQFIFFAoUECasTksji5z8JJqqqlQ0wWhTs3r1bQMvPYCqguInGdEKFpFFwvx2BxSqIJLDYuFHFFDyOyZRFZf1QmAeW0ndBAoskEze7uEGmzENRaJHAIvlEgowbfSzQwlRAqr2ZwsjzFAKL6Yc//vijWJNQhUbCjH0zbZDphFyXcNOO6xz2T9KMKZZKJWPiRNKMxxIrYseNQqYWslGBRS+utNT0vNvT1dVZ3Ht3IrB4AjcEaZ7PuDgnc2hMBcy6mIrsiylQJ2bD0loFu1Bn2AU7idcGFY1yw8McrpSMQSJg/gjcmcC6MYfcjOQiCSwY0vFSr14YPWMJVk17Dt3GzkHHpo54f/JsfPrZ23h/8if48JOPcXTPaoyfOhcd27DcJZAYEwVL11B8OHUKgrwcYNCpcWT/LmzdsQP/Hj4JW7dQfPXlZwgySU3TZ57HmPHfY9p332DLvCmwbDIA/TobVUjbl36Ji1Yd0dzqCPYm18Mbw3rkuwJGAmsMdO7BILGvzk5DTGIORr46Bd3ae2KwILCWYdH7fdF9/Fx07dAA6vR4bN1/Fq1qOaLfkCn4Y8taRP/9NXYn1MH451vg1Qmz8eXXn8HORoWYsONI1Ltj7bcjBIFleWExdkX5YNCTD4o49m2Yh0z/R/HBuGfy4iKBtWxbMr5435hWyVacFELxYX7tIjZv3oKde/5BdFwSXhj3Afp1bZGPwDqta4UPxnSHRnMRb09cipnfToEhNxqPPfQUpi3Zij8/6nZbAquOUxSuJqlQM8gL4ecO4cMvvsG0eVtgd3EJZm9Kwozpr2P7os8FgeWfug0n1S0xbmAnMY9jOxdj3Qk7DHjEFQv+vIZP3x8uHv/8zUHoPPhDdLzha6UQWFfCwpGZlZ2Hg8pShQaNayM6OuY2BJYa4554EPtjjFUMG7V7FD9//SHsbO7C6Nqgx6kdb+PA3A3QWryCDNW/6Dl6BBrdlz990/xf1uYXIeXxVEVxgcjFKBdqAwYMKDQFryyi/2JnOk5HGXcyHVUatHNOhsqgEQvBgi1ea4eTWV55FU0WDvIslkUJd+kTNl5F8Ljmt6SCkNyK+OEkvB6vgdzYTCRtjxBfiNgxq1VZu9nCqaU3XNv7VgqT37K4RrLPyo1AblQmIuecguejoXDtcHOTpnLPSkYvESg5AkwHT9wcDr7vOzXyEF4+moQc+A2uD2v322+IMNUw+3IaUvZHI/d6Omz9neDSzgd2Ic5QOViV6xf8ggQWFT1M4SPBw89xfqbT9Jwp/NwsYqocLQtoE0BVtZJiz00lEl5KCuGOHTvEhhPT8NkKElgkX1ipmMQLld9KK+hpqTxeEgJr/fr1WLlypYib6nSOzWqKtDugkopEHA3gSSo9+eSTwsCe6iWqsEhQ0YSd1ZipIuOcSKLNmDFDbNTxeW7e0SqBhvPcSKNqnPYGNGunWp1rIW60UTHGcZk2yc1FKr6Ygsg0QjbTKoTEQ7E8MOKlR3xCPGrXD72tUpxzK8qjk+sPqv/SDsWJdD0rTztR+Zj3a6lsPFBlpdFBn6VDzrU0pB2JF0pzKxdbODR0h0sbX9hUIDlb8le1PKMyIMDMCvrQ3XBEuyVkvibs7Iu3KV0Z5ludYywdAuv/S8r/+f0byHZrigVz12DxhuXwsrfA1EnvYeTQ+7BkSxremvAcjuxalS+FUKfJwbfvvwhdjd7o3sgS4Tm+eKJbR/FlkeTSkl++RoxtB7w9qnveNTIlsNZ89y78ug7Fo60biOf/3Tgb/yTURUeX0zipa4UX+xqJI6UVlkJ4atcfeO3LP/D7slmY0KMf3pn/O358rS8GfbQED7SscfNkvRqfvNIPTXpPxPrZH2HMV8vQ0i8Kr07+E9Onvw8bE5NPxQMr/b/vcCyjLnp2apHXj19QPbRsVifvC/Gp/7Zgzuqz+ObTCXnH7FrxLX7dmY2fZr2NXYV4YKmTr+KHX9fhhVEvw91RBYNei/MnD+LzH/7AL99+mo/AumR1H94e/hC0mkt49+1l+HLmuzDkxqDnQ73w+S0E1l4Mf2d5PgWWQ/wW/P7XaTRr1QIBbjb49oef8NnPGwslsNxj1iLG/VEMfby1mMuZw+uxZEsynn/SH0vWx+D9d54Tj3856QXc/8x7uL+VcVdIIbASEpKgVWvFDhNNKimXZru9ibse+zevw+btW3Ex1Q2fTZ2IUH+j4q6kLfniWiya/w7sLw1Cqt01dB74JFo/+kS5eg/RT0OXqYU+SwO9Wg+mMBhyaWapE/8zJY3HGKutGITRJVtlyMFmGmFiYpJQYlHtVdUsneh7ZV/DBe6dC/eNi10ZhvTDcbCwUgmDX1a3Ej9BTsLjqlQWjSW96eXxEoFSQIB+QdG/nYNLKx+4tPUp1/fMUghfdiERKHUEUvZGI2V/jFDVMiWK1QnT/o0VlQ35OXHHZjBAm6JGTlQmssNShEKLCjCH2m7CBL48CiJQZU3i5ZFHHhFkFBXRrN6n/M/qe/SIoqKqdevWIi2PyiQqrmhYrpAnVFYfOnQI9913n0iXO3v2rFBiM51QaeyXSmoWeiHBw+OpbjI1H6fimgQRPaNMG20Hjhw5IrypCjaSaSTiHnjgAfEUjyURFhUVJdYiJMgYPxVTJLTojUXlE20XeC7XKkyLZAogSS0qwFgxkBUaqariphwN7RkzCSymF5KcY5/EgJhQdUUzeOLHxzkmxyaxR6N1nst+qJZSMLtw+jK8vHxgY2ONC+cuITk5Jf+cdTr4B3qjaYv6t1UEFnafUQFOj0KqnpxbeIEVNElipR6MgaWdFXz71bnrwgKalFzhY8VUcnVslhiePm8kYOljRYW6XOvc8dUvD7hLBNJS0pEQmwY7u8JJqvi4BDRva+QMZKvcCJQagRV/bhPe+fQ36II7Y8Fno4S/1PyvP8H5yAS0f/QF9OnaCodJYP34HzbOf1+gxgqG304eBrumQ/FMCzWmzNmHj6e+C09XB+h1WqxfOgvJLp0wuv/NCn2mBNbJLbOxJyoArw7rAQuDFnO/eBs1uo+GV8LfOKVvhVFPF05gjZ3xI2oKn0QDTu5aicnfbcTvK77DuO59RQrhnnkvw7HlSAzq3RkpV//DgFdmYMmfK2B1dQ3e+99axFrUxYq578IKWRj34mt499Mv4OnigP0r/4eDybWhOfMz6jw5DbU1+7FgdzI+/mAiHKyAvdv+hF1Qe9zXok7eXRN56QQmvDMD07//Br6udtCpM/H11Ddh06Q/3hr+GLYVQmAZNIkYNWAIer/yIR5u3xiWlkB8VBimfb8M33zxXokIrK3f9IfXQ+/guV7349/tf+K9b/Zgy19f3Egh/AU7Zo1BaM+38fxTHRF96RhGj38LH//0FxwuL8OsDfGY/tVE7FwyTSiwGtlfxG9bYzD1raGwsjBgzbzPkRHwGB6qm10sAsvaunDVVHGqEJ48egR1GzcrVHmlNxiQlKHG+cg0pOdoUc/fGX5udnCwvTleZuxx/PD7MHjteQQJDilo3qUNuj4/CpYqE8+ie3mtG2CsrKLV51VY4Yd7bnQWNPHZwtxVVFfJ0hgXI5Y3DCnFbwujaaWdChYqS0FW8TePMej1UN0wtbyX8OS5944Aq+Q4t/CG2wP+hXYWt+ay2Fn36BJk9HdwsL7rReK9Ryt7kAiUDgKsEhUx5zQc6rjCs3uovKdLB1bZSxVAIH7NZdDniqbU9MLiBlTaoVgEDG0oDKlL0ozKrFSk7o8RVQ2ZakXPRJJj3AihvyIfIzlQGTa0SjJ3czuWtgysRLxz506R+keSSiGwWNGQpul30/ZdV2Pef5niVJVBj8fcExDobIXIyOhC1eLHdX6ItDRWfny/qytCXIpnWp649Zrwn/Lplb96Gh+LmndGqKOoBi+q8V7ketb4Qy/PLGSeTxFEK9NtaZfAwgRcD5mjyorXioQp1XU08S/YaILPCtdMX2UaKZVySoGAgsdSiciiQfR3M/U5U47jvUKvVnrEFfSXVY4hqUqPONpm0DPNtJH8pE8aiwyQRKYSsLSqXxfnHqX328MPPyzub8ZBP9ritG3bton0WcVrjl61TMU1rVBeVD8kiZl+SyVkSQsPJCemQp2th6OjQ6HdhxejKFhx5iePqXgESo3AyslKwYgBT+PZyUvQq53xje/fLUsxbsr3+PXPTWgQ6CQIrHEf/IQWjY1vmvzy7egZilcnjEWQtwM2LJuHzbuPQq3TwcLSBjXrNcXIkc/Dw+mmB4ApgWWtScDc2bNwKSoFFhYGBNZugZeGD8KZbT/dhsAajSw7Lyj+mxaWtug9eDS6dvC+kUK4EqHOSfju+7lIohLGADz81FD06twUFtDglcH98eSbs/FYC2OKxO5NK7Dyrz2wVFnB0toZY8ZPwIrPnxUphP271MW8H2fheFgM6Ctu4+SLl8eNRYiPcJAXTa/Nwfb1y7B6ywEYQELCgBoNW2PUyBfg4WhdKIHF88LP/ou5C5chLoELGRVcXd3x1LND0a5RUIkILM+sQ/jiu2VwcHGFj7sjNu5NwuYNn+Z5YHll/oNvFmyCu5c3fAICcHbXOjz9xhzcH5CAsZNmoGv/cfDP2iMIrD4dg7Dol9k4ERYt1DWe/nUxZvRwpETsvy2BFXU9DnY2DmKnKTMzC+lpGfleGQkJiahZJxC+AUbPrJK0HI0OC/6+jENhiagf6AonOxXCotOh1Rkw4ckGqOXrBF1GNFYvGIX4f4KQba9Hh97d0bZHL1jZ3EM1SoPR+0iQVLE3SCr6aOTqxAKTlVSsPWxh5W4nqhxx8Wn6Q0NXSysL44KUN48sQFeSy14hx2aeTUbyrggEjmpyawqhWo+In06KBR2rUOVGZIhddJf2fiJ9UDaJQGVFIHl3lKjK5j+kgUhxkk0iIBEwIsAv99GLz8E2wAlZF5Lh3aumqFBLJa7vgHqi4myJmwGg4pHEmDo2E7kxWWKtoc/WiXWCytlGpKGrnPhjIwzhSShQWSM2wKy5AWZcWygp7CWOoZqfoNVqsG37djSoXx81atQ0XmsYRNpgSHAw/PwK38S6E2wJWXpcSdLmHWZpoYe1hbFacsFG8wO1/ub7bSNfazhaF2+hGPnjSfgOLPz+Sz+WgJQ9kfDtX1dUzuSmKisE6rO0IjuAPla6dLXYcAVTFK1VsHKxhm2gk7if6WMlvKxuFGm605zL+3mmm9LfjMV9GjduLIz5TRuJGpKS9GElGUn1Hj1cJ0+efEuoVNBNmjRJ+MOSpCpIYFFF+PPPPwvl3uzZs0X6aWGNhQmYhkr/tIIE1saNG7F582ZB6NALlvFS6VdepvwKgUVlIv1zqZAsTiOBRVUkCxMwbY+qSxJgxIEqzNu10iCwdFp9vqJgHM/VzQXRkdFo3KqoomDGqKi8ZMxUX8pmvggUm8Ay3ymUT2Q6nRYatRozZ8zAW5PegxUVMLLdNQKZGgOi0owfzFnpGXDS5MDTzRnnz4WBEs+CzdLeEXXbtxEPezlawN2uePiv2HcNaw5exzcj28DzRnVL9rH+UCTmb7+E7wd6Y+v815B6tg7UdonoPnwkmj70CJPybj83Kqp0evEBL3ahNHoh9efiNDcyQ5TVJhnJBaRDLRfY13SFLY0q7+B/cdeAyhMrHAHuXkb+fErsPJpWD2SaJ3fimQ7qN7A+LKwsQJl94l/hQmbv+0xdsyyhXuGAygDMHgGSsZHzziB4dFOobhQtMPugZYASgXJEIPtKGqJ+PQvX9n5IPxKP4PHNkLIrUhBPJH3zVaa9x7hILuRcy4AmMRuapFxok3OhSSa5pTVaD7CJKiU3/qAVQVXL5b9HDKvD6dw0DRrVpND3bBKj4TOP3PRaE3YVxqxwEqE2AU5wbu4J+xAX8T/XMyIjoHjcWYXDy2rWJIU6dOiApUuXikqZpo2KKZruUz3E1FeSLSwyVBjpQpVW27ZtsXz5clF9uyCBRb81Ej6sNjlo0KBCCSym6dJLjmMUpsCivxz91UhYUalFIotFA1hAQWlM2+X4TItlCiuPISnGSpksNEAPNc6J3nUklehlR5IoIiJCVO6kXx3VTiTI6E/HdFpW0OzSpYsg5qjAohKMHnYk95jGy/E4LtOCx40bB86DmJH0oV1Inz59xPMKIUd/OXrksfqmKU5UrtEDjr5y9KZj4QHGxGMZE0lAVhFlWjL7pAKN1U6ZRszKn/TKI8lI/zg2RYFFDyy1+mZRMD7n5OyIyOuRtyWwiAkLPxC7b7/9VhR7kM08EZAEVjGvy7G9G/HTwtXo/Pgg9O/VubK8VxdzduV/WHiqDgsO3ZBKw4AGztkIcdAjPT0DTPnL1wxAuM4FkRpjhbzu9e3QMah46qjRP/6Ld/o2Rg3v/NX11Fo9pvx+DNnHtyI08ghqdWgpVFdB9fN7K3AHlbud4idLC22acVGoTbmR8pehAVQWUNmpYO1lL3agmBrASkX8oe+FbNUHAU1CNhL+Chd+ZfS14pcGmlvTa8Kze4i4J5TG57IupiB5Z6Qoue71WKhIE5VNIlAZEOB7YsRPp4Rhu1tH/0rzBaYyYCtjrEII6A1I3hmFrKupRhN2enz2ro34tZcFkeTTu1aZewIpqV5i041EFjfedAZhLi/5qyp0rxVzKjHLLsKfBQU8b61wmXEqEUwxZMVk3ifceGPRVK/nAAAgAElEQVTmAH+4BtalqcX6V0f/VZ0elo7WIouAPldUYdn6O4gMA3NvrC65cOHCWwgsEiU056f3GokVeryRyCFpZNr27t0rfNJGjRolUgwLI7CU46maKozAIlnGitw9e/YUfVH1U1CBZTomyScWBGAan2klTxJWTFslKbdu3TpRGIAVO4sisEhEMWWRyrGZM2eKNEqqzEjskThiHCSu+Pdvv/2Wj8AieURy66WXXhIkEitpkhAjmUTiiUQZvdxIvC1YsCDPr47x0IeOfnGmjaouqttIojGlk0QUCTDOieezIALj4PVg2u7gwYOFEoxFEJ5++mmsXbtWkGpKZXKFwFLnaJCekT+bx9fPGzEsCtayaAUW+yI+bCQN6XPH9EfZzA+BPAJr2qozyMq5KV01v1BlRBKBkiGg0emRmqnGjGGtRZXIgm37yRgsWLAH4wPsUaNOI+hztOJDmT+GbK1RNs1Kcdxc4irP0gJWztawMTHfZvnfyvBhXTLk5NH3hIDeAO66Z15IEakaTo09xMKuqEblFg1VmQLiP6S+JD3vCXx5cnkhQOI1/Wg8gsc1K9fKaOU1PzmORKA0EYj42VihM2HdFVGNluRBxI8n4djYE149Qs025ao0MZB9mQcC8WuvQOViA4+HAsS6VmkkqViMg95q7p3u/KVdZB5EZiLnSioyw1JF5gF395lx4NzME/Z13MRngyWLXJmZQqsoAotKIqp8SGSQuKAfFtME+b/SoqOjRWocUxFp5k8VF9VHNOYvrBVFYG3dulWQPyRp5syZk0dgscKlaWNaIwkhKrU+/vjjW4oYsIIl0/M6d+6Mxx57TBAv9GcrisBi/GPGjBFDUKHFogWcJwsrsPImGwksqqtI1JkqsFhVk4QXSTJ+L2JKJn3ASKqRvCIpSIUVUwip5lL6YxEDpkIypZLFGkwbyTP2ybl17dpVqMNIYCkKOV4rxkCij4UfOO7BgweFpxbJJlN/MoXA4u+U5FQxjKXwErZESM1AJMQn3JbAIh6cAxVnrJJKhRivsWzmh0AegfXV6jPIURsrmskmEagKCOj0BsSl5mBmEQTWthMxWLf9Mt5vV0OkhOYZoArfKQtYWt/wpbJTfrOEtZl9CleFCyXnIHY3E7deF4b+vs/UEdJ82SQC5ooAPVCiFpy9ex8fc52YjEsiUEYIZJxOFGnj7o8EI2nbdQSOaCQUULHLLgiDd6dG+b/UlVEYsluJgPBMi1lyAdyAdWntI3zT1PHZSDsYK9SAd6sKpFqLaeXqmCzkXEtHTmSGIGZt/BxhX8tV2GmYy9qmKAKLqigSI1QmkdDJzc3FW2+9JQgdpZF4oqm6UjGTZMr9998vlFtM9yvYiiKwSI6QOKJR+enTp8VpVGAxDdC0UWVEkofkUcOGDfM9R7UUq2qq1WpwTlREkcCqX7++SG0kYcTUQyqb2DdVXDyOsbIxTa5JkybC94nEWd++fcXj06dPR/fu3UV/pgQWlVckqqjEUtIqaS5PNReJPJJ67IcEFlP7FEUZCSHiSjVb79698+bA9Mb58+cLooyVTMeOHZtHYJFIYhoi58jf9C0j2Uesmb7JNEnGxpgYA5tCYOl0euTm5IrHnJ2dYGdvvC53MnEnuXfgwAGRukilmfTBMt83TJlCaL7XRkZWCgiMmHUAnz/XAj6u+aXSTFOcvPg4Eq6fx6QB7UR1EKV8cSkMK7uQCJQYAaZ0JKy/guxr6Qga2RiWSqWJEvckT5AIlCECBiBqwRnY+DHttYbZ7ayX4cxl1xKBu0aAqXsRP56CY0N3aJNyRD8+fWoj/USi8EgMHt9cemTeNbryxJIiYFDrEbf2MpgyyFRBqsVd7/eHx8NBpaqoJaGVdiQe6cfioUvLFeoul/b+sA91EgbwFVUxsyCBRYKFZIqNjY1Q3TBFj0osGvNTzTR16lThEUWihMcojedRoaWkEFKRRAWS6TEFCSweQ8JHIV3YF83NqbQi4cPfJNJoJE8yhfGQUGNFRDaSZIpKi+QOPaiYTscUQvpIUcHEVD2SViSHSGAxvY9kFQkskj9Mz+McqXyigTxTD6l4UpRgJKn4OP83JbCoAhsxYgSGDx8uFF/79u3DX3/9JWIoSGCdOnVKpFiyxcXFCSKQx5AwIwYkCKneIj4kzIgj+2ZcVGCRfKM3FtP4atWqJVRwJPCIA+OgWoqkHv9u166dGOeWKoQFHGmuXr2GJkwhvI0WgdgTX9NrWNLXlzy+7BGQBFbZYyxHqEAElv5zFXvPxuPNPo0Q4nXTB+vPA9ew+sB1jO/ijcP7dgg5bJs2bSSJVYHXSg7NwgAGJG4OBxeX3r3zl7iW+EgEzAEBYUo9/wyCx7cwyxLp5oCRjEEiUBgCVL4wXdxvUH3ELL0A7ydrCt/MhPVXRWEPv4H1StXUXV4FicBtEaAdWpYGLDQjKlXalp13FX3YSGblRGQIdRbV5ha2KmGvYB/iDNsgp3KtYktPJqqE6KnERiKGBt79+/cXHks0ByfpQrKI/k5MJ6SiiUbrVCYpjaQXVUckdEhIkWxh6p2pyTqJIZJAiiE4/adIvHh5eeX1Q8N3klFMueO4JLSoWOKYVFiZel6xOiLVSkojCcR0QcbCNMZ+/frBzc0NK1aswJUrV8Tf7JvzoNKJXlOswMh5svIh46Vh+okTJwQ5xDRKputxDCrNmjdvLkgw4kUi7NKlS2C8JPSID8cj2cN0vokTJwocjh49KggxqsvY+BiVZRwvNTVVEFZUWzEWKsZIvpFco4k7FVqMh4QWY6LyigIDPz8/QczRl4t+WvTgYmrl4cOHBf5sGWmZSE3Khqurs/BUjo6MFRVClZaRngFPH3fUb1wL1tayanJlfoeUBFZlvnoy9jsioNUZMHPdWew8EYOHGvvCw9kG+87FIytXi+nD2iDEyygR5i5Fjx49RH61bBKBikSAi0kqXBwaeMCDPhQya7UiL4ccuwACsSsviYIVHp0CJDYSAYlACRGIW3UJdkHOwlsz9d9YBI9uIkq80SPLuaUPXNvK0u0lhFQeXkkRyI3OQurBGGQcTxDVvO1qusCpiSecGrrD0s5K+HOJIgMmPl2VdKpmEzYJKRJF9OwybSSMSFwpiimzCbgYgWj0Biw5lp1HUwVmR6F1vQBcuHAZsTHxt/SQY2mL7KAmgMoKwe4qPFLz1rTPYgwrD6lgBCSBVcEXQA5fPgicup6Cs9dTkavRi3TC1rU94Ol8800rJiZGSGi56yArTpTPNZGjFI2AOi4L0b+dF2a/jg3cJVQSAbNAQJuqRsyyCwgc1qjMK6eZxYRlEBKBUkaACkbxGhreWPx26+AHl7a+yLmejpjF5+H7bD3Y13Qp5VFldxIB80WA1TFJZtEEnl5crOas1xoAvUGosujRpVT35v8kt1T2VsJmgZWbKyoN0XwRLToyKs0uXrwoTOhNG9MkmTrH70CVrWn0wLJjxqr2bE4qDQJsc6HXFe7rnaSzRZLWqAwLcrNC51qSwKps15zxSgKrMl41GXOZIMB8beabP/fcc3my1zIZSHYqESgGAvyiw1LrIeObix162SQCFY1A9MJzsK/lArcHpPqqoq+FHL+SImAAIn46KbyAHOq5I271pTzPw5R90Ug/loDA4Y3EF3PZJALVGgGDQRBb2eHpyA1PE+mH3EQh4SUaM8MscKPSoQoWNpawuFFxnEsmczGMr9bXsIpPnoUQWF1WtvJHQBJY5Y+5HNGMEWBeN3PIO3XqZMZRytCqAwKU1MetuSwWaTT7lbuM1eGqm+8cc65nIHLuaYS+1gJWbnLH0nyvlIzM3BHIjcoUxBVVWLErwwSRJVIHDQbE/XkJVq528OgaZO7TkPFJBMofAQqzcnXQ52hv/NZBr9ULI3oSW/QR1av1IiXR0tpYmU42iUBZIWDlYgP72q5l1b3s9zYISAJL3h4SARMEaGpII0IaO8ryqfLWqGgEdDlaXPv6GHz71YFDHbeKDkeOX40RiF97BSpna1GlSjaJgETg3hCI+vUc3O73A/QQxu6hb7QSqisavUf8eBI+feqIioWySQQkAhIBiYBEQCKQHwFJYMk7QiJgggArdezevRvR0dHo27evKIcrm0SgIhHIPJ2EtMOx8H+ugTQzrcgLUY3H1mdrEbXwnEhtspC72tX4TpBTLy0EaFydvC8aAUMbgqm5DrVd4dElWKREZZ5NQtLfEeI938rVprSGlP1IBCQCEgGJgESgSiAgCawqcRnlJEoTAb1ej59//lmUs5WG7qWJrOzrbhAwaPSI+u0cHBt5CMNf2SQC5Y1A0vYIka7h1VN6PZQ39nK8qomALlOL8P8dgW+/uiIlN+b38wh6qQlUjsZNs6QdEdAk5MD3mTpVEwA5K4mAREAiIBGQCNwlApLAukvg5GlVGwEaup8/f16osGSTCFQ0AtlX0xC77CICRzWGtYexeopsEoHyQECXqUH4jKPwH9JAVkcrD8DlGNUGgaSdkVDHZML3mbqIXREmCiS4tvMV89dlaBC18Cycm3nD7T4/qb6tNneFnKhEQCIgEZAI3AkBSWDdCSH5fLVEIDMzU3hhkcDy9TUuKGWTCFQkAjR0t3a3hftDgRUZhhy7miGQdigOybsiEfJ6C1jIapjV7OrL6ZYlAjScvv79CQQMawhNfDZil4chZGILWN6opKZJyUXE7JMIeKEhbAMcyzIU2bdEQCIgEZAISAQqDQKSwKo0l0oGWt4IbN++HWlpaXjqqadgaSmrmZQ3/nK8/AhoU3IRs/Qi/J9vAJWDlYRHIlDmCBj0BsQsuQCXNr5wrC+LCJQ54HKAaodAwsarIoXQpa0vouafgWNdN7h3DhJeWGxp/8WCJLLfoPrSD6va3R1ywhIBiYBEQCJQGAKSwJL3hUSgCASowpo3b56oSOjh4SFxkghULAIGIH79FVEe2qdP7YqNRY5eLRDQZ2kR+etZBI9umveFulpMXE5SIlBOCGRdTkXcijBRhVAdm43YZRcQ+GLjPC8sqrRIIvN9339wfVlEoZyuS2UdJiE+GbnZuYWGTwGtp7c7bO1sK+v0ZNwSAYmAREAgIAkseSNIBG6DwIYNG4SRe4sWLSROEoEKR0CTaCyxHjCiMWz9HCo8HhlA1UYgfv1VqOxU8OgaXLUnKmcnEaggBFgcgWmC7o8Ew7mZp1DZOtRxhUsbn7yI9DlaQWIxjdCzW0i5+WGxoM3FixdRr169QtOHc3JycOXKFTg4OCA4OLhIpbpWq8XVq1dRq1atIo9JSkoSY7i7u99yJVJSUnD9+vW8xwMCAuDp6Sn+Z+Xos2fPQqfT5TuPfTVo0ABWVsVTK6vVaqhUKvFj2jh/ztO0ubq6IiQkpER3jEajEdWtS3peiQYBcOLQBfgHFG57oVFrYGVrAR9/I3aySQQkAhKByoqAJLAq65WTcZcLAlw07dq1C88991y5jCcHkQjcCYGEv8JhobKAZ/eSLaDv1K98XiJgioA2VY2rXx1G8JhmsA2U/jvy7pAIlBUCKXujkX0pFX6D6yMnPA2xK8MQ+mrLfGorViSM/OU03O4PgNsD/mUVSr5+N27ciO+//x5r1qyBtbWxOqLSSBhNnDgRubm5SEhIwMCBA/H0008XGteRI0fw4YcfYvny5bC1vVX9Q6uGt99+G48//jieeOKJW/r47bffsHbtWjg5OYnnBg0ahG7duom/SY5NmDABWVlZIpbk5GT4+fkJImr69Olwcyte6vPs2bPF2CTiTNvw4cNBcst0/u3atcOYMWNKdA1iY2PxzTff4LPPPivReSU9+PSxSwgNDSr0NM5DZ9DA209mFJQUV3m8REAiYF4ISALLvK6HjMbMEGAaIRdP/fr1g5eXl5lFJ8Opjgho09SIXngOgSMawdK+eLvL1REnOed7QyB5TxSyziYhYGRjWFjeMOS5ty7l2RIBiUAhCOhzdIiccxr+LzQQ7+nRC87CsaE73B4IyHc0SS4W8/B4JAjOLbzLDEuue2bOnCkqMVM1tGnTplsIrF9++QUZGRkYO3YsIiMj8d133+Hjjz+GnV3+KrlUVk2dOhUXLlwQRFhBAuvAgQOYP3++UFiNHj0avXr1umVekyZNwrPPPntHJTzHWLx4sSDLlHbt2jVwPjVr1syLjYouzovklr+/PxITE/H555+jR48e6NChAxwdbxL2r7zyCt577z1Q9WXaqKiKioqCt7c3OAaVY0rBH5J7VKYRC5JuVInxd0xMDIKCghARESGO5XkkxqjKUgpkkOgiZjzO2dlZDMnziU92djZq1KghMCRxx/4YB//nPNgHCaygIH+kpqSL85RGJZq9g22xCKw9e/agSZMmharhyuymkx1LBCQCEoESICAJrBKAJQ+tnggwjZC7eY899lj1BEDO2rwQ0BsQ9+clWDpZw+uxUPOKTUZTJRCg307kL2fg/URNqb6qEldUTsLcESAxZR/qLIipnMhMxK8KQ8DwxrcU7Mi6mCLSCf0G1IVDvVvT7UpjniSmzpw5IwgYqqyoxDJVIJE0oeLqzTffFCQKiZb27duLVELTSqUkWaZMmSKIp1WrVonKzgUJrBMnTgjyhQRYmzZtbiGwqBrq37+/IKBIqPHvoUOHFjpNUwKL5A1JuEOHDgkPU67h+D9TAt944w3UqVNH/P3iiy/Cx8cHX375pRhj/Pjx4rfSiiKw4uPjBVFGsop9k2BS+vjiiy9w+vRpgRmJKyq7qNqiAuuDDz7ARx99JFRdxJlEFxVkXF9yrUnFW+3atXHp0iURb8OGDQUpt3TpUkFqkTSjWozXZtSoUWJuLVu2xEsvvSTiEARWoD8SEpLBFFCl2dnZwNHJ4bYEFuNZtGgRWMAoNDRUzEcWMCqNV5TsQyIgEShtBCSBVdqIyv6qHAJcMHDnkIsme3v7Kjc/OaHKh0D2lTRELzqHkHHNRQUr2SQCpYmAOj4b8asvI3BU49LsVvYlEZAIFIFA5rlkJO+IQOBLTYTiMXbZRTg18xJKrHzNAKQdjkPKnih4PhoCx0Zllw5GwogKq4IEFomOPn36oFWrVmjevLkgW0hWUalkY2OTFy6JkLCwMEFKvfbaa4USWDyYZBPJIPZXUIFFdRRJMBbTMSW6+H/BZkpg7du3T6QQkhAiwcaCPEwtJMEWHh4uiCumLh4/fhw9e/YUCqwhQ4bc4lHFdR/PU9Z+JHRI3rm4uODll18W6jKqlUgwsTVt2hQLFy7EJ598Iggkqsc6deoklF2M59NPPxXE3yOPPCIqXJ86dUqQeyQK+fhbb70lSKmTJ09i27ZtArd33nlH4ENseS24Jn3++efx6quvYs6cOfnWpSSw/P18cPnSNei0N33BnJwd4R/oc1sCi6mgTI0kqcbGa8zUzuL6iMkXt0RAIiARKC8EJIFVXkjLcSotAlxccUFCz4WCMvJKOykZeOVGwGBA5IKzcGrkCdf2hRu2Vu4JyugrEoHYP8Jg42UP986BFRmGHFsiUG0Q0GVqcP274/AbWB92oc7CEythy7UiK4DmRmYiZsl5uHUKhCsN31lirpRbUQQWU/Lod/X666/j0UcfFUoiEkokgRo1aiSiIDlEpdHkyZOFCTrJlsIUWHcisEgC0duKiiOST3///bcgbagUKmi4bkpg8fkffvghzzeLfZBcIiFDBRbTCEm+jRgxAvXr1xfEUmEEFgkdqrJIYimNqip6bZFcYiolY9u9e7dIk+RxJN1eeOEFcfj69euFSqsggUWyiooqKrmoPiNR+Mwzz+Qp1LjuZJohj2MMiv8X8WjcuDHeffddQYgRc1OCiQRWSEggNBptvrvB0sICeoO+2AQWx5s1a5a4nqaqulK+xWR3EgGJgETgrhCQBNZdwSZPqm4IcDePiwTKwGWTCJgDAuqYLCRsDkfACw3NIRwZQxVBgB5r4TOPInBEY9gFG02TZZMISATKHoGEjeHQ52rh81Qt6LV6RM0/KzYoivK7yrmegcTN4aI6ofuDAVA531Q/lUa0RRFYJGSYsta3b1/hG0UCi+QPU+dIBrFRQcSNPzaSR0wV7Nq1q1AtUWFk2m6nwGKKIvuiYomE1erVq7FlyxahrCqY3mZKYFHV9M8//+Crr74Sx5GwYuojiSd6X6WmpuLgwYPg2m7GjBkiXa8wAquoFMK4uDhB4JHAYlokfaOIFys2cq4kpNjo78X5FiSwqLRihWsSWN9++63oi2qur7/+WhBGxJhjEDumDE6bNk30Rx8skoPEgil+NIUvSGAFBPghPjYBer1BqPkCg4zk251M3HkdqKRjzExLbNu2bWncRrIPiYBEQCJQ6ghIAqvUIZUdVkUEaPi5Y8cOUf1GNomAOSBg0BkQ8/t5uHcOkkSDOVyQKhJDyoEYpP0Xi5BXmgHSvL2KXFU5jcqAgDZDg6h5ZxA4vBFUTtbIvpyGhE1Xxf+WdoUX7NBlaRG/9gpyozLg178ubINKj3QuSGAxdY2kD9P8jh07JpRDVCHxMf5PIobnkCwiYaOYiJOEouqJZA99sngsFT5169YVl6UggUWVEas/syKgq6urUDNRKUVfJvpIMS1PUXqZXldTAouxcr1Goo1kDNVYAwYMEAbptISgqoqpj1zXkQiimok+Xg8++GA+ny6mGjKVzrSIDwkrKq0KI7CefPJJkQbIsUgykXjiWHcisN5//32RgslxWI2RMTJNkeqrcePGidhat26NuXPnilRLpj0WRWDdaxVCkmSK4q0yvG5kjBIBiUD1Q0ASWNXvmssZ3wUClMzTSJOLEi4qZJMImAMC6ccSkLIvCkEvNoGFlaU5hCRjqMQI0Lw9etF5uLb3u9V7pxLPS4YuEagsCNCg3aW1DxzquYmQY5ZehFNTTzg1LtrripsZqSSeD8cJNRZVW3aBTvdMQHPjjioqkk8kY0gQKX5NVP3s379f+DSxEh99oUg2kXgiYcV0OEUhRUKL6yeSQTQ2Z1VDVu0jKaMQWFRWkaAiOUMV0O+//y5IKhq7X716VYzLdVj37t2LVMJzXCqqmN7IxuqIK1euFKQVCSSmO1KFRR8pqqSoxOKxTOUjqbZ27VqxxqOKSmlMo2NlQNPm6emJYcOGiTmNHDlSzEmp2NixY0ccPnxYpBTSe4tzadCggRj/r7/+EhWt6ZdFAorKrPT0dKEoo5qNcf75558ibmJB4oyYkoxT5kFTd5JkVGgxPZE4m6ZSnjpyASGhIbC0tMDlS+FIS03PC53EoAF6+Ph7oUHjWjI1sLK8Kcg4JQISgVsQkASWvCkkAsVAgDuEXGBxofbAAw8U4wx5iESg7BHQq3UIn35UVKSyr+Va9gPKEao0AtrUXMT8fgFBo5uUiadOlQZPTk4iUAoIZJxORNrheAQ830D0ln01TSisgsc0hYX1bTYpDIAuSwOxqbEnCtYetkKdqxBhpRCa7KIYCNAgnumIw4cPF4QbUx2priKJVVbtQIQGy05kCyWbRXYG+gZkwNXWEtevRYg0woLtiD4QSfZ+guSacJ8jQt1UZRWa7FciIBGQCJQJApLAKhNYZadVEQH6MLAkM6u/FDQPrYrzlXOqHAik/RuL3JgsePe6Wfq7ckQuozQ3BBI2XYOltQU8ugSbW2gyHolAtUBAk5SDiJ9PIejFpoKEoiqSqiwqqzweCSoWsUwiOv14ArIupIDqLKqxeD4r1jI10cLGEpYkwywspHK3lO8qnV6HPbt3Y8fOnbCztRWqL6rKgNI32VdCv5qixeEIDQwwklXWljrYWeY3cVeO1Roska2zFv/S2L1zLVt42N+9etuCt5FUf5fyXSS7kwhIBO6EgCSw7oSQfF4icAOBrKwsUf2GBBbl77JJBMwBAX2uDpFzTyPwxSbGLyWySQTuAgFWQQufcRQBwxpJT7W7wE+eIhEoFQQMQPSic7ANdDISVgBIakUtOIuAoQ1h7WFX7GEMaj20GWqw4EdmWApyrqSBRRosVBbC3FtULpQ+d8XGUx54KwIuLb3h0VVueMh7QyIgEShfBCSBVb54y9EqOQIszXzfffehVq1alXwmMvwqg4ABiF9/BSoHa3h0MX7hkU0iUFIEUg/GCvP2IKYqqcpOLVDSuOTxEoHqhkBWWCqStl0TZLKlrTG9K2l7BPQ5Wng9XuOe4DBo9KDxOwlr/kj1zD3BWe1PVjlaw8bHvtrjIAGQCEgEyhcBSWCVL95ytEqOwIEDB0RZ406dOlXymcjwqxICOREZQoUV+kYrWDkZ0wNkkwgUF4E88/YOfnBsINWlxcVNHicRKBME9AZE/HQKPn1rw8bHQQyhTVUj8pfT8OldG/a1ZCGZMsFddioRkAhIBCQClQIBSWBVisskgzQXBFiVZ/PmzRg6dKi5hCTjkAiA1hdR807DqZk3XNr6SEQkAiVCgClKrHYW/HLTEp0nD5YISATKBoHkPVHQZ2nh+WhI3gAp+2OQcTIBAUMawNLeqmwGlr1KBCQCEgGJgETAzBGQBJaZXyAZnnkhkJaWht9++w0vvPACnJyczCs4GU21RkAdl4WEjeHCJ0U2iUBJEEjYFC7806R5e0lQk8dKBMoOgdyoTEQvPo/gsc2gukFW0ZA9dsVF2Nd0gWt7v7IbXPYsEZAISAQkAhIBM0ZAElhmfHFkaOaHgFarxe+//46WLVuiaVOpVjC/K1R9IzLoDYheeE6QEHbBklytvndCyWauy9Dg2tfH4P9CQ3nflAw6ebREoMwQYFpv5C9n4NTEE273++eNo47PRvSi8/AfXF96D5UZ+rJjc0UgNTkdaamZRdZ0tLJWwS/Q21zDl3FJBCQCpYSAJLBKCUjZTfVBYOvWrUhNTUW/fv2qz6TlTCsFAqn/xiJ1bxSCxzeHhUpWJKwUF62Cg0zZG42M00kIHNFImrdX8LWQw0sETBHIOJmIlH3RCBjWEJY2RjN3GAxI2cdUwkT4P98AKoeySyXkht2OHTvQpUsXWFre+nlCRfq+fftEVeY2bdpApZyksmcAACAASURBVLoRY4HLSN/Q/fv348EHHyzymKtXr4oxQkJupkwq3RgMBpw5cwZXrlwR4/j5Fa4+0+l0Ip6UlBS0aNECwcGVtzpeZGQkvLy8sGnTplteFFZWVujevTusrYvnd8kK2jyHbffu3cjMzBR/E+/69eujXr16IHb//PMP2rdvDzu74le6vN0rluvk8PBwNGvWrNRe2LFRibCytCnyPkpIiEedhqGlNp7sSCIgETBPBCSBZZ7XRUZlxghcvHhRLCpefPFF2NramnGkMrTqhgCrSoVPPwrf/nXh2FCacVe361/S+erVekT/dg4ejwSJtCTZJAISAfNBgKraiB9OCjN3W3/HfIExlZAG7+4PBaJIOco9TCUpKUmozVetWiXWOwXJkoSEBHzwwQeoWbMmSLaEhoZi/PjxhRJdGzZswDfffIN169bdsmYiSXby5El89tlnGDJkCHr16pUvapJXS5YsEcQUyZZDhw7h448/zkd08Zh///0X3333nSBjvL29cfDgQXTr1g3PPvtsHnlzD3CU66knTpwQc5w/fz6+//57MXZUVBRiY2OF+p/rzjFjxhSbaJo+fTr69u0LDw8P4d/aqFEjODs7Q8G+c+fOeP755zF69GjMnDlT4Fca7cKFC/jzzz/xzjvvlEZ3oo+46ETYWNnDyqpwspQY1W5wKwlqGgAJVbl2L7VLIjuSCFQIApLAqhDY5aCVGQG1Wi0WFc899xx8fKRhdmW+llUx9tT/4pB9KQV+A+pVxenJOZUiAuq4bCRsvIqAFxqWyZfgUgxVdiURqJYIJO+OhD5XD89u+dVErEoY9ds5uD8QAOcWXqWKDckrkhlBQUE4fvx4oQTWp59+ilq1amHAgAFITk4WZNfIkSNvIVWorPrkk08QFxeHFStW3EIcLFu2DH/99Rc0Go0gmwoSWCTHXn31Vfzwww9CkbRz505Bpj3wwAN5c87OzsZrr72Gt956SxBqFhYWgvB56aWXBHHGONnP0aNHxfMkcHgMyTBfX19wU9LV1VWQQ+fPn8f169eFWsze3h7Hjh1DQECAOLdu3bqiLzYqlvhcfHw82rZtC09PT/EYlWY1atQQpBwJN+V4kkWHDx8W6v0OHTrAxcVFYMKxSCaFhYUJdRnnSJ9VknbEuHXr1mI8zptVsN9++20ROxvj5/jsjyo4hehiXIGBgUL5xLl99dVX6NixIx555BGBE0kq4sDGcSdPnowZM2YIokkhsBgXiTT2y/6p1jp37pz4n795DdinEotyMUgmcp68JiTCVq9eLfrV6/U4cuQISHyyPzc3N3GK8jjvufvuu09gSLLyoYcegqOjo4ifa+7GjRuL4xUCKyY6XlQEV5q1tRUCAv2QmJhwRwKLMfHeJt6ySQQkApUTAUlgVc7rJqOuYAS4WOOHH3f7ZJMImBUCBgOuzz4J/+cbwsqpeCkGZhW/DKZ8EDAAsX+ECeWVSxtJxJcP6HIUiUDJEMiNzkTMMmOF0Lw0whtdZF9OQ9yqS/B6ogYc65ee4jYnJ0eQKyQhxo4di40bN+ZTYJFQeOaZZzBq1ChBFDE9rUePHvD3v+nVxRDT09Px/vvv44knnsCcOXPw66+/3kJgXbt2TaQEUoHVqlWrWwgsWjZQBcY+SLY0adIEnTp1ypdCRkJlwYIF+OKLLwoFl+qsWbNmoV27doJYIlE1YsQIvPvuu0hMTBR+piR9GjRoIObM1EgW6WHsJMVIOvE5EjCDBw8Wc+Um5uXLl4XyjETSm2++KYgxWkvUqVNHPM50vSlTpojHP//8cxBXkjqcx4cffih+kzDi8yRrOI/Zs2dj7ty5WLNmDSZNmiTSN9lMCSymBH700UeC7CF2jIPjsEo21VYk1JhySfKLf3MMkllPP/20mI9CYJE8IkFJ8oo/b7zxhniOyiniyXPOnj0LBwcHET9JRJJaXPdyTG7gTp06Ne9aMB7Gf+rUKaGQYz/EjWP+73//E+fwcRJxJLWYrsjxmBpKwo2qOcbPe4UkIFVj7J/HKumgCoGVmpKG3Fx1PgLL08tdEHq3U2BRpbdt2zaRRsk5ER/ZJAISgcqHgCSwKt81kxGbAQLcZeOOIXeJZJMImBsCyTsjkROdCf+BkmA1t2tjLvHkRGQgZvE5BI1pBisXG3MJS8YhEZAImCAgzNznnoFza2+4tvW9BZusiymIX3cFPn1ql3oaMNVIhRFYJKb69OkjVEr9+/cXRAVVLSSJSHYojeoqKo3oR0XlT2EEFo+laoeETmEE1vLly0Uq3YQJEwT5QWKF6itTpRbXYyR4SPgUbCSkSNyQ8CFZQcJq4MCBIt3wl19+EYQYUxe3bNmCzZs3C7USlT0kc0iIMU2SRB1JpkuXLonHqDT76aefhLqLRBeJqsWLF4tzhw8fLn5T4cRjOD4JMj5PMsbGxkak1dGni6l7JI4WLVokHn/vvfeEaowqJfZB/BTvMVMCi+MRS6U/KthIspE42759O15//XWhcCIJSQUYFXDMGFBSCPkcfa5IYBEPzoekIG0xSCiRzKtdu7bAm75YnCdxnzdvniCWeO1JOr3yyitYunSpuMYKYUkijRixf+JJ5RrJQj42bdo0QXaSFFu4cKEgtjgH5fj169cLoopjUxVGjHidOZ6Cg0JgXQ4LR3paRt7ltrO3Q70GtZCUlHhbAov30d69e8V5vPYkCxV/MPnGIxGQCFQeBCSBVXmulYzUjBDgruOuXbvEQkg2iYC5IaBNyUX4zKMIeqkpbAPze6eYW6wynvJHgN468asuw8rVFh5dg8o/ADmiREAiUGwE0o8nIO3fGPi/0AiWNoWYqf8Xi+RdkfDuUxsOtV2L3e+dDiyKwCIpQ6URVUckYags4lqIJJRi2B0RESEUTCRFqBj69ttvxfMNGzYUZI1pux2BRf8sptTxh2lrJEVWrlwpyCElfY1xkmChosa0kXAiOUGSjQQbFWIkbRgryRcSJgoZRrN6KoNIgjHdj0QHVWFUDvFYKqe4afnyyy+LVLz//vtPkEw0ro+JiRH+XyTFlBQ9KqNIWjGFkuMyJdDUoJ5kE8cmgUKCjo34UNlGvG5HYHH+PI+qJaUxXZFYE+fTp0+LlEgSd/QB4zxMCSySZIyJ14EEF/2geA1J1JHAYsyMnamhTG9k+iXx5U/z5s3FNSfJxj6ZjUBijI1kGM9n6iMbFWHsp2fPnoK0IynFRhxJEBJjkogkFwsWAOBYJPZIYCr981yFwNJqtNDp9WA2JckyS0tjWuWdPLAYH0k+3nMk9kiayiYRkAhUPgQkgVX5rpmM2AwQ4M4QFyT0iSjoAWAG4ckQJAJI3R8Dpp9wZ74sTH4lxJUXAW26GjGLLxirm9kWboZbeWcnI5cIVC0EFBWW9xM1YBvkVOjkssJSkLjpGlzv84NLS59Sec8visDil3+qfOhZRMKFRAdVTFRgMXWOjaQHU/fYqA4iEaGQP6YqLT5/OwKL6i4SZSQ06L9ExQ9T1Eg+KI2Ez8SJEwX5pJBEJJVIsFD1wxQ0/iZZwVhJvjFWKoruRGCRXCE5xXmR2CE5Q6KI6XRMI2Tq3549e0R8JLsUI3RTAovjknTiOSSN2E9GRobA5eeffy4xgfX3338LcoepdiTouKHKvvibRBsx4N9UTnHeJNZMCSxTDywFQ4XAInFGJRhVWYybHlRUVRWHwKIyj+cSBxJSVDpRwUUFFslFqs3YmDrJ2OnnRQUWHyc5yXmR3CIJStKNaiz2Q6JLUUkpBJY6Vy1SKC0sLeHgQALLSOzeicAigcliAlTIURkn1+9V671Szqb6ICAJrOpzreVMSxEBfthzAfH444/f4vtQisPIriQC94RAxE+nREVCa3dZLfOegKxKJxuAxK3XhJ+Oe+ebO/hVaYpyLhKBqoZA2qE45EZlwruX0Xy7sJZzPQNxK8Pg2MgDbvf5Q3WPHogFCSwSD/zyT0KHCiuSDFT40LuJBAMJCZIWTF3r3bt3HqlAMolG7EoKIT2ImMammGgXJLBITJDwoqqIflX0ReKai2l8rIhIkoSpbKaNfZIM4pqM6iP+T/8lqqeouKGPFp+jzxJJC6rDSGzdicBimhvN3JkuyTRD+l8xrY1EFskoKqmo5CJBxL6GDRsmVEimBBbJPv7wWCqemPLHaoCcd2EEFuOjQomVCBWMTFMISRRR6UUvKs6RcbE/NnpQUfFEIofXgaQeiTbi3bVr11tM3AsSWIydxBcxJP7MNCDhRvKN5GFhCiySjPSUojLrxx9/FOQlyaG1a9eK9FESkCSwSDIxPZBqOKZaMh6mD/LeIelG3y+mrFKVRc+zJ598UsRLAozjsplWIaRSjkos05aQmIAadYJgZ1/0moe4S+Kqqr1DyvlUNwQkgVXdrricb6kgwA/AP/74QyxSuLCRTSJgjgik7ItGxqlEBI5oDAuVUWIvW/VGICcqEzG/nUPgqMaw9rCr3mDI2UsEKgkCTAuPWnBWFOew9ij6yzmrE6bsi0J2WCrcOgXBuakHRJ7VXTSqhKh2ovk5yQdWiiNZofxPooLkBhVVJJeYikZTdpIZJFYUkoCeUkxrI5nBfmjmzbQvVvdTGvslacKqgFTJ0ISclf2Y6kbTeP7PeKiEUgy9TafENRlJNcZEFQ/7YdVAJQYqiUik0a+JsVLxQy8mpqfxWKbEUVlPkol9cd6cA43eqdgiWcIKgeyTc6Dqi+eTWOM8qOhh3PSPYsU8YsFYeBzPIelEQpDHc04kcogn8VLIGWLAvkiY0VydvxkrG9PzqB5jfGzEgv0xnZP9cXzGTW8qzpPjk+AipiSzOH/Oh88zvoIqOMXQnc8xZpKSbIyT82Bf7If48brwmtDfiiotPk7MGQPnx2vFa84URz7OPhgv++TjXDfzWOKoPM7+WBmQRBvPZ78kCFkNMSUzF55BxuqP6QlJ8LS1ga2tDS6cC0Nycmq+O5vkp52TA+q2M6YGOtlYwMXm7u7/u3jJyFMkAhKBckJAEljlBLQcpuohwJ1G7kg+//zzcjen6l3eKjEjXZYW1785Bq8nasKpqWeVmJOcxN0jYNAZELv8Iqw97eHZPfjuO5JnSgQkAuWOQPzaK8y3M6qw7kBK5VxNR/wGHg+43ucP+xrOUDlay5ThEl41KrCoHjMl20rYhTz8HhGIzdLj1T+TRS92llr09k9BDXcbxMbECdLQtBkAHMr2wplsoy/XkDaO6NlAbtTc4yWQp0sEzA4BSWCZ3SWRAVUWBLhzRlk6/RC4UyabRMAcEci+moakrdcRMLyRVGGZ4wUqx5hyo7MQv+ay9L4qR8zlUBKB0kKA6qqo+WfgP6QBrD3v/KVcn6sD0wrTj8UjNzIDFjYq2Po5COWlpZ0KKntrWFhLdcrtrs+pk6eE6olV7mSrGAS0eiAp+yZRZWEwQGXQFWrtabCwgNbipq8jFVgO93CP24W6QOVgVTETl6NKBCQCRSIgCSx5c0gE7hIBSqNZ8YXeB5SgyyYRMFcEYpddhF0NF7i28y0Vc19znaeMq2gEDDo9on47D5fmXnBu6S2hkghIBCohAolbr4uNCI9HSlg91GBATmQmsi6mQJOYA01KLvRpagq0ZJMISASKQMBvYH3Y+jtIfCQCEgEzQ0ASWGZ2QWQ4lQuBhQsXiko8ii9B5YpeRltdEODue9QvZ+A/rBHsgguvYlVdsCjNeWZmZCE2KgEWFreWtuc4KpUlQmrd9HkpzbFL2lfqgRjQCDpgRCOo7OWOcknxk8dLBMwBAXVcNqIXn0PA0Eb3XpxDL+krc7imMgYzRoCpulKkaMYXSIZWXRGQBFZ1vfJy3qWCACu0MH2QpqaySQTMGYGUf6KRdSkF/oPqw8K6cMKlNOKnMS0NeguaxLJvGuHGx8cLY1eWRHd2di5ySJrWOjk5CTNapfE8lgcv2FjFiIaxxWk0umXJcZrb0nCW5ro+Pj7FOfWWY+JiEmFtaQdr68IJoeTkFATXqnh1pkg9+vUsfJ6uDbsgSWDe1cWWJ0kEzAEBgwGxf4TRCgu+/erAwlJ+uzaHyyJjkAhIBCQCEoHyQ0ASWOWHtRypCiJAHyxWYnnqqaeq4OzklKoSAga9AbFLLsA2yAnunYpH9pR0/qwexNLf9IV7+OGH851Os1Wm3JI8YhWj8PBwfPTRR4X6x7GK1ciRI0WZc6VCEztjFSaWYmc7cOCAUD6yMhSJLpbaLk5pbJYW//LLL0X5blZ9Yj8sQc6KSCVtlYLA4nVfGQYrNzt4dpPG7SW9xvJ4iYC5ISAI6Xln4NOvNuyCi94EMLe4ZTwSAYmAREAiIBEoDQQkgVUaKMo+qi0CLLu8du1aUYlQNomAuSPAVMLIuafh07cOnJqUblXClStXYsGCBUJlxcpNBQksEr3Tpk3DvHnzhEJr9uzZQrnYtm3bfLBRZfXBBx+IsuskuEwJLNMDSZT16dMHTZo0EQ+T9CI5plKphLqLJbhZUpuKMJbopiKMJbrZ72effYYZM2YIFRbLkLOUOhVfVHKxhDhVX3yMhBjLfpM449/sk8coyjGFwEpPz0R6anq+efgF+Ii+bqfAIqlHRdqhQ4fQs2fPYhFwJbrHDEDK/mik/ReLwFGNoXKwLtHp8mCJgETAPBFIOxqPzDNJ8B9YD5AqLPO8SNU8KnWuBoaiXNYMgJW1lUizl00iIBGQCJQUAUlglRQxebxEwAQBfvldvHgxhgwZki/VSYIkETBXBDIvJCNx0zUEDGkAK/eb6Xn3Gi/VTCSJvv/+ezz66KO3EFgkt0gmeXt74/r16+jevTvatGmTb1im961evRrR0dGCNHriiSeKRWCxX6qqWOqcpBEJq7fffhvLli0TKqvg4GCcO3cOo0ePxqlTp/DLL78IhReJqA0bNohzWYyBZBjjO3z4sFB0tW7dGp9++imsra2FyuvgwYPo2rWreI5NIbBSktOQmGAs8620WnVCBKl2OwJr9+7dIPFHUm3cuHGlruTMjcxE7B8X4ftsXdj6Od7rJZbnSwQkAmaCgC5bi+iF5+DS2hsubSo+TdlMYJFhmBECJw9fgKene6ERabU6WNtZwj/o7tL3zWiaMhSJgESgAhCQBFYFgC6HrDoIUOHBL8lUkkgj96pzXav6TOiHlXooBsGjm4ly6qXVqCh67733BDllqsAiMfW///0PO3fuxLBhw+Dv7y/SCUkcBQXdrKZFIoqPU4FFtVaPHj2KRWAxHZBk1ODBg8EY3njjDQwcOBDLly8XKq0HH3wQsbGxeSTzlClTMHfuXOzfv18QSIyDaYRUfPF1TLKNXlv3338/Fi1ahFmzZgllF58PCQm5hcDS63TIycnNB6Ozi7NQhN2OwPr9998FLsSH/XPu7du3L5XLoUnMRuTcM/DsEQrnZl6l0qfsRCIgETAfBLIupyJuZRgChzWCtZd9qQdGYn3ixIlYt26dIPFNm7L2WbJkiVCyTpo0CY0bNy40hrCwMLGhwPc7U09D5WB6EfJ9kOf36tUrXx979+4VnwdK4wZFs2bN8MMPP+SlfXOjoG/fvkL9y8b30o4dOwolcGFejIUF+d9//4mHCyqCTcflZwQVs+yfeHTq1AkTJkwoNA2+JBeDcyGG/Pwqqo0dO1ZscHTr1q0kXd/TsUV9nhe301NHLqJGzZBCD6fSOjM7HUGh/sXtTh4nEZAISATyEJAElrwZJAL3iMCmTZvEgqY8Fxb3GLI8vZojYNDokbwrEtlX0+D7bD1YOZdOatntFrxcpPOLzPTp00Wq3Jw5c0R6HpVHbFRNvfbaa2jUqBGaNm0qiCUqoPi6IuFVsCkphDyeiigSWKGhoeIwqre6dOki/LGWLl2KmJgYYfJO8owpgIURWFRnsU8et2rVKvALDcksElmTJ08W/TL9kWTTrQqsVCQnpohjnJwdYWdvB1c3Z6Slpd+WwNqxY4eIj18UR40aJUg3pinea9Mk5yJ64Vk4t/SB233+sLCSRs/3iqk8XyJgjggk74yEOj4bvs/UKbXwSCixwvL27dsFYbP5/9g7D+g4yqsNX616lyUX2XLvxhhs03szHRtIKCaASagBAsEkQCD8lISShJDQE6oDhN4DoUPoGGNsio17L5LVe9v2n+eKEavVSlrZkr0r3e+gg7U785V3Rrszz7z33rfeagWwcK7OmzdPLrzwQlm9erVCfj7Tg4ERoILPW1ytr732WiuAxWcfn6uEmF922WWtABZzIVUDjQcCt912m0K1CRMmNK8XgMVrN9xwg74GyOLBA98p1113XVi64ModOXJkK+ewszPgDIB10UUXyfjx47UACOvlAQwabEvryQBr8JA8KS9tOn5O43o5LSM1LICFg3r48OFd8r24LcfI9jUFTIHIUsAAVmQdD5tNFCrAhRc5bAhJCieJdBQu0abcQxUo+2izVM4rkLxzJnZJOGF7AOv111/XJ/l33323Al9ueLjZOfvss1VdbkLuvPNO/TeQ6Ouvv1a3089+9jMFWcEtMAcWT/d5Ks+2tMrKSgVVwGVAFk+3CfUFoAGfwgVYPMV///33m6EbebPIjRUMsJivx9309D8hkTxZTa62cKoQ4jp78cUXVYe2EskDHP1ev4hLxBUf225Zb0+1WzY/vFjSdu4r2Yf96G7roaewLcsU6NUKeGs9mtA9c88BkrHHgHY/G8IVCmgFVCFcGijEZ3egAwv3FXk/cQWNGzdOP7d4gMDnemDj+wA4xWfcggULtABHsAMLlyyfqYRTE1Ie7MBy+uMz9oEHHtD8iWeddVaLcfju4DuA8HWnvfHGGzJnzhyFYsyBazOqzQK6+J4hHJyQc9y6zJ/rN+bP73zu33rrrfLdd9+pA/iKK67QEHIAFt8dPGBhPvRPuPs111yjDyD4PiOXIu5hwBzzRSveI8chQI19gH+8TuqJmTNnaj5IvqNwkaE3gIw1PvfccxruDqyjWi7bckx4wMKa0JLvoilTpuj2fMcRAn/xxRfrdyEOYtzEwDbcxjiRgYjM03EbO3o5OSdxwvEQBZ0uv/xyfcDihPvjVAZaoht6owlr57vcebDDPuhHw4E1dOhgqaqsbnG80DkxKUFq6tt2YAE+CftnTZxjaMV3ujVTwBQwBVDAAJadB6bANiqAQ4Mv+QsuuEBSUy3PzDbKabtvRwX8Hp9UzC2QqoVFknVQnqRP6rtNN0DBAIsLZ25QyImVnJwsN954o178UoWQJ/L8zoU8T8u5OSD5Oo2L4c6EEK5YsUKfzO+77756k/Dxxx/rBToFFjZu3Ch77723jkeoL/8m7MNxY3FBz4V5KAcWVRAJjeGGgot+booIawwGWPHxTRfWXo9X5+608ooKyRvWT5PVtgW3cQugWyjnla/BKxVfFEjt8nLxu/18Y0viwFTJ2n+QxOcktTpTapaWSenb6yVtcl/J3DtXXAldFx66HU9LG8oUMAU6oUDdmkoNJex3/EhJGZPViT3b33TZsmUKqYIBFsDoJz/5iX6WAoXIaThixAitPhv4OcfDPT4zgSl8loYCWM7nPd8FU6dObRNgrVq1SuESsITvkMDGfJgnEIrGdwDwB9iDexcAhVsKRy5zICfiwQcfrN8N/H7TTTfpdxBOH0K4gTfAJAAQYI3Qd75P6J9t+P4CsPC9A3Bi7cAl8igCb7799lv93gPyAGvuuOMOOfXUU9XNCwDi+4eHLHzvAN2AVHy/OE7hU045RahwzZwBcEAx9uG7CGhEnkjWyxyYF6GHfI+RM5I58zvHBkczx4T18PAFGAcI+uSTT+Sbb75pEZqJblzHMkeOIRqffPLJzSkBAHXkj6QvHgQx1+nTp6tu9IUmnAt8rzogE4A1eMgg2bxxS4vjlZCUIDk5We06sFgzjmTgJ4CRBzx87waHsnbZyW4dmQKmQFQpYAArqg6XTTYSFeAGnKdWXBgMGGDJVCPxGNmc2legbnWlFDy5TNIm95OcaYPFlRi3VSALeMMFPxf0uKe4kXjnnXf0op6n7MAa3ufilKe6PHUm3I+bHC6Gnep+zJYn5IR08EQ5VPvss89k7NixelNCI8zk3Xff1afS3LgAzGjcRPF0mYt3krRzcY4bgBsEwg+5+eJmhjCZAw88UG8QCFvgAh0gxo0GY3HhzIX6mLFj5bjpx2ttpfLSSqmrqNNEtbU1dfLlvIUtAJYz7133miQDBvYVV0yMxIVbdMkvUvjyKqlfXy0DTh2tSdhxWxT/d63Ub6ySvLMnSlxmU7ihr96r1QbLP9ksuaeNlZTRXXcTa387poApEPkK1K4sly3PrNRqown9uyYfVlsAq7q6WnMLAv0BPUAG4A2uLQAPjc963EpsQyMfFUCGz/hgmM/3RnsAi/cBPRTNoZ/gBsACkjlgi89wHjQceuih6jz629/+pkCJcYE6VKF1vh8IMQRM8T3F9w0hgbiKyO2F44e1AWW4xgPCsW6+3wgpBJLl5uYq5GGd7Ecf9I97i3/T+K6ZPHmyXHrppfrdwpzQlu8hXMm4pF555RUFQDir+K5xHFZOXixgGN9rPJzhuwzdabh316xZo68BznCxsRaAH5qSHxKHFyCL8Ece4ixZskRfI+diYOO4OiH96I1GTk7LjIwM1R7IyAMpvhuBbhxn9OG4cvwDGwBr4KBcWbF0dfPLwKik5EQZMmxQuwAL3XGVFRYW6nFDO4CWRTlE/meRzdAU2B4KGMDaHirbGD1eAZ5CcZM+atSoHr9WW2DPVMBdWq8QpH5dtaSMzpSMqf0lvm9rl0/PXH3oVfGEnpsSLthxSc2dO1euuvZ6eXZFsmwoa3JbZdUXyX7DEqSytEyqa2padVTmSZQ1icPEFZcgkwcnyM+npkhMGCmpqr8tkfK5+TLwjPESm9IydKL0vQ3iqXRLzlFDpWZRiVR+VShxfZKkz34DJTEvbavgY286rrZWU6CnKeD3+aVyfqHmNsydOVaShqRt8xLbAlhACx7YERoHJMJpC0DCDcRDAhqwH0jCNp40uQAAIABJREFUgwzAEw8BTjjhBN0vK6slYO8IYLE/LiocWA4gC1xcqBBC531gETCGUDQajiYAk5Ori893Qu4INwc44c4C1ACweBhCOCWAC9jDHJwQQvrCrYQzCnAD6OGHPIy4gYFBJ510UvM0WTMPaoBNwDUgG/vRLwCLBya4mNgPWAUcI0ckzmQacyIfJOvhwQ2OLxrrYo4AKsLq+Z7CiUX4Im4swBLb4l7qCGDxfef0wVo4dvyfcRmTB0/MEzgHWMJBxj6EDQK4OP6B7jgA1pAheVL6Q35IiRHp1z9H591REnfOMUAbbjOS+3PutBViv80nunVgCpgCUaeAAayoO2Q24UhU4MMPP9QvcHIRWDMFolkBX61Hiv67Rqq/K9HKVhm79ZfUnbKbIEqM9LonoDi73n77bX0aP+3wwyU9LV1qPX4hJVVnG7nUk+NjkLHDtuEf30nW3rmSsWdrV6e7uE42PrBICDGMy0yUASeP6ZIb1g4nZRuYAqZARCvA53bRq2tk4OnjJGlo+jbB7GCAhdscqAL8cYpPAFtwuAJteJBH+BgQJTDXFdADcOSEEOLMxUnjhIOFAlhAMT5z+QGc4JQCRIVy4HQGYBFKh6uX8Djct8ybED+qSQNf9t9/f00HwftHHXWUUGjDCTPHaQRIAqgwZ+AKrl/yOuLscgAWlRPJs0W/gCqAGc4nCoOQzxHABJzB0YUzDAiFG5kqg8AmXudh6M0336yh9MAiwB/VGHFpEXLIe4A95oprCpCIRozNvDgWuLr++c9/KpRrC2ChM2AInemTKowcF5xeFC8B2OGWJmwQWMXxLi4uVnjF+gBe5KjinGDc+++/v/nYt1eFsLHRLbXt5MBy/shwYpFawJxXEf2xY5MzBba7AgawtrvkNmBPVICnaljDcWpYMwWiXgG/X6hkV7+hWn8AJuTL8la7xZUcJ+IKB8FEvQo7bgF+v9Svq5JBv9hJ3XDBjeMA4IpNjpO0XftKYm6K3qy6Ei3n1Y47aDayKRABCvj9UrO0XEreXCdpu+RI1n6DxJW0dZ8LAAvgDGADwAGoevzxxzVnFEDh+eefV0cR0Ar4gksHJ9OmTZs0rMxxzAAhACk4mIAjhL0R+k3INg0YBHCh6itOdtw3bE/YHUCJ/alKi+MrVAPCAHVwUgW377//XnMhAoVowBegEX0yb2ASrjHC75gXoeyEBTIegIgwOmAW7ihgF6GDaMGcASvsz7qBOYS4kUYCgMdDD8LX2Y6QQ/ogZxZjk4ieMZgDr7Md+VOBUMyD8HlcX8AxgBQPR9GEEEJC+EgCT/gh86B4Cded/JsweNYLTGMsoBzgkDUQRkmCfGAT4I7QRaonPvTQQwr0xowZo7nOeI1jC4iiAAq5IxkTdxrQEv04rkAtNHH6YX64ydiH7Wnfzl8qI0eN0H9v3lQg1dU/OpR9Xp+4vW4ZPHSADB420ABVBHx02BRMgWhSwABWNB0tm2vEKoBLgws3x9YdsRO1iZkCpkBUKLDhrm8kY+9crS4W3JocWIvFW+MWv9cnJOQiYXv6lH6Std9Aie+XLDEGGaPiONskTYHuUMBT5Zb8R5cIVUlzTx0jScPS7TOhO4S2Plso8N0Wt8xf79bXakuK5JhRSZKamixfffmNeDxNrwe2spRc8fQdpvkhT5ucLInYlK2ZAqaAKdCBAgaw7BQxBbpAASzs5ExwquB0QZfWhSlgCvRiBQgFKv8sXwbOGq9Oq8BW8s4G8dW6pc+hg9VtUTl/i8KshH7JTS65eJek7dJXf4LzZ/ViSW3ppkCvUoAQ4+pvizU3VkyCS5JHZmqBh4R+SeJKavmZ0quEscV2mwLfF3pk4cZG7T9G/DIosU7SXO6QxU28EiMbGtKk0R+rpu6f7pIsCbEGsLrt4FjHpkAPUsAAVg86mLaUHacAeSHIY0CiSaqtWTMFTAFTYFsV2PLCSmnYWC25PxsnCTlJmvOqiCqE66q02lhcRlMVQr/XLxVz86X03Y2Se/o4iYmPkeLX1oq7pF4TOqeMydqmXDjbug7b3xQwBXasAnVrKqX0fxuldkW5OjZjU2LFlZIgsanxO3ZiNrop0AUKkNqg//EjJL5PYhf0Zl2YAqZApCtgACvSj5DNLyoUIOcB+SDII2CJ3KPikNkkTYGIV8BX75XKBYVSu7xcfI1eDQFKHJQmGXv2l4S+ya3mz3bFb62TtEk5krX3QL1ZxcWFC6vPQXlNSZ2tmQKmQK9VgNBCb0WDeGo84q1sVNhtzRSIdgVi4lzqLtzafG/Rvn6bvynQ2xQwgNXbjritt9sUeO+994RQQhJlWjMFTAFTYEcogEtr4/2LJHOPAZK5T65OofzTfCl5a530mzFSMnbvvyOmZWOaAqaAKWAKmAKmgClgCpgC26yAAaxtltA6MAWaFFi0aJF88sknWtbYSv7aWWEKmAI7SgFPZaNseXq5pE3qKxl7DlDnVt2aCil+e70kD8uQnGlDJCbetaOmZ+OaAqaAKWAKmAKmgClgCpgCW6WAAaytks12MgVaK1BUVCSPPfaYliFOSUkxiUwBU8AU2GEKeGs9svG+byXnyKEKsmjeGo9s/tf3GmYxaNYEg1g77OjYwKaAKWAKmAKmgClgCpgCW6OAAaytUc32MQVCKOD1euWuu+6S008/Xfr3tzAdO0lMAVNgxyrQWFArJIIf8NPRkpDbBNVxZxW/tkbIGdLv+JHiSozdsZO00U0BU8AUMAVMAVPAFDAFTIEwFTCAFaZQtpkpEI4C//73v2WfffaRUaNGhbO5bWMKmAKmQLcqUPFFgVR8sUUGn79zc4Jbv9snW55bIZ6qRhn0i53ElWAQq1sPgnVuCpgCpoApYAqYAqaAKdAlChjA6hIZrRNToEkBErn36dNHpk6dapKYAqaAKbDDFfB7/VL40iqJz0qU7GlDmudDsvfi19eJ3+uT/ieMVEeWNVPAFDAFTAFTwBQwBUwBUyCSFTCAFclHx+YWdQosW7ZM1q1bJ0cccUTUzd0mbAqYAj1TAcIGNz28WHJPGyeJP4QSslK/xyeFL64SX6NXBp4+XiSmZ67fVmUKmAKmQE9VoLqyRiorqttcXlp6imRkpffU5du6TAFToBcqYACrFx50W3L3KVBWViZvvfWWzJw5s/sGsZ5NAVPAFOiMAn6RirkFUvl1kQz6+QSJTY5r3ttX75Etz6+ShAEpknP4jw6tznRv25oCpkD4CjQ0NEh5ebkMGDAg5E5btmyRkpISGTp0qKSlpbXZcUVFhVRVVcngwYNbbeN2u/Vhmt/vl2HDhklCQkLIfni/sLAw5FwoTMNcnEZxmuHDh4vLtXVuzYKCAklPT5fU1NTwxSJvn8ej64iPj9f9fD6frq2mpqZFP1R/RjPGCKfRZ319vSQnJ//4eejzyapVq4RjFNiYMzp2Zu3Me/Xq1ZpSIja2+8K0N68vlFhXgrhcoZ9AVFVXysix9tkezjlh25gCpkB0KGAAKzqOk80yShTgguqZZ56Rs88+O0pmbNM0BUyB3qCA3+eXTQ99L5l79pf0yf1aLNlX55HNjy6VtF37StY+ub1BDlujKbBDFACM3HDDDQpafvnLXwrQJbB9+umnctttt0leXp4AfP7xj3+ELAoDHPnjH/8ocXFx8n//938t+mCM3/zmN1JXV6fwh75uvvnmVmOx07vvvqupD2699dZWejz++OPywgsvSHZ2tr4H0AJg3X777W0CsfZEvffee2XfffeVKVOmhK09sOqqq67S6s4jR47U/VjfHXfcITjeq6urFfY5cOlXv/qVTJ48Oaz+KbozZswYOfroo5u3p+9f/OIXCswCwdbYsWNl9uzZkpiYGFbfbFRcXCwXX3yxPPDAA5KZmRn2fp3dsGBTsaQkpbYJ10pKS2TYqEGd7da2NwVMAVMgYhUwgBWxh8YmFo0KcPHDRd9pp53W6aeM0bhem7MpYApEjwINm2uk6LU1MuisCa2qDzbk10jB08sl+9Ahkr5r3+hZlM3UFIgSBTZv3ix/+ctfFEztt99+AmwJBFi4pn7729/KpZdeqrCGawkgysknn9xqhR999JHcf//96u75wx/+0OL9//znP/LBBx80Q6nf/e53Wh159913b96usbFRIdDSpUslKytL/va3v7UaY86cOUJ15XPPPVffw2E+a9YsBTkAHRxROMlwgOFQ2rhxo7qihgwZIri1aAC0tWvXqivq6aeflv3331922mkn7WvQoCaoEujMQgO2xzEG5KPPX//61wqCDj300FYQ7v3335eHHnpIKKCDOwrwtGHDBnVWAdsc5xmgi75wtAH0KisrBV2AXT//+c+bwRT7odXVV1/dQi9HnE2bNimM4ljyf8dFh06MS2MM1t23b19dy4gRI3SNGRkZ+n+OaaBrDgccEA49AkFXfn6+6oue9Mkxoz+2qa2t1fVx/jgAq6qyWjweb/NxjIuLlYzMdCktK+0QYAEyd911V+nXr+XDjSj507JpmgKmQC9TwABWLzvgttzuVYCLmOeee04vBCZMmNC9g1nvpoApYAp0QgESum95ZoXE90uSnMOHttqzsbBONj+6RAbOGi+JA5puQK2ZAqZA1yiwfv16AdB8/vnnCnCCAdby5cvln//8p1xwwQXyzTffyN577y25ubmt3E7ADlxXwBegTDDAAm4AcoBKjHfttdfK9OnTFR45jddXrFihkAWQdcstt7RaZDDAwg11xhlnKOCZN2+erFmzRovWnHTSSbJw4UL5+OOPtT/6xkWGW4l5Ami4NgK2XH755QpwXnnlFYVENJxQAL1x48bJddddpzCHh4F77bWXwiZcaFR3xnEWHIoXCLDoH5CFa2zgwIEa/njffffpnC666CIFPwCoI488UrVjbrzH2tGZ1hHAAjACoXClEWpIHxynRx55RJ1sQCqcb7vssovCvksuuUSPKYCQ4w/I4/9AsxNOOEHmz5+vUBPIxet//etfdc2vvvqqrgWIhx733HOP/v/8889XuMnxvfPOOxUiOgCrtKRCtXca7+X0zeoQYDH3119/XY8lxw2gac0UMAVMgUhWwABWJB8dm1tUKvDmm2/qvI866qionL9N2hQwBXquAvUbq6Xg38sk79yJEt83qeVC/SKVCwql5K31MvDM8ZI0pO38Oz1XIVuZKdC9Cjz11FMaXhYMsD788EP5+9//rrAGAPPOO+/IeeedJwceeGDzhIBTf/7zn+W4447TPFDffvttK4DlbAzkAPC88cYb6sZyckgFrg4n0p/+9Kc2AdaiRYvkgAMO0F3I5wRYA3IAZJgjbrGvv/5a5w2IAn48+eSTClsIFQSMANgAK2xL2CRg6/nnn9dQShrQhjXikvryyy/lyiuvVIcU60QjoBF9jB49utWBCQRY5AQDKN1444261tdee03nAbB68MEH1XEFXGJOuMr4Hag3Y8aM5n4dgAVEAm457aCDDhJ+2A/AuMceeyhgIowRGMVaAIE4pRgfkHXOOefo8fvXv/6l8I3wyZ/+9Kfyv//9T8MK7777bg1XZF8cbQBAtAM4sm7AHWANRx1OOcY+5ZRT5LHHHlPY5zQHYK1dvVHX57Tk5CQZNmKIlFeUtevAAkrSPwAQLRg/OLS1e/8irHdTwBQwBTqngAGszullW5sCHSrw1VdfCT88KbNmCpgCpkBEKeAXKX5jrYYQZh8WIrGvzy+V3xRL2QcbZdjs8HPVRNQabTKmQAQr0BbAIv8V4XCAIJw6AK0XX3xRAY8Dn3hARuJ2XE84jdoCWLilcIPjdMLhEyrROxJ1BLAWL17cDNAIZQMiMTfgDw6pE088UYEQbi5C/WhALuAM1ZiTkpKaARFOH9zpbQEs9sNddNhhh2k/wCQcV2eddVZYAAsXGHNwkrjj+po0aZICOtxe3333nYIfoBKvA8raAliELOKichohkfzQP0ANLQjj5PgA+L744gsdhzBGjgt6BAIs3gNeAb6WLFmi+v3+979XUIXzif0IO2TNQD7OAV4HJBE6yP9xcgG8AJKByf0dgOX1eMXn9zfP2RUTI/EJ8dJRDiwHYKHbTTfdpG44a6aAKWAKRLICBrAi+ejY3KJSAWzgJHLHOs7FmzVTwBQwBSJJAU9Fg+Q/sVzyzp4grqQfKxI6cyThe/Hra6VhU40MPH2cxKY1Vf+yZgqYAtuuQFsAi/A23Di4m4AJn3zyicIQHE8ka6c9+uijCq1o5GECQAFkCEdzGiCEMb7//nuFLTk5OW1OuiOAFZgDK7ATAAxOseOPP14dRfzgPAK0ECL50ksvKfgijA+QQ2NduJi4LsJpRGJ5Gms+5phj1M0EmAGK0XBjAbS4lgrHgUVIH/oAYWi4kYB96IG7C3AGJCR3GPrgmGoLYLWVA+uyyy7TBPkALBxTHB/CM1kvLjRAIxASh11bAAu3E4npCV0kpBItOEbAK/TiGhKtyBnGnJk7ubA4FmeeeaYCrMBKjg7AKtxSok63uNhYGZDbT1yxTdUiOwJY7EOCfeAekQPmvtr2v3HrwRQwBbpXAQNY3auv9d4LFeCiidwEVCLs379/L1TAlmwKmAKRrACAqvCFVRLfJ1Gyp4Uur+53+yT/yWUSmxwnA04ZE8nLsbmZAlGlQCDAYuLAH8Lxxo8frzCHsDHgEOAKdwxV8kjKTvJzQAfuKhrQBJgFOCJnFI4tEp3j0nr44YfVLeQkBQe44PIBitGf83CtKwAWOa6oEojDiDkS+kaeLCoDXnHFFQpygCQAI8ICSRTO67iPAD2E97FuHEdALUL0SktLNVQOJxLrwJUE/AqGK4EhhE6YIuAMpxcgifxUOKQILQQ+OYn0CWHE2YYuhOY5DjcnhPAnP/lJizA99ALwMO9ggMWcybEFRCSpO443xu0IYAGucGFx7AkN5MEnsAq4Rf4sHGwAJY4lzrdDDjmkXYDF8Q3VOgJY7MO4QDGDV1H1UWKTNQV6rQIGsHrtobeFd6cCJA7l4iNUzobuHNf6NgVMAVMgHAXqN1RLwZPLZPCFkyQuIyHkLiR9z398qcRnJ0rOkcNaVS4MZxzbJvoUKNhcJBUlNc0OjuAVeDxumbDLqOhbWITM+LPPPlNnELmZyFMFoCAHEuAFp82zzz4rVKDDHeSE05FHifdxJDmNROrkwaJKIfmf2IYHZ4T0ES4X2MiZBSghbxO5qJwwOx64kWPp1FNPbaUOQAxYBjgJbriDxowZI7vttpu+hXsMKERyeuYJbCL8DxfYyy+/rM4qquyxPWALkAa4o5IevwOSWBtJzQFwhOvhxOI1kqPPnTtX4ZFTVdCZDyGOwD0AEvCFpPa4ogBgEydO1PBF4BNrAXaxbuAU/a5cuVLdT+SwIlk6zXEjAdYCG9ANIEXI4LHHHqsgEScVxwD4RK4w1sMcyFPG+7ilgGjANzTec889dVwgGhCT44A7DHDFXKgoSQVr5svxZBt03XnnnfUYsyauLQFcOLOcVrCxSJKTUlXvNavXS0V5ZYu5uz1u6ZOdIZP32ClC/gJsGqaAKWAKbJsCBrC2TT/b2xQIqQB5J7ggmzp1qilkCpgCpkDkKeAXKXhuhaSMypSM3dp2inpr3LLp/kWSMiFb+h49bLuuAzfE7bffro6MwITKTIIbf0KVcG9wM8fNIO6PUI2b6tmzZ2vIDjfRgY38MoyxYMECvbnGpREc+k0CZidsi31xYuAK2ZqS84zHDSghSp1x6OKUAWwAKBynBfAB9wh9BjYnjAkI0FFjX3IlcRPuuFA2rMuX9JRMiYuLDbn7li2FMmp8aOdeR+PZ+6ZAT1MAsMTnCxCNvyE+T/j7Bjx1V1tX6ZO/flil3ce7a2VGv3IZkJ4oa9du0FDDwEZWrIWeAVKUMlhfnjU1WfbIC/3Qorvma/2aAqaAKdCVChjA6ko1rS9T4AcFSCbKRY3z9NSEMQVMAVMg0hRo3FIrxa+vk0E/Hy8SE9Pm9HwNXtn86BJJHdtHsvYbKDHxoUNVunJ9ACWcKTgQSF7slLl3xiDfDSFJuCL4rCWHC6FLwVAIBwnv4RjBbYHbw2nc6AGicGqQywfnBu4IQFdgKA0hQ7zvACucHAAt+nVyE4W7dkK9cGYw92CY1l4fOD0IeWIdDsBibSSL5v9PPPGEOn5JrM37uGPaCikKHAd9gXY4cxxXhwOwPG5Pq5vh5JQkKSoq7hBg4ULBXUI1th7d/H7RvNn64xe/xy/S9p9Sj5aiNy/uy/lfyuv/fV0lwFlHCGF3tuJan3yypqF5CFeMT1Jj3SGH9PpjpM6boKcobbe8BBmSFRpOhzPnmDiXxMTaSR6OVraNKWAKdI8CBrC6R1frtZcrQOlmbnKwfVszBUwBUyASFfA1+iT/sSXS59DBkjIys90peiobZdODiyV9Sj/JPrTpSX53NnLi8ACAkBmSIwcDLJxXhP04YVgbNmzQ/DOBoTXMDxBGaA8hPOTUCQRYQBYqowGUyBVEdTBgFQ5ax41EH4QuAXny8vJ0yYRtkfPnnnvu0YTQhAURskV+H0KVcDQRMkVybSqZ4SR7/PHHNekzoeXMBYDFvAgdozIZoWO4NqhWlpycrKFHJJzmPRxoJM0mqTU5kXB6BDc0wvFx+OGH61tvv/22Qi1CmXCnEapVU1OjWhLW5fQLHCT0i7Av8vEQYuUArIb6BoVQgS09I61DgIXjjdCud999V66//vqoz6vjqW4Ud1G9eMob9Mdd0SCeskbxVDaI+PxNYOAHOkDYbTssuDv/ZKxvU2C7KNBvxkhJGZu1XcayQUwBU8AUCKWAASw7L0yBblCAGyOe5nNjZM0UMAVMgUhVoPyTzVK9qETyztu5w6fq/kav5D++TJKGZ6gTy5W09U/xw9EDtxJl46nIFQywgErAmaKiIq3ERp6ek046qUWOHPLhkLwZMEOoHRXKAgFW8BzmzJkjBQUFCpICG1CLHEG4uwhd/OKLLzTvDpDt/PPPV3cWpeepIEaOHMAVrjD6u+666+Sbb77RH+DTW2+9pTmKHnjgAQVdJJs++OCDNZk17wOdyGWEq2rmzJnqjMLFRIJvHF+40kh23R7AIscS4YaALnIpUVSEfYFi9EWybRKAMzbQj/XyPv/GteUArPzNW6SyorrFUGPHj9S1tRVCiD442OifRsLwK6+8sjnnUjjHfbtv4xcBUnkqGhVQNeTXiLukXrw1HvHVedRRxbnuSoyV2NQEiU2N08qcsSlx+jcT42KDGImJdQkFEmJTrGrndj+GNuB2UyCuT6LEpds5vt0Et4FMAVOglQIGsOykMAW6QQFuvJzkoFbVpRsEti5NAVOgSxTwVLtl/d8XyqCfT5CkIekd9klOrMKXVutN+4BTRgvhJN3V2gNYgCMAzFlnnaVJkylHDyjB8UTDOUTIHZXByEdI4uW2ABbQBVD09ddfq2MoOOztkksuUfcS7i4SJY8YMUKBFr8Dq4BRwC2qjwGjSNZMw90FFMJpRaJoHFLkrSLskbmFAlgAKpI+U32NcagOhjuLUD9y6wSGEAbq7jiwpk2bpo4t8njh7mJtOKEAgYAnABqVzQBu6MJrbYUQbskvlJrq2haHd/iooZqoO1yARWJqXF6hoFt3nTfh9uutdkvVohKpWVwq7pI6DaNNGpwmySMzJTE3RVwpceJKAFy5JCY+tkPAG+64tp0pYAqYAqaAKWAKbL0CBrC2Xjvb0xRoUwFyq3BzgiuAGxhrpoApYApEqgLF/10rMYmxkjMt/MTcRa+slrq1lUI4SdLw9G4JE2sPYP3hD3+QffbZpzlkDqcV8IbqZzTcUDivgEZUFsMRBMz67W9/2yI3FO8Bmgiru/baa0MmZg8OIXSOI+4vYBNOK6DXTTfdJFR7mzx5sm4CFCMkj7BCgBsuKsAa0Ovmm2/W7wiAG98ThYWFMmvWLE1KD4AiNBHAxPyATGvXrg0LYBF2CSwjrxeAz2mMTVgjubs++ugjzZ0FyDr00EPbBFjlZRVCGCEtO6ePkP+qSdv2k7jjNqNqHCGPt912W0TAK0L7CIP1lDVI/bpKqV1bKd7KRonPSpSkEZkaEgW0smYKmAKmgClgCpgCka2AAazIPj42uyhW4I033tAQF+dpfBQvxaZuCpgCPVgBd2m9bHlmhQy+cFLYq/S7fVKztFRK3tkgiXmp0veY4RKX3rWVrdoDWITwAWIAVw5IIgcVyctpgB/CAXEg4XoCGuF6IveT44olTI/XaL/61a+krap94QIswsYBTbjByHvF/4FRgBz6Pv300/XfVDXElfTOO++oi4tQQZxRuKiAXrjACEskXxbuLUIOCfsjlLIjBxY5sAByOLauueYaQUNgGfkYnVxX9AtUI9wR11pbDiwXoXE/5HbCcefo1hHAQk9cWujeVqL6hk01Uv19qfgaPJI8PEPSds4J+9zrzIZAq+rvcFmViLu8QeIyEiVtUo4kj8iQuIwEdVlpCKA1U8AUMAVMAVPAFIgKBQxgRcVhsklGowLkSSHZL+XJrZkCpoApEKkK+D0+yX98qWTuM1BSx7fOr9TevN1lDVLyxjppLK6TPgfmSfKIdIUEXVGJrbGxUQELTioqAC5fvlwdPSQ6T01N1aqDa9asUVcTScgJ61u6dKm6rYA3TgsM2wOokMydvnEgUYWQBw2E3NGoKgjwIZG60xiPELxgNy3OKAAa4Ax3U0VFheabIp8V/e+2224a4lhVVaXhhThzAWrANdxebEO+qOzsbHVq8X3B72wPWMPVRZ/k4CJ08aqrrpIZM2boOoMb0IqQwf3331/1uPXWW3VfxiL5/OzZsxWuAclYL++RF4wwRYAZbi9cYui6aUOBJCekSUJCvDQ2uqW8rLyp0t4PrbKiQnKH9JO+/bMlPj6uU6e1v9EnxW+uldqVFRquF5scJ/WbqsXn9smAk0ZL4sDUTvUXuDH5pwgL9FQ0CICsZlmZAGcBVSmjsiR1YrYk9E3uknNzqydpO5oC26DApvWy8u6jAAAgAElEQVQF4veF7oDPlsw+6ZKRlbYNI9iupoApYApEvgIGsCL/GNkMo1QByrxTzYqn2+GUM4/SZdq0TQFToAcoUDG3QCq/KlQXVmcdKYCDho3VUvF5gdRvrJakYema5D0xN3WbYAE3ZFR0JX8SAAcYQz4ogA+/A4R4n4qBTo4loBD5qgJzLtEPIXqAGwAVgIjXgFZAqMCGy4h8VoG5C3ETAZMYM7Dh4GJ/5uN8xgOPeI1xmIPTD44soBH9kLMrKytL+2Mu/M62JKN3+uI1fgdsAZVozIMWKp8U/aCDA+LQiu2ZV+D80IZt6ZO+aeTZKqmslSWVqdLodUl9fYMM9xbLhNGDZeWKNbJpY36rM9wbmyCeITtJfFKyjOgbJ5MGhJfUmdBTYFXfI4dK7A+OPV+DV2FTxef5TcUEOuGIIjSQc65uVYXUra4QgGp8dpKkjMpsclllJWrCdZKtR0pDb6pmTpgwodWUOC+BsIDZ3XffXc/FthouO0Jlp06d2moTzjfCODlH99prr+ZzKHBD9p0/f76CWcYKbswDaEyYKYDWaYsWLVJIS763zjSuiQDDbbnywumL9VDhee+9924xp472Xb9+vf79TZrU0mWKw5G/h8AGzJ0yZUpHXbZ4nz6WLVsWUsdOddTBxt99tVyGDA1dBZbPnvrGWhk8LLcrh7S+TAFTwBSIOAUMYEXcIbEJ9RQFuNEiTIQcKdysWDMFTAFTIFIV8FS5Zf2dX8ugX0yQpLytf4IPTCj730ZpLKyTuD5NzpekoelatcqVGq9J35srt0WqGL1wXsW1Prl/bo1U1DXZO3Li62V8cpX4vZ6Qamxwp8mGxiYAtv+oRJkxvsnB1l5rLKqTDXd9LUMumSwJ/X90uDn7FDy1XNJ36atOKcAUzsAff/zia/SKr84rjUW10lBQK+7ienVYuRJcTdBqTJak7pStjqtIbMCplStXqsMPdx5hq8FFXghDJbSUUNjPP/9cK12Sxy24AcFw5AFlyQcX2IC15HqjDwfyOq5FZztgEvMgT9rq1au1eiehrQ4AZbv77rtPQ1rpn/xyNNbANQ3XN88880ynZKYvgBwhrFvbALNoQmGF4Mqk7fXJw0RgHOHAgY1K0aNHj1b46zQg1/Tp0zs1xc2bN8trr72mLsbubIsWrJDhI4aGHMLj9khNXZXkdQCwCCsmdNmaKWAKmALRqoABrGg9cjbviFeAJ4XkLCH3SHul2yN+ITZBU8AU6BUKlLy5TmISYiX70NBP+MMWwdeUMNtd2iA1y0qlfkO1eKvcEhMX0wywXPEuiUmMk9jklq6msMewDaNOAdxRnopGGXb5lJDOvPLP8qX8400S3yepJcDy+cWVFKdOKuBUfHayJPRLlti0OHElx0lcWry+3xVhq90p6nfffaehoX379pXhw4e3AliEugKeCOkkZJYcbzgKyWsW3CgAgBOJ7YIB1lNPPaVQ6ne/+50CJ4APfTgFDugLoEUBgWOOOUYdeKQ6YG477bRT81AArI0bN+oDOKf4Aa4vIBDOPoAUjdBUiiBQKICQVAfK4eDiPdxMuLzYnvniCMRhSCVMnIrMkfDZJUuWqDa4wegDd9jgwYMF3dif+XJdRf47coviCsNFtmDBAtXTcbQB7XCf4WDEnca+bQGsiy++WMNtgyuP4lSk4AFVNOkfyMUPzemfuQ8dOlSPEWsCkAEEv/rqK9WRfHdoR1EHx6GJew0NAZislcaa2BYXF4UpcEfSJ3qgE05JB2ICsPIGD5KNG/IF56vTCOUdOKh/WADr2WefVfdce+6+7vw7sL5NAVPAFNhWBQxgbauCtr8p0I4CXLBx0eWUdjexTAFTwBSIVAU85Y1S8MxyGXzeRJFOhHGFsx5uttzFdeqa8dZ71EnjqWqMqNCucNZh22y9Ahz/+o01Mvy3AKzWIX3ln+ZLxRcFkjAgRXy1HnVcNTmwmtxYuPcICUzom6Tb4OKKTY3Xn2hIxk6xAZxOJOUnBC/YgQUweeCBB+TYY49VpxbQAsjDPoENCEIeN95nu2CAFbgtUAyQdfbZZ7eoShm4De4hnEgPP/ywgiCnAbAATgAcIBiuHR7KAZyoNPmvf/1L/vvf/2oxAEARoAkQBhy5++67ZfHixTJu3DiFW+z/8ccf69p5jTBbQmiBR59++qkA3XA+oQE524B46ENYHGAMwIMr6qSTTtIfcs0Bd8iJBzRibCqAkgsPdxZj4CZDKzTF1RbKgYWbDDgXGCKJqw0wxusAKjQASjEnfuf/QCcKM+BkO/HEExVIMQ7vkbMOCAU4Yz1ocvTRR2tlUQeKMd9LL71U4RbgkPEASrx/44036r5UE2VtbMMYNADWkKF5UrilRI+D08hXl9UnQ2pq23ZgEW59++2361rQGO2tSvbWf57ZnqaAKbDjFDCAteO0t5F7gQJcsHGhE/jksxcs25ZoCpgCUagAoCD/iaWStfdASRlnYc9ReAgjeso4sNbdvkCGXLxLyGTtWkhg71wNBaQ1hxG6m0IJyZXlrfOIt6pRGgrqxF1YqzmvfG6vVsBMGpYhqeOyJDEvLaLBKLAmFMAiHxNABrCB8wighBuJ6pVOA/wAHsitSYghwKMtgMW1B2kMcPY4rqngEwSnD9AFGHbaaae1yNcJwAJw4I4CqhGyR+J/wBJzA7xQ3ADgwnxxfQGWgFXMiSILOJAoaAPQ+frrr9W9RGEDXF8XXXSRFjfAaQW8AqoAmihI8OijjypA+tnPfqaFCdDm8ccf17BGgBDjUJCAap2HHXaYzvHNN99UgAXsQjPCHCmyQCEIgFsogMV2mZmZ6gSj4ZRCW36/8MIL5cEHH9R1P/nkkwqsAFgAOzRjG6AUOek4Tg7AAqCxNqAW4zKvWbNmyU033aRzAQQCHnHQnXHGGbomKpYyNlqR/wx4RYgoxy8wzBSANWjQQFn83TLxBQCslJRkGTNueLsAC1BJNVZgGQ0gSLGLwPDJiP4AscmZAqaAKfCDAgaw7FQwBbpRARK1zps3T0ugWzMFTAFTINIVqJi3RSq/3LJVydwjfW02vx2vQMm7G6Rhc430nzFCYjMSNGG7t9YjVQuLpGZpmeT9YkKn3X9UHqxbVyW1y8qkfj15u/xa4ZBcWom5KZos3pUYOaGqbQEsrhUeeughueOOOxSWAHbmzJmjvzuQ4YknnlAg5UCdFStWyNVXXy0DBw5scXABRAAVoMV1113XKkSOjQsKChSGAY8AU8HNAVgAHkLyAEXMEUgEPKI6KJAHeBVYqAa3F2Fq99xzT4suA3Ng4awiXxRQhzBDNAE4sW6cQjjMcI4xLxzsuIaAe8CtmTNn6visG1gWGPYIGGTewDTmRF9si+MpFMBqK4SQ0EkqlAKuAE7ktyIkETcWmgOoaEAoxsCBFgiwWBfHBIcWfTBnwF/gcRo5cqQmyCf3WODre+yxhwI41kuessAGwBo6bIiQpN9pwCsamrbnwMIBSH+40hgPNx3rsWYKmAKmQLQpYAAr2o6YzTeqFMDizoUcT9OsmQKmgCkQ6QoAA9bdvlAGnbOTQgBrpkBXKoDLr/TDjVK9sEji+yWLKyFWQ0uBTH2PHa65rbal+eq94i6r1yICtSvKtTqmKylWEoemS/rOORHhzmoLYFE1EtcRYV44lwjPw8UNdHAqYOK6IocSbeHChZqjavbs2Rpm5jTgBq4oAAkOHyr/BTfHnYQLh5C/4DBFtncA1gEHHKAOIvJoEb6HCwwohHsKNxXghjyfQDNAEfmggGbAN4AULjHgSX5+fnMSdwdg4WQChAGLAFW4tAA3HQEsHFjk8WJ9zA+IdNddd6ljjPkBiwBv6Amk6iqANXbsWM2nBXSiOWsMdmAFAyygHscRqAdY49oQyAYcw83GWmisAwjHOnC40U9gawJYg6WmulacAML09DSNyO0IYNEPDjgcZADQYOi5LX93tq8pYAqYAttTAQNY21NtG6vXKUC1Fy7EzjnnnBZPKHudELZgU8AUiBoFCl9ZLXGZiZJ9cF7UzNkmGl0KeKrdUrOkVHOhJY/M6DZYSu61utWVUv1tsdStqdAiBSlj+kjaTn30HI9NjdPcWtuzBQIsxsVVRbJwEngTdgfsmThxorz88ssKdoAj7LPvvvu2KAjz/PPPN4cQ4g56+umnFejwf5K8ExLoOLcIZwNksQ9hZIAR9gH+0AhTA2QFVvZzABYOckLfAEP33nuv5rQCYBHmxzbLli3THE+EvwGsAGr0T44mxn3vvfe0ciG5tJwqhA7AAgQBasi9RQL4d999VwEdoXu4q9pyYAGwmA8AibEJGyTZOYncmRehhzjg33jjDQ0jJGwulAOLEEgcZYHVF0noTu6pUA4s8mwRdkeFR3JloTNuqcAcWIQQBgMswgEBfuQkIwE9ieg5njNmzFDYR0J3ksTj9CJEcq+99moTYDlVCKk66PF6m09dNK2rr5G8obmSkPhjVcXgc5vjElz9cnue/zaWKWAKmALbqoABrG1V0PY3BdpRgAsKSk0fcsghMmjQINPKFDAFTIGIV8BdWi+FL62SvHMmRvxcbYKmQLgK+Oo80lhSL435terOcpfUaRXDpCHpkjw6U5KGpgvVMbu74Zoi9xQOKSchOq4l8ivhnqL6HG6mIUOGNCdVx8XE+ziznEZ4YEVFhUIbHpaxDeCF/EqFhYUtlgFwIVE54WMAMULymIPTABo4oMjn5DRyMeEQ4toFqOSMBfhiDKANebaYL64hABLgjX2YD6CLcEdyWwGn6IP3gFisG7cVc6fiHxULcSYBcchnRU4ugBNgC6CEY4wxqWgIrGKuADlC9OgXtxX70C9rZFzC43CWsR3rQ1N0CGyEROKGCmxAOMIqcW2hFfMi3JLrOeYCsOPfvI7muM9Itk8oJAnneY11AcVYG8ebpPKMwzqZG/ALNxfzQ1f65NijDRqwDtZLP+UNfqlo8OkUN3y/QnYeNUTzby1ZvFwqKiqbp05KLL/fJxn9+0ruuDEanpuXFivbmc9295+P9W8KmAKmgBjAspPAFOhGBbgI4YkaT9d4umrNFDAFTIFIV4CE2fmPLpGco4dJ4iALI4z042Xz2zoF/G6f1CwrV3dWw6Zq8Xl8kpCbIslD0yUhN1WrHcbEu8QVHysx8TEisS6FAjGxrSsobt0MbK9oUwBXFwnqjzzySJ06jjEcWcDF7mpvraiXOXNrtPsEl1fOHF4h/ZNjJD+/JaRsGj9GPq0dICvqMyU2Lkb+Nj1LBqR1P5TtrrVbv6aAKWAKhFLAAJadF6ZANytAiWguekjiac0UMAVMgWhQoPyTzVK9qFTyzp+oN+3WTIGerAC5szxVjeKtbBR3RaPm5cKh5an2iK/GrWGGMQkuzdnF/2NT4iU2JU5DEmPiYsQV6xLh/2y3HVxcPflYRPLaeCi5Yf0GWb1mtbq6CP3EYdadIXk1br/Uup2MVyIuv09/QjW/xIjX9WPBguwkF9x1q1t8VqIkWi7ErdbPdjQFTIHuUcAAVvfoar2aAs0KYBnHheWUSTZpTAFTwBSIdAU8FQ2azD3v/J27LT9RpGtg8zMFVAG/X9xlDeKpaBRvlVs8lQ3i4f9VbvE3esXn9onwf49PfI1eEd+PsMEUNAWiWYG0nXLUiWvNFDAFTIFIUsAAViQdDZtLj1SAhKwkJKUSDnkarJkCpoApEA0KFL26VlyJLsk5ovvCY6JBB5ujKWAKmAKmgClgCpgCpkBkKGAAKzKOg82iBytAklOqz1ARiGSf1kwBU8AUiAYFvNVu2fzoEhly0STKlEXDlG2OpoApYAqYAqaAKWAKmAI9WAEDWD344NrSIkcBymRTnWfy5MmRMymbiSlgCpgC7Sjg9/ml4Illkj61v6RNzDatTAFTwBQwBUwBU8AUMAVMgR2qgAGsHSq/Dd5bFJg7d66WcJ42bVpvWbKt0xQwBXqAApVfFUrp+xtl2OVTrPpaDzietgRTwBQwBUwBU8AUMAWiWQEDWNF89GzuUaNAYWGhvP/++1aJMGqOmE3UFDAFUMBb45Z1ty2Q3DPGS8poy+FnZ4UpYAqYAqaAKWAKmAKmwI5TwADWjtPeRu5FCjQ0NAhhhGeffXYvWrUt1RQwBXqCAqXvbhBvvVf6HTe8JyzH1mAKmAKmgClgCpgCpoApEKUKGMCK0gNn044uBdxutzz66KPyi1/8QmJjY6Nr8jZbU8AU6NUKeGs9snnOEsk7b6K4Ely9WgtbvClgCpgCpoApYAqYAqbAjlPAANaO095G7kUKeL1eee6552TfffeVoUOtJH0vOvS2VFMg+hXwixS+slpiU+Ik5wj7/Ir+A2orMAVMgd6mwKpl66W6skZEQleUzcxOk+GjBvc2WWy9poApEIUKGMCKwoNmU45OBd5++22Ji4uTQw89NDoXYLM2BUyBXqtA/foq2fjgYhk2e7LEZyf1Wh1s4abA9lLgs88+02uGPffcs9WQtbW18sYbb8i6detk1113lcMOOyzktPx+v3z00UcSHx+vD9CC2/fff6/5ORMTE2X69OmSm5sbsh/SILDdEUcc0cpF/vHHH8sXX3zRvF+fPn10uyFDhmyVVB988IHuO2rUqLD3Z51ff/21PiDMyclp3u/ZZ5+V9evXt+rn+OOPlzFjxoTV/5IlSyQ9PV0GD/4R7qD/008/LaWlpS36YPyTTjpJXK7wnaqbNm2S119/Xc4555xO7RfW5AM2Wrc6X7Kz+khMTGiAVVRcKCPGbN0x6+xcbHtTwBQwBbZFAQNY26Ke7WsKdEIBLq64yLvgggs6sZdtagqYAqZAZCiw+V9LJHlEhvQ5KC8yJmSzMAV6oAI4tj/55BO54YYbNO3ArFmzWq3yzjvvlKqqKjnuuOPkr3/9q24XCmIVFxfLL3/5SwVK559/fot+Vq1apdDk+uuvFwrNcH3yt7/9rdVY+fn5csUVV0hmZqbccccdCsMC27333qvgZfLkyfryl19+KW+99ZY888wzkpaW1ukj9Pe//1123313OeCAA8Let7GxUQHcPffc0wJMLV68WCorK+Xbb79V4HfVVVdpn2PHjm0ButoaiGNx3nnn6XXbXnvt1bwZ4IrX0B1g57SMjAzZaaed2oREocZBeyDgiSeeuF0AFrCvZYsRlytGCosKZeTY9gEW6TCCj3/YB8k2NAVMAVOgixQwgNVFQlo3pkBHCnAR+Mgjj8jll18uycnJHW1u75sCpoApEFEKeCoaJf/JZTL43IkSEx++wyCiFmGTMQUiXAFAy+effy7Ap7333rsVwAJ4AJSAScATXFTV1dWtnFpAnT/96U+Cw2e33XZrBbA+/fRT2bhxo5x66qmCw+q3v/2t3H333a3Uufbaa2XixIkyb948+ctf/hISYI0fP74ZoDGXs846S+dYUlKiLjJg2eGHHy4AHuAWUIk54S4DfuFywnnVt29fWb16tey3334ycuRIWbNmjey///46p5deekn22GMPGTRokCxcuFBwqGVlZSm4mj9/vgK/GTNmyJVXXtlqDR9++KE88MADWkyHVlBQoK6n+vp6nQPAjPbee+8J0It5HHvssereoj/GveyyyyQ7O1u3cwAWwGzAgAEtxvP5fJoyon///rJo0SLJy8vTOQJ+uA5kXBqOLvQYNmyYanLmmWfq/Fg3DzzZ/yc/+YnuV1dXJ6+88ops2bJFpk6dqprgpKqpqZFXX31VX0fPffbZR4qKivT8Ab6hLX3QHAdWcVGZSADEiouPk6w+GVJUUiQj23FgsWZyuTIOcLEtJ1eE/3nZ9EwBU6AHKGAAqwccRFtCdCjAxQQXkz//+c/1gsaaKWAKmALRpsCWF1ZJXGaC5EyzUJNoO3Y23+hSgOsFYE2wAwtw869//UvD7N59910FLTwYAxQ5DZcNMKS8vFxfB2QEO7DYlu3+97//yUMPPSSHHHKIuo1CNULm/u///k+vYUI5sHA0sT9t8+bNcuGFF8pdd90lDz74oGzYsEEuvfRShU033nijplGYNGmS4NzCxTRixAidP9dGQJJ//OMfcsstt6h7C2cS+9IuueQS3YZ+mAtACaiG4+vmm2/W93CThXJuBQIs1vyrX/1KDjroIIVHjPWb3/xG14Wus2fPVqAEiGO7iy66SGbOnClHHXVU89odgHX77bcraHIafdA/bipAE+GE6MBYvPazn/1MTjvtNOnXr5/CQF4DOl133XVCuOPJJ5+sDjKOFdqhDf+mgjWQ7cgjj9T+6AOodu655yqAw3133333yemnn65QjHnzHjoTYhoIsBbMXyQet6d5zmnpqTJh4mgpKS1uM4SQ61fgIKAsNTVVWLcD/aLrr8pmawqYAj1BAQNYPeEo2hqiRoF///vfejHBRYU1U8AUMAWiTYH6dVWy6aHFMuRXu0jCgJRom77N1xSIGgXaAlhvvvmmQozf/e53Ggr38MMPK+wB9DiuGJxL5GgCzOD8bg9g4RJatmyZ4MgCAAGIgltHAGvBggXNTiQcSMAVnD9XX321zhEAA2zCfYRTisY+uKqAO7iuHMB200036WttASxycU2YMEHDJ3FQvfbaa+ruOuWUU1qFEDrrCARYuLcIwWR7dGH9hGNOmzZNAdZPf/pTBUeAGh42thdCiFsq0FFPbi2u73CgAetGjx4tzz//vK4VsPbf//5Xx2Zc3FsAr0CABZi65pprFA6xzieffFJhIIAPhxzbL1++XObOnSu//vWvVUtgFdWtV6xYId99952CPo4jxz8hIaH5UDoOrM0bC8Tn+zGMMCExXvoP6CvFJUVhASzOMUBbKKdb1Pxx2URNAVMgqhUwgBXVh88mH20KcAGHFZyLM2umgClgCkSjAvmPLZX47ETpe+yItgpaReOybM6mQEQp0BbAIlcVoX44dIAnABnyRuGicoAFUIMwuIEDB8pXX32l6yIXFq4gpwGaaMAUXEPk0nLAUGcBVmAIYeC+QDbCIE844QQNzwOU4WiiAVxwYR144IEK3nAj0R5//HEZPnx4mwDrhRdekKOPPrrZacU6PB5PyBxYoQAWEAm3kxOGxzY4sXCGoS26Ll26VAEcbizAWls5sEKFEDIXgN0f//hH7RfARngkYItQyj/84Q86LRxygLNAgIVDC/C18847ax60+++/X51luLWARk4j6T4J93GrHXPMMc2vA90I9ySXGTAusDkAa+2ajeL3+SQhIV4GDhogsXGxull7SdzReM6cOfLOO+9own/WTWJ7a6aAKWAK7AgFDGDtCNVtzF6rALZz7Po84bNmCpgCpkA0KuCtcQsJ3QecMkYS+lk+v2g8hjbnyFegLYBFWCCACqcSVe8ee+wxWbt2rYahOdXvcOjgmqJRARlABIQBDDkNUIRTC8cPDbcUSclJQh7cOnJghQOwcDr985//1DBE3FXkdMJ5hTOJPE6EBRKqhrOH0DuqCQKacBmVlZVpwvnf//736jJiO35HC/rDfcbcg5O4O+sIdGBRufHPf/6zAruUlBSFVkAnYBLrBKSRV4x54IACYnUFwCLXGHnL0CApKUkBFyGiHQEsjisQjeNM2ChwDd1wf+HKIrcX/fA6Oc0AW6ytLYDVHD4YE6PhpU5Rwo6qEAI5cYXhDiOhvzVTwBQwBXaUAgawdpTyNm6vVICLJCrzkKfAmilgCpgC0apA+SebpWLeFhl62WSJcYUuyx6ta7N5d6wAjoziwlJpbHCH3Bhg0m9AtiQk/hjC1HGvtkWgAoEAi+pvhJJRTZDQN9xMt912m4a6kXOK5No4YoAkAKlApxXAxAkhBPjggALMkEgddw8wiYdrOJJwTJFjiwTsuG0APLSuAFhAJ8DRRx99pJAFKIUDi3xQJIrHkUXj3CFkDscSrjHmAFwiWTqQaty4cQqUeJ1k7OSmYjvcS2xDiF5wgvHgJO6AJJLl45AiaTuuK8IFzzjjDIWC5HoCrAHGAFkkzscF5SRsd3JgAYACc4/RByCQML5gBxbHC+j4zTffaHgifRJy2BHAAjQ6P2hCRUVCSHHL4boD8gEdgW6sHZ3bA1howzaBebDQnRxYI8cNbbEe+4s0BUwBUyASFTCAFYlHxebUYxXgop+8BFjTeQJnzRQwBUyBaFTAV+eRjQ8ulow9BkjW3rndFkpIFTBudgNzuTh6cVNPPhhuIMmz01ZVLD53uUklOXKoz11ugqkOhjuFqm5tNdwNVPjCGYITYmuqcJEYmhtvxynT3cce1wQ3tlSZC25oBrwIp/HwBR2d49BQ3yiF+WWSnBTagccNcnxSjGT3bZ1PKZzxbBvRCnjozfnPceRc5/wkaTi/kxydKn/kWQJe8RrnOVAmMLwLwEXDpcNxpB/HZcXfEM4d52+IXEoVFRUa6ka+Tn6ncexx/YwaNarVeU+VQ87pUH877ENSccIZacyR1wBSzNs5/5gX86AfwiL5Py4f5sL2/L0B0RiDtVF9j3WwDU4kGkAOR9kuu+zSao6AO3Rw1s35yRrphzUxR5ozHmPQL3+njMtY/L04QI/5Eg5JSojAxtwBbMA44CKfN1STZHz6xBnnaPjiiy/KvvvuK3vttZfOm9A//lad/FvMhTkDqmgcb6AX1QsDKx86r6MR5wZr4txhv6Jan6wqakrYXltSLBMHpEp8XKx8vfA7qa1pOXe28Wb0lQFjx+v2YwfESXaSVZu1zyJTwBSIPAUMYEXeMbEZ9XAFSGLKBSYXK9ZMAVPAFIhWBbxVbtn4wCIZfOEkiU35sQJaV60HJwi5fcj3w018YCN5M6E1hAM1NjbqTSuJi0OBIaqUUbHsqaeeUndFYOPGlETX3Exz00fOGedm29mOm1Ty1lDantw0OCCmT5+uYVydady0447BibG9HmBwo86YADpgBf/nBhhggVOEm+1wGo4dAB833DQAVnlxtTpJQjUFXjEeye5roUbh6Gvb9HwFAEskdydJvvM5RQ4rBxJ2hwLvrW2UOz+u0q7jxCd7phZJbod1iO8AACAASURBVGy9uD0/ViF0xm2QOPm8PleqfIn60u8Py5C9BsV3x7SsT1PAFDAFtkkBA1jbJJ/tbAp0XoH58+fr07bAhJyd78X2MAVMAVNgxytQ9slmqfm+TAadOU5cyV0HsYBWODII5SGvTTDAIgyJz1Ly0wCGCE26+OKL1WUS2Lhp5D1yD1IFlocHTgPoEELFfoAZABehQfwe2LjJZFvy0ACecL0QVjRr1iwFWowBGMOlgvOCMdgOWIRji0TahEktWbJEEzRfddVV+gCDG1e+C3BHOdXMcJEwBxIl49wArNFwiwCenApxjMlrOEecvEY4VdiP+dFfsLsKpwxhTUBBp3Ia0A53SOD2OE7om214HScIIVfMZcaMGep6cQBWYmKSlJWWi//HomaSmposiUkJHQIsIBd5egj9cpwtO/6M3rYZ+L1+8dV7xFfvFV+Dt+nfjT7xe3zCe+Lzi9/rE1+Dryn01qJvt03wKNubv3U+12jA4+0FsneETGmTciQ21QDYjtDexjQFeroCBrB6+hG29UWcAtwwcCNFrontFUYScSLYhEwBU6BHKMCN+Yb7vpXUcX0k54hhXXZDTtl5Qv7IdUNFrWCAdcstt2j1MoAP4OjII4/8ISFxSyJALhjACwCGPEGBAIsDwA0lYVo4ukgiTU4act84jb5JFo1rKtCZBdDi85uKZiSnxs1EH8yXpNM4u8hHQ9gRMAiIBsAiHxHVzsjZg9uLCnIAIUKrAGVUqiW/Dc4mxgBakaAbmESoELlwsrOzdRy2AZLRH3mNSOhMmCNhREAhcusEtkCAxY0zyZ+pkMYYQCondxB5fwh3IlxpypQpcuyxx2qibMK3cLIRhhUIsEqKy3T+TkvPSJPExHjxuzzSJye0Awvd0RRHMjmd6DcaW2NRvdStr5SGdVVSt65K3KX1Cqm0+f0SExsjsekJEpMQK674WIlJcIkrIVYhVmxavMRYhFY0HnabcxgK9DlksCTkWJGPMKSyTUwBU6CTChjA6qRgtrkpsK0KcJPDTRVP87nRsGYKmAKmQDQr4KlslPx/L5X0yf0ka5+BXQaxgBwkbQ4FsHBJkYOKxNO4nAjrA7KQn6qJHfjl3Xff1YTUABkqi4UCWGwLGMIJBPw588wztU+nET7IWMCdUGXjX375Za2KRhJqPtvPPfdcdVkBh3BZ4bRduXKlwi5AEZAJRxnz4kEG/eI+wnFGuB/5cEgWzVwJ8wNU8X0BwANSnXbaaQq5cF7NnDlTAR4wjLU//PDDCpfOO++8kPm5AgEWUAwIePPNNytAI6G1k8ibxNAAOdbL68cdd5zMmTNHcyLtt99+Ko0DsOLi4mXl8jXid6CNiAwY2E/6ZGe2C7BwkNEv7jnWCTwElEVk84u4y+qlYXONNBbUSmNhrXjrvAqoXImxCqjiMhMkPitR/004LW7E2OQ4cSW6yEoekcuySZkCpoApYAqYAtGogAGsaDxqNueoV4CbgT322EPDT6yZAqaAKRDtCtRvqJZNDy6SftNHaGL3rmjtASygFK4roAewCjAEpHLgE2Fwt956q+bJIkcW27UFsNifH9xQ5It66aWXmkPacEEBkQi7C1U6PhTAIl8WMIswQ+aBQ4oKcoAaB2A98sgjOi/HeeRUSePBBjANGEUfzAf3GI1/4zrDxQW0c3LnOO4xKtNRpe6YY44JKX8gwCKZNNDN6QN4RkgTII0ww08//VSTSZ999tly0EEHqTssFMBKSUkVnw+Y8+OQMS6XvtaeAysQYJFsGuDnhDV2xbnTFX0QBlj5VaFUzi+UxuJaictIlPRdciRtYo7E90tWd5W4YppgoTGqrpDc+jAFTAFTwBQwBTpUwABWhxLZBqZA1ytA7hZCNg477LCu79x6NAVMAVNgByhQt6ZSiv+7VjL3zpX0qf2acvxsQ2sPYAFUqMRFRVfC/EjEfuqpp8ree++tIwJ47r33Xn2PXEvvv/++TJs2Td1RDrTB/YMD6fLLL1c3LGF/uJwAWIFuK9xBRx99dHMCc/ojJJCqX4TVkSSesEEqDOJ+AgBRPQwHFjm8GJuxcHI5AIsxcG7ddNNN6s564YUX5JNPPtH1ALfaAlgHH3ywPP/887rdUUcdpWslRBEtAFJAPeYaqgUCrG+++UZIzA6YQw/mjpsLGEMOLXJ2AfSeeOIJTWCPEysUwCLnVtGWEuVXySlJ0qdPU8ggGrUHsNgGuIf2gD6nklzwvAlRdZc2aP6o+KyELs2zFjyWp8otDfk10rChWuo3Vou/wSMJuSmSOCRdkoemS3yOVQ7ehj9n29UUMAVMAVPAFOgSBQxgdYmM1okp0DkFCEvhyT3hINZMAVPAFOgpCjQU1MrmOd9L+i59JefoYdsEsYIBFknNcSoBaABUABscSyQvf+WVVxT84JgiJ9UhhxyiIXkOKKFqIM5XXEXk1wKw7L777vL73/9e4uPjNXQQZ9P48eMVQgU2whNJvH766adriB95m5gHkMlJ6I47in4BPrz+3HPP6UMKksQDf8izdcYZZ8ivf/1rhTYAJ+bOuIQWApLIi4gzif3bAlisi1xchBVeccUVWoWRnFm4y3gtXICFtoyPo4s+0Qb3Gm4oYBywDf1wRhHS+Oqrr2rOrZNOOkmdUuFUIewIYKEx7rG2ElnXra6QLc+tFG+NWx1ehOXlHDlUMnbrutB7AFnN0jKpmLdF6tdXSXyfRMmY2l9Sd86ROHJUxREC2FP+Om0dXaEAbs0tm4vEFxA2G9gv4D53UL+QYbxdMb71YQqYAqZAb1fAAFZvPwNs/TtEAVwB3OhwQ6PhB9ZMAVPAFOghCnjrPFL0nzXib/RK5r4DJXlExlaBLCATSct/+tOfas4nXE2AKj43qbAHqCLPFf+mOh5QiDxWX3zxhe7jNEL1cGNRwp4E6B988IECLBxZQJoXX3xRIRgh3biaQpW1530qGQLRqHRISCJ90Xj9q6++UvhVVlamgI28ViRIJ9cUFQrZHgDEfKlUyMMLYBVJ4HmgQZje1KlT1U1FfizWCIxjvU7F2v/85z+a2J5xWOPHH3+sfR5++OH6Os4sABTOr1CNaoPANCAU0A4IyPgka2cf9OB1HGWEEBLyyGvk1QKUodNeB02TUeMm6tzqC0slt1+2arl40TLx/QAMGZuc7n7xSb+heZIzeJCmgeqTFCPxYbryqheVSun/NkjW/oMkdWyWxMTHCkCr9L0NWjCABNEawteJRp4uT0WjuIvqpH5ztdSvrRJvVaPEZSVK0rB0SRnTRxIGJG/VudqJaYS9KY44dHbyugXvyHEjb1leXl7I/GzO9kBWrjlw1QU3jh3nKMcdR2GowjK48/i74lwDtgZfszAPICR/o07jb5U+Q40ZtgA/bMgcqdaJFoGNuQKkcQGG04C27MN5Td471rI1hXQaGxplzfLNkp3TJ+SwVOUcNnqgVuK0ZgqYAqaAKdD1ChjA6npNrUdToEMFeILHzQBVooLLvne4s21gCpgCpkCEK6DOlmXlUvz6GonvlyL9Z4yQ+GwLwYrww9bh9OYsqJWXF9aKX/wyMqFczpnoktrqGikqKm61b4PfJc9VjpY6f5IkxcfI7Sf0kcEZHZfdAzKt+/tCGfizcZIyNqtFv75Gr2z85yIZNGu8gqf2GmGHJFzHWVW3ulLq11aKt8GroYBpO+dI2k7ZEpfRVCGwszCsQ6G2cQNCTnEHEhJLRcngRhoCwli5fiBM9b777msGqoHbAm+vv/56rYZJQYTABtCZPXu25mIDvFKBc9asWS22IcyTsFpCZQlBxa1H0YBAiIVLj/xpQFinMTeAMg7EbW04GQn1BcTxA3Qm5BdohvMRgNdRYx0AbHK84WDEvUk4cbjwq4WmDY2yeV2x9O3XVDAiuJUUl0rukBwDWB0dFHvfFDAFTIGtVMAA1lYKZ7uZAtuqAE+4ecLaVr6Sbe3f9jcFTAFTYEcrQF6his/z1T1Dwuvk4RmS0D9FK7XFJMZGjNtlR+sULeMX1/mkuvHHjO2xXrfE+Dwhp+9zxYkvNl7fw4GVm+qSxDBcU3VrK6Vy/hYZdtmUkOF7JW+vF5/bJymjMsXv9omvwSu4/ny1HvHWesRT1SC+Wq++50qKldiMBEnomyyJeamSOChVoVUkt8WLF2vSfJxRp5xySiuoRNgloagUAAAckcsMtxM54IIbjjtCY3EAEjIa2N566y114BF6ChQiPxtOxcBGBdCsrCyFX4AynIEPPvigOp+cxj64AgNzepIHjsqZhOMyXxxczBHXU2AOuvz8fO0fpxYuMSAZvwOqhg0b1sohBSwDthHSS2Pe6ISTKnB79sdhCKzih0qghOtS9ZPQYRxigC/cYzgpcWQ58wPOMRe2wfUFLGNMtuc9HFgArLT0NKmtqWuhV3JKstTW1HQIsNCEPHSEJFszBUwBU8AU6JwCBrA6p5dtbQp0mQJY4p999lm9aAwVstJlA1lHpoApYArsSAX8IjhnyGVUvahE6tdXi7u4TjyVjQawduRxidCxfR6fpIzOkoFnjAs5w8ovCqTw5dUKRIlVJDSQ5kqIawoHHJqmoDRpcJrEZSeKizxWYYYuRoIkhMYCcchrRlhfsCuKnGxAI9xT/HvPPfeUgQMHtnITLV26VG6//XaFSxQlCAZYuJIANYS7Eo5KiCrbBzbCTnE68YMTitBcxgachQOwqGJJgQVc5zywmzJlilBBlDBa3FOsD7gFkKNIwNVXX60hqYT5AdaCHVKBAIvt2AbgR4451oHzCyhF30A2xgGmUTCBXG4UP2AsChOQ6w3nGtdi9EWYLPNljYT/Ug0UCAe0IjwSxxbzcgBWSmqKlJdVtdArMytd6uvq2gVYwLSnnnqqOVSY3HrWTAFTwBQwBcJXwABW+FrZlqZAlypA3hMuvs455xwLI+xSZa0zU8AUMAVMgWhVoGZ5uRS9tEqGXT5FYuJbhxwW/We1JOalSer4bPE1eMRb47iv3OKtdYunvFE85Q3iqXYLoaz0gesKB1ZCvxQNISScNdLCBoOP15/+9Ce9NggGWORRI3H/vvvuq+CKnG7nnnuu7Lfffs1dkLfqtttu0xA+nFY4lIIBFhsDsIAp9EGuM+BSqAdqbEeRBCAPIYmAnHAA1hFHHKHbEwJI8n9yupGDjQd3wCTWQJ/33HOP3HrrreoqYy0HHHBAyNM3EGBRJZO8b7ixmB+AirQMuKlYLyGD33//vTqxeB23O9vj9qLyJfoyL8I0jznmGK26+dhjjyncokDCddddp2GQhB3SJ3AsEGDFxsbJ5k0FLeY5cGB/Da9tL4QQWAh8pAHe6Let9Ubr37DN2xQwBUyB7lTAAFZ3qmt9mwIdKECCYp6O7rHHHqaVKWAKmAKmgCnQ6xUgJHD93xZK1kF5krXvwBZ6kIA9/8llknfORIlNawpPDNVwZQGvCCP0e/ziLqmXmuVlUruyXDylDRpWSA6s9Mn9JKF/ckRq3hbAomgAYYHAnMzMTHnvvffUzY0zygFLQClcV8cdd5xu2xbAYuG4jwhpA+YAlYKvRwij42Ebji0cUjidAhvjkmOLYgJOc0IICT285ZZb5PPPP1e3Fb8PHz5cLrzwQnGSqgOfcHpxPQTEAkS1lbg+EGCxrqefflqTy9N4KHjCCSdo2CWVPnF84U675JJLdP2hABbwCNcVoY0kxAe2XXDBBRrCiRsN5xkQjKqgwQCrT3aWuN0tw2fj4+OkvKwibIA1evRoBWRdkew+Ik9im5QpYAqYAt2ggAGsbhDVujQFwlUA6zsWd5KnWjXCcFWz7UwBU8AUMAV6sgINW2ql8PmVkjKuj6SMyBCJjZGGTTVSMbdA+hyUJxm79Q+ZHyscTbxVbqldXSF1a6uksaBGdyE3FtUyE/olq0MrhrDDHdzaAlhUxCQJOZAFgPXhhx8qyAGEOAALEEQoHQ2HE43k6ziinIaTC7cVidkJ8WM8gE9gLisSvP/973/XXFOAIKBYcAOe4XK6+OKL9S2AF/8GnuGwIq8VQIrKmXPmzFFn0x133CHk1yJED4BGfi2qiRJuCCwjhDJUCwRYzz33nOamcpxl/JvrKNZL3isqhr7zzjsyb948hXjMJ9iBBZTCBU9+KwdgMQdeZx7AMRxTL7/8ciuAlZiUJGWlFTrNtLQUyc5pmnNHSdwdYPfQQw/p3Nta6w4+/Wx4U8AUMAUiVgEDWBF7aGxivUEBLty4oMMybwCrNxxxW6MpYAqYAqZAOApQjbDiiwKpXVmhTqrkEenqyAIwaVb4bW3kZnOTm82jlQorvypSoEWBgbRd+krG1H4dVjrc1im0t38gwAJ6EOaHi2nUqFEKgQgfpPIfoOW0005TOPXmm29qknKqBgKlaCRd5/oCZxFwCeDFtnPnzlXHET+4lYA7hPIBgj777DN9sEaoIknSqYTowLExY8YoOHPa8uXLNSQO99akSZMUVDFXXEu4rMg5BfxiDriryDuF24ok6UC1r776SnNUkbeqMwALaMa4OKgAayRopz/6XbBggf6b8Mkvv/xS3VQkskerqVOnatgh+oYCWLx20003qatsl1120VBMQjmDHVjbUoWQ4wkcxOFlzRQwBUwBU6BzChjA6pxetrUp0OUKkCiUJ4M8MbRmCpgCpoApYAqYAjtGAaAZYYZAMwoNALMSB6dL0uBUzZsV1ydRXAmx22VyuH6okHfggQeqSwkgBFAhnxPACdcVuZnInwSQAorgbDrxxBNbVAnEhQQ8mjZtmoYB4vwh1xUN2ATkAU7NnDlTRo4cKQApABOQB/cV+wQ2gBEQK7AtW7ZMKxoClQjHI4zPCYubP3++vofba/r06ZqsnfW89NJLWomPax8qKDqJ66kW6IQFBguNa6ympkbhGo2E9+gEmCMHGGukPfPMM5rgfujQoVp9kP4Yb9WqVQrTeB8oR+J6HGjoTN4w3GRUWkQDdCG0EneWkwyeUETcaKuWbJBBeQOlvr5BVq1oSgLvtMZGjyQmxcmESaOlT86PoG+7nDQ2iClgCpgCvUABA1i94CDbEiNbAfJXkLsBiGXNFDAFTAFTwBQwBXawAj6/kIuLRPCEGlYvLpGGjdUSmxwriXnpkjImU1LGZGlyeGs9SwGcayRx55qsf//+CvHIn7U853BZX+bVxQ7xFcuJYxOkvLRMiotKWglQ64+Tz2PGSENssuRmxsp1h7QOvexZqtlqTAFTwBTYfgoYwNp+WttIpkBIBXiy9+KLL6oVnoo01kwBU8AUMAVMAVMgshTw1nukbmWl1K+vlIaCWvFWNoq4YiQuPUHishK0wmFcnwR1aMXEx4orwaUVEF1UUiTikbBH/ouJEZLMN73eBaGQkSVTj5jNkiXfy7PPPqdhfvvvv58ceeRR8uk6t5TX+3R9HLXk2EaJk6YwzeBW74uVRn9TpcbURJccOjJxm3RxJdq5sk0C2s6mgCnQoxQwgNWjDqctJhoVwKJOfobTTz9dq/NYMwVMAVPAFDAFTIHIVcDv9Yuv3qO5uXyNPvHWuqVxS524S+vFW9Wozi2SxfO6Ag8HYDn0wy8SE2vwKnKPcGTNbMivdhFXUhMQs2YKmAKmQG9XwABWbz8DbP0RoQA5HEi6SkJWa6aAKWAKmAKmgCkQ/QrgtPLVetRxBfQSv1//7a32NAEsl0Gs6D/K3b+CxNwUA57dL7ONYAqYAlGigAGsKDlQNs2erUBJSYkmOSV5KElCrZkCpoApYAqYAqaAKWAKmAKmgClgCpgCpsCPChjAsrPBFIgQBR599FGZMWOGOrGsmQKmgClgCpgCpoApYAqYAqaAKWAKmAKmgAEsOwdMgYhT4OOPP5aysjKFWNZMAVPAFDAFTAFTwBQwBUwBU8AUMAVMAVPAAJadA6ZAxCmwadMmwYV16aWXSlpaWsTNzyZkCpgCpoApYAqYAqaAKWAKmAKmgClgCuwoBSyEcEcpb+OaAkEKeL1eefjhh2W33XbTH2umgClgCpgCpoApYAqYAqaAKWAKmAKmgCnQpIABLDsTTIEIUmD9+vXy6aefyimnnCKxsbERNDObiilgCpgCpoApYAqYAqaAKWAKmAKmgCmw4xQwgLXjtLeRTYFWCvj9fvn3v/8txxxzjOTk5JhCpkALBUqLy6WkqKJNVZKSE2XI8FxTzRQIS4HCghKpKKviWVbI7ZOS42XI8EFh9WUbmQI9UYHNG7ZITXV9G0vzS1Z2hvQbkN0Tl25rMgVMAVPAFDAFIlIBA1gReVhsUr1ZgS+++EI2b94sJ5xwgsTEhL6x7Iw+NTU1wk///v1b7NbY2CirVq0Sj8fT/HpKSoqMGjWq+XeA2pIlS4TwRhrzSU1Nlby8PElISAhrGuT2ot/OVlcsKSnRXGCJiYnN4zDnNWvWaH9Dhgxpfr2hoUHXMnTo0B6TP8zn80lpaan07du3eZ2b1m+RzPSsNnWvqKyQvGEtj3NYB8k2UgXQHBck53d8fHwLVVavXq1/R05zuVwyfPhw/XsIblVVVXrshg0b1uKtoqIiKSgoaLV9dna2jhlOc7vdUllZqYC7uLhY55mZmRnOrq22WbV8g/TL6SusJVRbv36D7LTr6K3q23YSqa2tlYqKChk4cGALOTiGfI7xueU0Pk/HjRsXUjbOJRrnSVuNz9kBAwZIXFxci02YA2NxbtM41nwWM6dwvl/Yj/35bA3+m2jvGPPdwbyDH8TwGb58+XIZPHiwZGX9+FmGTnzvjR8/Pqx5bY/zizVsWlcoWZmhP3N5v7a+RgYMsodN2+N42BimgClgCpgCpgAKGMCy88AUiDAFuJB/4IEHZObMmS0gzdZMkxvcW2+9VW+0L7nkkhZdMM4rr7wi9fVNT5cXLlyoN9HXXntt83bcbBx33HFy0EEHSb9+/RR2sd3BBx8sp59+elhTevnll/VGfsqUKWFtz0bc2F155ZVy2WWXyYgRI5r327hxo/zyl7/UG7V77rlHkpOT9b3PP/9cZs+eLXfddZfsueeeYY8TyRtSkfLOO++UG264oXmaXQGwuOkK58Y1krXpjrlxrj/xxBPy5ptvqu65uS2dbPytbNmyRYfOz88XqoY+9NBD+rcV2Kqrq+WPf/yjnsN33HFHi/f42/nyyy/1b+7JJ59USA2UmDBhguy///5hHZcPPvhAFixYoOf7Z599JhkZGTJp0qStkqQjgLVu3QaZONkA1taIW15eLn/5y18UqF9zzTUtugCEvvrqqwoiaStXrtTzhfMuuC1evFhuvvlmOfnkk+XEE09s9T5/zx9++KF+9j3yyCMtoBAbf/3113L11VfL8ccfr/CKsefNmycXX3yxnnMdNWAb/fJ91BlQyt/B7bffLtdff32LIQDEhMizlquuuqr5vb/+9a/y9ttvy+uvv94KwnU0x+56v6sAln3mdtcRsn5NAVPAFDAFeqMCBrB641G3NUe8AnPnztWb5enTp7fpjuhoEWvXrlUYlZSUJLvuumsrgBW4/4YNG+Q3v/mN/PnPf24BjLip50aDmwtusmmF/9/encfaOqV5HF/33Ml1Ry6l0VWVkotqtIimFZo2Uy3xB9KGNsZQIUKnUhKJqA7RIpGQjpgiYkpHlTIkUlUipkQk/uEPVClCDHUH3OtqpXCCO3R/1ul1bdsZN3c75/q9yck5Z+93WOv7PuvZ+/mt51nvypX1vLfcckudMZed5Qs6kUrWlCwT2QTEMNlTgn0ZU4IfQY3/bQSC+fPn179lrMhMIaxst912RfAnwLrooovKfvvttyHbi4AlGBS0C+BbthiRztphv/zlL6uA5XjtkD0gg0kWgGwAbRXACRZdX5u0XZ8cY5OZ4Pz21T8ZDI53jPfsr63aLPtGe61XZl/ZD4QnQSthQlaEoFG2mOwFPO1HwJAF0URB3PSdqIiJtr3wwgvlhhtuqEHeDjvsUM9DwFowb1FZ/d77ZfCTwY5bOK18/4fblbEysPTpxRdfrJk7hx566LgEk7HsbFN5n02zGXZy/fXXf0XAav10DwlUBNljjz32S91/9dVXyyWXXFLHnHvbLWC1nQkXyoTvuOOOsmTJkmprxoXx0WlT9mvjQgal8951113llVdeqaIEm2FzxhvbITCzS7bVMi71x/12XnbK5o1HWxOwli97t5T1Qxk6tmnTBsq223+vLF++YtQMLCyeeuqpap9+sg0RMO4vvfTSypuP6hawOjnxFyYXjPNuIfLZZ5+tvtf9MpHQbW/Ow4Z+97vfVVsw8dGZ1eR9AhYB7Fe/+tWGdRUdQzRjQ2ye/bEt/o29sTvX5Nv4nc6sxGZP+uZ9kwidPtR5vC7Liv2biGAbbU1H58KDz73vvvuqr2WzJ5xwQj3u5ptvrvs2n6xf/KH92meL367pM0Y72b12Gz/8bGsX8c1nht98uPdlktnfPWp+2IQIW9a2lsFmP9eWgbVg/oKy8p336nnaNmv27PK9bRaPmYHlmLvvvruKhTvttFOGSAiEQAiEQAiEwNckEAHrawLM4SGwMQj4gn3PPfeUn/70p18qIZvItXxZF2z4ov7cc8+VCy64YNjDfcG+8soryy677FJnxjuzc4YTsHzJJ3QJTs4444yyxx57VHFr9913rzPuAntBg+vLHhKA2efII48sV1xxRc2eEqAQUrxPsCEeyGRxPQGdQE0AqD3HH3/8BqHLeb1+9NFHbwjqBDMCMWLZ6aefXktTLr/88rL33nvX88lg0C6ZYA8//HDZd999qyglqL/qqqtqNoJMGgEG0ZDAJWvgscceK7/5zW/KT37yk/LSSy9VgYuwIdvBe7vttlstr9Rf7bzwwgurcEDIe+KJJ+r7hCtZN4cddlj9cbxgzT5/+MMfKj8BJ+FN6QzRS1aNYJZIIUvn1FNPrewEZkMC1sKyYtk75YMPrF00tAky/27XJWMKWBjcf//9NdjD7JBDDpmISW3S++LNNs8///xy7bXXjihgGUs4st3uBy2wEWLkyy+/XB59BksQcQAAFNJJREFU9NFxC1iyTprNsLU999yzZtywY0E6O2ZrxglbJU4TBggchCrBNhHXGCRUeZ1NsRk2ThgxTmRuEQ/aU06bgPXqK29+qZR4+sBA2fHHO1TfMVIJIXGYkEcgIe4a23vttdcmbSPj7Rwfwr/wv7KKOjONOs+BIZ9AQCLWd9tTE5dk/xFEhxOwTD4QJWV7/eIXvxhTwCL8EImcm291jOwsPsl95Nv4TuOBT2KHsl6vvvrq6tP5UvZDMPXZoW8mD4hiJhsIV/vss08VVYmtJ598chVrW/mhz48bb7yxDA4OVtHKMbIZ+T1tch0+U9YXX90Ef3ZLoCO8sXPtY/u4GWvaoL3PP/98FbD4YxmV2kNE5OfxlrmrrQRjnznG80knnVTHO38sK5KQh02dNPh/AevN15eWwcEvSj7nzt28/PBH248pYLmerE5Cn8/C7rLi8dpU9guBEAiBEAiBEBgiEAErlhACk5SAwNCXbl+qx7ve1HBdkc0loB1JwBJQmKEXVHQHUAJnYhERh7giYLFGF6GIuHbuueeW2267rX7RlzF1xBFH1GDIfoSXn/3sZzWwIGAJnBxLILC/DK62Dgox67LLLqvHCbhPO+20Gqz7uzOzowlYghkCH6HJLD5RSOBPSCJOEa0ETgIu4pxzP/3007UtSm30iwBwzTXXVDFCwEPAcyxxTikPgUdwJ3Akql188cU12HScvhKetBc7wSNhTRaboIh4QAyxn5IxAZZAkMgg6MeZIKFN7q9jcRTk4SLIESTq/3XXXbfhtrYSwo8/+qT2oW0yZhZtsWBMAasFb44TUAnkOtc8m6RDoW/NEsCfeeaZIwpYhAaBsYB3tPIrAauf8WZgGZuycAgRbQywE3Yu01CgLiNPdiFbMl6MDwF6E7DY8q233lrHFhtW9kvoYmtsjyjO1pyvW8D664cfbVgjqX4xmDatLFy0oCxdumxUAYsAYX0kG1GBD5GBk22IADGFHYwkYBG5+BM+SdbmSBufMJKA1Y5hDyMJWK5PBG9ZnuyHOCrbiO9yfbZ99tlnV38mU4iYzybZMDvki2666aYqyh9zzDHV//CtxC0ZRmzB5wQBl09Wckjk7fRf2urzRn9kFxNUfR7INJXpSzgmYLWyc76J0MVvsmnirddko/Ht+ksU8llAjOeT2SOBzv7e99sYeeihh2qmWvPr2m5/AhZR3+vEsNtvv736blsrIVy4YGH564cfl7Vrv1gvcubMGWXuvLljClj8BXHOphz+zjvv3JABmXESAiEQAiEQAiEwcQIRsCbOLEeEQF8ICBCUfRBEDjjggJ7LvcYSsH7961/XUgqiVPemDYKVc845p2Z5CIZlGfnbbLbASNAh+LGfoKhlYRCXiELKqghYRCWz4TKTbMQi7ws4BO5nnXXWhssLWggJIwlYAi4Bh3ItwYogQSBDwDKT3tbHEqCY3bc/schC3IIxIoFjiQSEJEFLK2kUdAqUBDP61jIH7C9I1C4ZCu11woAgTgaKgEnwIwh036wTJpvAejeEQCKD7ASb4wStgjFZDU3scD+IADIThhOwZGC98/bKGlDZFm+1RRFMLVg4f0wBSwAnOGzlQ8oIu0XLvhj3JL3IWAIWW2E/7KW7VKuzSxMRsNgJQYw41cqX2MZ5551XBVcZPIQOogKblCEznIClTYJ1G6HBOJMtKLBnSzZ2edRRR31FwHr9tT/X8Uzg2HLxompP8xfMG1PAIn4QIZR7+du4yPpqX1jCWAIW30Tg/vnPfz7qiPi6AhZBnd0a6/yWrD6CmExB4hH/I/vJmoPEKP6HD+b3+TS+iW8n+ijFawKPLCz2RUglMnUuMu+90QQskwr8rx/Xdx2TBAQs3IjrrqN00P98OL984IEH1qxXY0R7+UgTI7/97W9rv4hOPnMItT4TfBbISvSa//lkbW2+rz2ghH/2meIpwE1MbAKWEsKlb60on376WZk+faBstfXiMmPG9LL53DljCliyxmT+Ghct03mSur80KwRCIARCIASmBIEIWFPiNqWR31UCRB4ztmanuxeVHi+T0QQsX9AFxcSrlpXRed7hSgjb+00EEnw4j9n74447rpaLeE92lsBcFhkBy4y5jBBBiiwRAZOyPzPjMquIYc7z4IMP1v1Hy8CSrSQwECTJTtMHAhMB68knn6xBmgAGP8GhcxEDugUsQZkf7VS2JWizf1t7SkAjKLMmTBPrtF9AaFZfP2Uc+Nv7owlY2iaDiyim38qMCIfaOBEBy1MIP/v0s7J27dCaRbM3m10GBoaeVjnWGlj2EbTKVmNTI4kN+uVHwIvvd0WUGEvAUhLlaZdsZrRtIgKWNbBkYBF8iQrNpqztY30pgpOxIxuGDbV1zLozsIYTsAjGzklcdl7jhFDcnYElMC/rh3rUaU/jeQqhvsqK2XHHHYdFYkzzI9ptXE7kSXbj9XGTdb+xBCziizK5gw8+eKMKWN1rYLWL8QWy5vgfPo4Q38rciJJsjjDJNp1DZioBXimj+ypLizgkg5T/t9YiW2W3+++//6gCFuFK/wlgyql9XvCfBCy2TWhS+spPymzVLn6/W8AiCjUhSyZtE7u8TrQzaWAdxMcff7zce++9dV+TDfptMkb2rmvw/T4ziHHtyaJfZGAtquWV69cNPQBjszlDT8Yd71MIiXHYTORBJpPVptOuEAiBEAiBEPi2CUTA+rbvQK4fAmMQUEpopl7QYIZ5olu3gCWjQ/mYrC5f2pXrCWBkVXVv4xWwHGdNEuUisjCsy2L9F0GEmXOClJImgYkSFAGCp6kJfPxPEBLIm1VXYmJ2nlBEVFL21BZ7byWEAhlimIBLCY4gqAlYMrqIYtac8reARvAlSOoWsAQybTF663gJ6KyNIuAwa27tGZkx+qaMkLAlm8p6Rfopk0kmjsBHX0YTsFo5C8HKtdxXZT1t7bDuDCz3xzEytPwQkrqfQrjm8zVlfVMeSqlB6LY/2LrMmjVzRDMRiMn0GS7zisih3JTwwTaIDco8lcu1oG6i9jeV9u8WsNxfNiAbSlYKe2aT7kfb3nrrrRqwK5lt20QFLFl3hFc2JVOEaNpELeKoDEU2J+B3PZkoxFU21EoIhxOwOtfGIhjLBjS2ugUsgrIMrJaN0vqxbNnyssvuS8r0GdNHvI18BDsZTuRkQ9jwB8Y2v8P2MWzZZlPJPiba1m4BSxao8a/UmvhBTDTGZaLa3IMHHnigCisyhNrWmYFlH36WfyOKtG20EsLxCFj8gckDtitjj8hNmDS5wf4JSwQrghZxyr3lg40JZXjsj4/nY4mZ1pDiF/k4ZeWtDL6VEGoTP82nOgfbbwKWrCl+WNah8eBvr1kXq1vAch7HGzOyw1yfrWNkXBGc9UOmGxslwrmmvuy66651YoOAqPxxJAFr0cJFFTMBa01HGeGQgPVJ+Zvtt6oZWSNtBLLvgv+c6PjI/iEQAiEQAiHQC4EIWL1QyzEh0GcCxB5fxAUFE3mUuWZasNtsOqHEZi0dwYQFb2UAKUkSLAkuuzcBrbIzYoqgqnMTSFnbo3MtIIGDsiWL4MosEBgrI1FWKOhvAS2hQLDT+uILvuMEwgIUGUoW7xV0HHTQQRv2M7v/zDPP1ODNpu3O7TxeJ4IpOxFQCZQEYvpPfBC8EHjs39ouaBGEEAcE2M4ryDfzr42CHOKVvhD5ZA1om3thPwJBK5sSCJlhlzlDBCK67bzzzjWYIqQRwmxKrgRZ7ocATZ+cC2ObgE0wab0UpWJvvPFmOfDQw8vszTYr7y5fVebNnF3mzNmsvL3i3fLKy6991RKnTSv/eNDeZd6CuWXGtFJmTR/Kzhprw+SRRx6p2XACbMIi0Q7j9pSwJiSOda6p+j5711/3wn10/91LdsE22Tsb68yGVN6ntLDdP30nMrG/ztc6mRB9BO+HH374BttuNmX9MzbKXokdBCDConGAf7NXWSXs2rj1uja0UkF2I5gnrhr7bM54J4Scdc65ZcmPhwSTd5auLPNmOcfsaktKU7u3+YsWlL3/+R/qyzMHppWZA+O7u8aacjSsCMzGKCGLjRFFCRubevkq22ALTTAkkLv3xr7xRiziP5XJ2dxbGavEjlZq7XXiu/tMiLEPn8xHdS4Izv8RBvmnzo3/4UetWdgtMhrfbEUb+Opmu2zetbSTHzRRoDzVvXRf2SQBkn03YYadEej4RO1wPu3mz2QRts8XvsTrfKqHHljTrQlcjmfDfDGfjBHb8ZlF5DNGZFnJKvSedtjf55jPD6V/xDXjlF92LdfXZn13TgJc88P8srbqq32db8guZ5TBtetrVuKyN1aUbbbcovbnxRf+VN5f/T9fGQADM2aWg/5lf4vHlVkD08qMcY6R8Y2k7BUCIRACIRACIdBJIAJW7CEEpggBmVS+yAumiRtToaxLIGHmXnZSW/tpiuCuC2ITc2QTEABkO8iyaYFev/rx0Wfry389/VFZ9dHasnbN2rLtuvfL7tsMlPdXrf7SY91rAFymlT9/Prd8MPf7ZWD6QPmnH80ux//9V4XJ4doukCWkEUmJN20TKLZgkrCVbeoQkAEkW5F4ypaJuf/27/9R/vuFIVFz3f897XTn2X8pP1qwvqxatbrI6OvcFKm+vu57ZXDu1vXlf91zbtnvb0fO7us8VgZjy/TsFKoIBZ6uyR/IzMw2uQlYIF1WmAyr0Raan2y9IPS1p9zKUiRwySYzQTLWturjdeU/n/iwClhrBgfLHgs+LtvMWVdWrnyPyvilw9eUgfKnz7YuZeFWQ2Nkj83Lfj+YNdYl8n4IhEAIhEAIhECPBCJg9Qguh4XAt0FA5o7Zd7PQZp4FFILDySpmyUoSSJgVn6xtHOk+Em5kNSxfvrxmVo20xs/GtoM169aXpR+uK35PdJs/e6BsM3egjCcHS4DKpoYTFWRxEB2sc9NvAW+ifR5tf7Y41ezw6/Rff/kMGTWyntzfjz8v5e2P1vZ02i3nDJTFc8aXXmItIU8C7RRD20UJ8cofrZk3Ve0JW9umbE98oMXRZT/JPJxqm8ws5fcysGSLEbLGs322dn156y8bf4wM1xaZnt+F8trx3IfsEwIhEAIhEALDEYiAFbsIgSlGwMLlSimsU6QEQwCVL7xT7CZOsuYKxq0zI0NhuLXQZM0QuIgNrRxzknXhK81Rdte5ppM+an93idVk78dUbR/xw/p6w/FWmmkdL+sWtbWRJnM/9UXpX+fmte/aovST+R5tKm1TPty5ttmm0q/0IwRCIARCIAS+KQIRsL4pkjlPCIRACExRAsSdm266qa6F09ZK6+yKDCwZNRYWj1g6RW9yn5tNoPJ0z+EWr/7jH/9Yy1VPPPHE2FOf70suFwIhEAIhEAIhEAJTmUAErKl899L2EAiBEPiGCCjpUtpFVOjOivGEPIs5W4w5WwiMh8Dvf//7WuLcveaQBzYoR7V4dlvcfDznyz4hEAIhEAIhEAIhEAIhEAErNhACIRACIVAJ3H///bVUilBl7SJleNYBe+2118opp5xSn3aXLQTGQ8AT+DyF0NP0rL1lrT5rEhG2CKQeFpAtBEIgBEIgBEIgBEIgBCZCIALWRGhl3xAIgRDYhAkMDg4WT64jWHmUvTWjPDDAIvaLFy/ehHuerm0MAqtXr65P8FyxYkV9mIPyUw9DYE9TYe2rjcEk5wyBEAiBEAiBEAiBEOidQASs3tnlyBAIgRAIgRAIgRAIgRAIgRAIgRAIgRAIgT4QiIDVB8i5RAiEQAiEQAiEQAiEQAiEQAiEQAiEQAiEQO8EImD1zi5HhkAIhEAIhEAIhEAIhEAIhEAIhEAIhEAI9IFABKw+QM4lQiAEQiAEQiAEQiAEQiAEQiAEQiAEQiAEeicQAat3djkyBEIgBEIgBEIgBEIgBEIgBEIgBEIgBEKgDwQiYPUBci4RAiEQAiEQAiEQAiEQAiEQAiEQAiEQAiHQO4EIWL2zy5EhEAIhEAIhEAIhEAIhEAIhEAIhEAIhEAJ9IBABqw+Qc4kQCIEQCIEQCIEQCIEQCIEQCIEQCIEQCIHeCUTA6p1djgyBEAiBEAiBEAiBEAiBEAiBEAiBEAiBEOgDgQhYfYCcS4RACIRACIRACIRACIRACIRACIRACIRACPROIAJW7+xyZAiEQAiEQAiEQAiEQAiEQAiEQAiEQAiEQB8IRMDqA+RcIgRCIARCIARCIARCIARCIARCIARCIARCoHcCEbB6Z5cjQyAEQiAEQiAEQiAEQiAEQiAEQiAEQiAE+kAgAlYfIOcSIRACIRACIRACIRACIRACIRACIRACIRACvROIgNU7uxwZAiEQAiEQAiEQAiEQAiEQAiEQAiEQAiHQBwIRsPoAOZcIgRAIgRAIgRAIgRAIgRAIgRAIgRAIgRDonUAErN7Z5cgQCIEQCIEQCIEQCIEQCIEQCIEQCIEQCIE+EIiA1QfIuUQIhEAIhEAIhEAIhEAIhEAIhEAIhEAIhEDvBCJg9c4uR4ZACIRACIRACIRACIRACIRACIRACIRACPSBQASsPkDOJUIgBEIgBEIgBEIgBEIgBEIgBEIgBEIgBHonEAGrd3Y5MgRCIARCIARCIARCIARCIARCIARCIARCoA8EImD1AXIuEQIhEAIhEAIhEAIhEAIhEAIhEAIhEAIh0DuBCFi9s8uRIRACIRACIRACIRACIRACIRACIRACIRACfSAQAasPkHOJEAiBEAiBEAiBEAiBEAiBEAiBEAiBEAiB3glEwOqdXY4MgRAIgRAIgRAIgRAIgRAIgRAIgRAIgRDoA4EIWH2AnEuEQAiEQAiEQAiEQAiEQAiEQAiEQAiEQAj0TiACVu/scmQIhEAIhEAIhEAIhEAIhEAIhEAIhEAIhEAfCETA6gPkXCIEQiAEQiAEQiAEQiAEQiAEQiAEQiAEQqB3AhGwemeXI0MgBEIgBEIgBEIgBEIgBEIgBEIgBEIgBPpAIAJWHyDnEiEQAiEQAiEQAiEQAiEQAiEQAiEQAiEQAr0TiIDVO7scGQIhEAIhEAIhEAIhEAIhEAIhEAIhEAIh0AcCEbD6ADmXCIEQCIEQCIEQCIEQCIEQCIEQCIEQCIEQ6J1ABKze2eXIEAiBEAiBEAiBEAiBEAiBEAiBEAiBEAiBPhD4X9+LdpzOCJ5CAAAAAElFTkSuQmCC;" vertex="1" parent="1">
                    <mxGeometry x="1220" y="3743" width="950.13" height="285.83" as="geometry"/>
                </mxCell>
                <mxCell id="20" value="Search" style="rounded=1;whiteSpace=wrap;html=1;shadow=0;dashed=0;strokeWidth=1;align=left;verticalAlign=top;fontFamily=Helvetica;fontSize=8;fontColor=#999999;fillColor=default;strokeColor=#666666;spacingLeft=7;movable=1;resizable=1;rotatable=1;deletable=1;editable=1;locked=0;connectable=1;" vertex="1" parent="1">
                    <mxGeometry x="1300" y="3696.75" width="190" height="22.5" as="geometry"/>
                </mxCell>
                <mxCell id="21" value="Numbers" style="rounded=0;whiteSpace=wrap;html=1;shadow=0;dashed=0;strokeWidth=1;align=left;verticalAlign=top;fontFamily=Helvetica;fontSize=12;fontColor=#000000;fillColor=#E6E6E6;spacingLeft=40;strokeColor=none;" vertex="1" parent="1">
                    <mxGeometry x="2050" y="3751.75" width="98.96" height="30" as="geometry"/>
                </mxCell>
                <mxCell id="22" value="View" style="html=1;shadow=0;dashed=0;shape=mxgraph.bootstrap.rrect;rSize=5;strokeColor=none;strokeWidth=1;fillColor=#660000;fontColor=#ffffff;whiteSpace=wrap;align=right;verticalAlign=middle;fontStyle=0;fontSize=12;spacingLeft=10;spacingRight=20;" vertex="1" parent="1">
                    <mxGeometry x="2050" y="3696.75" width="98.96" height="25" as="geometry"/>
                </mxCell>
                <mxCell id="23" value="" style="shape=triangle;direction=south;fillColor=#ffffff;strokeColor=none;perimeter=none;" vertex="1" parent="22">
                    <mxGeometry x="1" y="0.5" width="10" height="5" relative="1" as="geometry">
                        <mxPoint x="-17" y="-2.5" as="offset"/>
                    </mxGeometry>
                </mxCell>
                <mxCell id="24" value="Levels" style="rounded=0;whiteSpace=wrap;html=1;shadow=0;dashed=0;strokeWidth=1;align=left;verticalAlign=top;fontFamily=Helvetica;fontSize=12;fontColor=#000000;fillColor=#E6E6E6;spacingLeft=40;strokeColor=none;" vertex="1" parent="1">
                    <mxGeometry x="2050" y="3721.75" width="98.96" height="30" as="geometry"/>
                </mxCell>
                <mxCell id="25" value="" style="html=1;shadow=0;dashed=0;shape=mxgraph.bootstrap.switch;strokeColor=#660000;strokeWidth=1;fillColor=#E9ECEF;fontColor=#7D868C;onStrokeColor=#ffffff;onFillColor=#0085FC;align=left;verticalAlign=middle;spacingLeft=10;labelPosition=right;verticalLabelPosition=middle;buttonState=0;sketch=0;fontFamily=Helvetica;fontSize=12;rotation=-180;" vertex="1" parent="1">
                    <mxGeometry x="2059" y="3761.75" width="20" height="10" as="geometry"/>
                </mxCell>
                <mxCell id="26" value="" style="rounded=0;whiteSpace=wrap;html=1;shadow=0;dashed=0;strokeWidth=1;align=center;verticalAlign=top;fontFamily=Helvetica;fontSize=12;fontColor=default;fillColor=default;strokeColor=#666666;" vertex="1" parent="1">
                    <mxGeometry x="2055" y="3726.75" width="30" height="20" as="geometry"/>
                </mxCell>
                <mxCell id="27" value="" style="shape=image;verticalLabelPosition=bottom;labelBackgroundColor=default;verticalAlign=top;aspect=fixed;imageAspect=0;image=data:image/png,iVBORw0KGgoAAAANSUhEUgAAAMIAAAAtCAYAAAD887RmAAAAAXNSR0IArs4c6QAAAARnQU1BAACxjwv8YQUAAAAJcEhZcwAAITcAACE3ATNYn3oAAAASdEVYdFNvZnR3YXJlAEdyZWVuc2hvdF5VCAUAAAGpSURBVHhe7ddBCsMwDETR3v8W3faSqZZmECiD5QSb/2BWsaMgOot+LgAXRQACRQACRQACRQACRQACRQACRQACRQACRQACRcArvt/f0rgoAl6R/Xg741pehNkPxD3unt3z3XR+d1wU4RDunt3z3XR+d1wU4RDunt3z3d6eryjCIdw9u+e7vT1fUYRN6V41lezOmNWenlehCJvSvWoq2Z0xqz09r0IRNqV71VSyO2NWq+bpczcuirAp3aumkt0Zs1o1T5+7cU0XIfuImTwt+4aZ4J5qb/rcjYsiJN8wE9xT7U2fu3FRhOQbZoJ7qr1Vz5V7XlGE5BtmgnuqvVXPlXte8Wd5U7pXTSW7M2a1al71XLnnFUXYlO5VU8nujFmtmlc9V+55RRE2pXvVVLI7Y1brnjf7PoqwKd2rppLdGbNa97zZ91GEQ7h7ds93654/+z6KcAh3z+75bt3zZ99HEQ7h7tk9303nd8dFEQ7h7tk9303nd8e1vAhAJvvxdsZFEfCK7MfbGRdFAAJFAAJFAAJFAAJFAAJFAAJFAAJFAAJFAAJFAAJFAK7r+gN/+aNF3gNsrwAAAABJRU5ErkJggg==;movable=1;resizable=1;rotatable=1;deletable=1;editable=1;locked=0;connectable=1;" vertex="1" parent="1">
                    <mxGeometry x="2050" y="3993" width="94.96" height="22.03" as="geometry"/>
                </mxCell>
                <mxCell id="28" value="&lt;div style=&quot;background-color: rgb(255, 255, 255); font-family: Consolas, &amp;quot;Courier New&amp;quot;, monospace; font-weight: normal; line-height: 19px; white-space: pre;&quot;&gt;&lt;div style=&quot;&quot;&gt;&lt;table style=&quot;font-size: 8px; width: 617pt;&quot; width=&quot;823&quot; cellspacing=&quot;0&quot; cellpadding=&quot;0&quot; border=&quot;0&quot;&gt;&lt;tbody&gt;&lt;tr style=&quot;height: 14.35pt;&quot; height=&quot;19&quot;&gt;&lt;td style=&quot;height: 14.35pt; width: 617pt;&quot; width=&quot;823&quot; height=&quot;19&quot;&gt;&lt;font color=&quot;#b3b3b3&quot;&gt;054c5639-3ea3-7531-1cd4-4612742e0d4b&lt;/font&gt;&lt;/td&gt;&lt;/tr&gt;&lt;/tbody&gt;&lt;/table&gt;&lt;/div&gt;&lt;/div&gt;" style="text;whiteSpace=wrap;html=1;" vertex="1" parent="1">
                    <mxGeometry x="1184" y="3993" width="170" height="30" as="geometry"/>
                </mxCell>
                <mxCell id="29" value="" style="shape=image;verticalLabelPosition=bottom;labelBackgroundColor=default;verticalAlign=top;aspect=fixed;imageAspect=0;image=data:image/svg+xml,PHN2ZyB4bWxucz0iaHR0cDovL3d3dy53My5vcmcvMjAwMC9zdmciIHZpZXdCb3g9IjAgMCA0NDggNTEyIj48cGF0aCBkPSJNMzg0IDMzNmwtMTkyIDBjLTguOCAwLTE2LTcuMi0xNi0xNmwwLTI1NmMwLTguOCA3LjItMTYgMTYtMTZsMTQwLjEgMEw0MDAgMTE1LjkgNDAwIDMyMGMwIDguOC03LjIgMTYtMTYgMTZ6TTE5MiAzODRsMTkyIDBjMzUuMyAwIDY0LTI4LjcgNjQtNjRsMC0yMDQuMWMwLTEyLjctNS4xLTI0LjktMTQuMS0zMy45TDM2Ni4xIDE0LjFjLTktOS0yMS4yLTE0LjEtMzMuOS0xNC4xTDE5MiAwYy0zNS4zIDAtNjQgMjguNy02NCA2NGwwIDI1NmMwIDM1LjMgMjguNyA2NCA2NCA2NHpNNjQgMTI4Yy0zNS4zIDAtNjQgMjguNy02NCA2NEwwIDQ0OGMwIDM1LjMgMjguNyA2NCA2NCA2NGwxOTIgMGMzNS4zIDAgNjQtMjguNyA2NC02NGwwLTMyLTQ4IDAgMCAzMmMwIDguOC03LjIgMTYtMTYgMTZMNjQgNDY0Yy04LjggMC0xNi03LjItMTYtMTZsMC0yNTZjMC04LjggNy4yLTE2IDE2LTE2bDMyIDAgMC00OC0zMiAweiIgZmlsbD0iIzY2MDAwMCIvPjwvc3ZnPg==;" vertex="1" parent="1">
                    <mxGeometry x="1350" y="4003" width="8.75" height="10" as="geometry"/>
                </mxCell>
                <mxCell id="30" value="&lt;h1 style=&quot;margin-top: 0px;&quot;&gt;Structure UI&lt;/h1&gt;" style="text;html=1;whiteSpace=wrap;overflow=hidden;rounded=0;" vertex="1" parent="1">
                    <mxGeometry x="1120" y="3510" width="270" height="41" as="geometry"/>
                </mxCell>
                <mxCell id="31" value="&lt;b&gt;Structure Map CRU:&lt;/b&gt;&lt;div style=&quot;font-size: 10px;&quot;&gt;&lt;ul style=&quot;font-size: 10px;&quot;&gt;&lt;li&gt;Linked icon/unichar to add new Element&lt;/li&gt;&lt;li style=&quot;font-size: 10px;&quot;&gt;Double-Tap to Edit Name&lt;/li&gt;&lt;li style=&quot;font-size: 10px;&quot;&gt;Linked icon/unichar to edit Element Record&lt;/li&gt;&lt;li style=&quot;font-size: 10px;&quot;&gt;Drag/Drop to re-parent&lt;/li&gt;&lt;li style=&quot;font-size: 10px;&quot;&gt;Drag/Drop to re-order&lt;/li&gt;&lt;/ul&gt;&lt;/div&gt;" style="text;html=1;align=left;verticalAlign=top;whiteSpace=wrap;rounded=0;fontSize=10;fontColor=#FF00FF;" vertex="1" parent="1">
                    <mxGeometry x="1600" y="3700" width="250" height="80" as="geometry"/>
                </mxCell>
            </root>
        </mxGraphModel>
    </diagram>
</mxfile>